<?xml version="1.0" encoding="UTF-8" standalone="no"?>
<!DOCTYPE svg PUBLIC "-//W3C//DTD SVG 1.1//EN"
 "http://www.w3.org/Graphics/SVG/1.1/DTD/svg11.dtd">
<!-- Generated by graphviz version 2.38.0 (20140413.2041)
 -->
<!-- Title: controllers_diagram Pages: 1 -->
<svg width="738pt" height="823pt"
 viewBox="0.00 0.00 737.79 823.00" xmlns="http://www.w3.org/2000/svg" xmlns:xlink="http://www.w3.org/1999/xlink">
<g id="graph0" class="graph" transform="scale(1 1) rotate(0) translate(292.104 495.5)">
<title>controllers_diagram</title>
<polygon fill="white" stroke="none" points="-292.104,327.5 -292.104,-495.5 445.688,-495.5 445.688,327.5 -292.104,327.5"/>
<!-- _diagram_info -->
<g id="node1" class="node"><title>_diagram_info</title>
<text text-anchor="start" x="242.312" y="-95.1" font-family="Times,serif" font-size="13.00">Controllers diagram</text>
<text text-anchor="start" x="242.312" y="-82.1" font-family="Times,serif" font-size="13.00">Date: Jan 23 2015 &#45; 18:11</text>
<text text-anchor="start" x="242.312" y="-69.1" font-family="Times,serif" font-size="13.00">Migration version: 20150122021000</text>
<text text-anchor="start" x="242.312" y="-56.1" font-family="Times,serif" font-size="13.00">Generated by RailRoady 1.3.0</text>
<text text-anchor="start" x="242.312" y="-43.1" font-family="Times,serif" font-size="13.00">http://railroady.prestonlee.com</text>
</g>
<!-- ApplicationController -->
<g id="node2" class="node"><title>ApplicationController</title>
<path fill="none" stroke="black" d="M-257.821,269C-257.821,269 -142.179,269 -142.179,269 -136.179,269 -130.179,263 -130.179,257 -130.179,257 -130.179,175 -130.179,175 -130.179,169 -136.179,163 -142.179,163 -142.179,163 -257.821,163 -257.821,163 -263.821,163 -269.821,169 -269.821,175 -269.821,175 -269.821,257 -269.821,257 -269.821,263 -263.821,269 -257.821,269"/>
<text text-anchor="middle" x="-200" y="178.2" font-family="Times,serif" font-size="14.00">ApplicationController</text>
<polyline fill="none" stroke="black" points="-269.821,185 -130.179,185 "/>
<polyline fill="none" stroke="black" points="-269.821,209 -130.179,209 "/>
<polyline fill="none" stroke="black" points="-269.821,233 -130.179,233 "/>
<text text-anchor="start" x="-261.821" y="248.2" font-family="Times,serif" font-size="14.00">_layout</text>
<text text-anchor="start" x="-261.821" y="262.2" font-family="Times,serif" font-size="14.00">not_authenticated</text>
</g>
<!-- ArtifactsController -->
<g id="node3" class="node"><title>ArtifactsController</title>
<path fill="none" stroke="black" d="M83.7378,71C83.7378,71 182.262,71 182.262,71 188.262,71 194.262,65 194.262,59 194.262,59 194.262,-147 194.262,-147 194.262,-153 188.262,-159 182.262,-159 182.262,-159 83.7378,-159 83.7378,-159 77.7378,-159 71.7378,-153 71.7378,-147 71.7378,-147 71.7378,59 71.7378,59 71.7378,65 77.7378,71 83.7378,71"/>
<text text-anchor="middle" x="133" y="-143.8" font-family="Times,serif" font-size="14.00">ArtifactsController</text>
<polyline fill="none" stroke="black" points="71.7378,-137 194.262,-137 "/>
<text text-anchor="start" x="79.7378" y="-121.8" font-family="Times,serif" font-size="14.00">create</text>
<text text-anchor="start" x="79.7378" y="-107.8" font-family="Times,serif" font-size="14.00">destroy</text>
<text text-anchor="start" x="79.7378" y="-93.8" font-family="Times,serif" font-size="14.00">edit</text>
<text text-anchor="start" x="79.7378" y="-79.8" font-family="Times,serif" font-size="14.00">index</text>
<text text-anchor="start" x="79.7378" y="-65.8" font-family="Times,serif" font-size="14.00">new</text>
<text text-anchor="start" x="79.7378" y="-51.8" font-family="Times,serif" font-size="14.00">show</text>
<text text-anchor="start" x="79.7378" y="-37.8" font-family="Times,serif" font-size="14.00">update</text>
<polyline fill="none" stroke="black" points="71.7378,-31 194.262,-31 "/>
<polyline fill="none" stroke="black" points="71.7378,-7 194.262,-7 "/>
<text text-anchor="start" x="79.7378" y="8.2" font-family="Times,serif" font-size="14.00">_layout</text>
<text text-anchor="start" x="79.7378" y="22.2" font-family="Times,serif" font-size="14.00">artifact_params</text>
<text text-anchor="start" x="79.7378" y="36.2" font-family="Times,serif" font-size="14.00">limit_params</text>
<text text-anchor="start" x="79.7378" y="50.2" font-family="Times,serif" font-size="14.00">select_params</text>
<text text-anchor="start" x="79.7378" y="64.2" font-family="Times,serif" font-size="14.00">sort_params</text>
</g>
<!-- HomeController -->
<g id="node4" class="node"><title>HomeController</title>
<path fill="none" stroke="black" d="M-275.879,-163C-275.879,-163 -192.121,-163 -192.121,-163 -186.121,-163 -180.121,-169 -180.121,-175 -180.121,-175 -180.121,-241 -180.121,-241 -180.121,-247 -186.121,-253 -192.121,-253 -192.121,-253 -275.879,-253 -275.879,-253 -281.879,-253 -287.879,-247 -287.879,-241 -287.879,-241 -287.879,-175 -287.879,-175 -287.879,-169 -281.879,-163 -275.879,-163"/>
<text text-anchor="middle" x="-234" y="-237.8" font-family="Times,serif" font-size="14.00">HomeController</text>
<polyline fill="none" stroke="black" points="-287.879,-231 -180.121,-231 "/>
<text text-anchor="start" x="-279.879" y="-215.8" font-family="Times,serif" font-size="14.00">index</text>
<polyline fill="none" stroke="black" points="-287.879,-209 -180.121,-209 "/>
<polyline fill="none" stroke="black" points="-287.879,-185 -180.121,-185 "/>
<text text-anchor="start" x="-279.879" y="-169.8" font-family="Times,serif" font-size="14.00">_layout</text>
</g>
<!-- PagesController -->
<g id="node5" class="node"><title>PagesController</title>
<path fill="none" stroke="black" d="M-276.104,-289C-276.104,-289 -193.896,-289 -193.896,-289 -187.896,-289 -181.896,-295 -181.896,-301 -181.896,-301 -181.896,-479 -181.896,-479 -181.896,-485 -187.896,-491 -193.896,-491 -193.896,-491 -276.104,-491 -276.104,-491 -282.104,-491 -288.104,-485 -288.104,-479 -288.104,-479 -288.104,-301 -288.104,-301 -288.104,-295 -282.104,-289 -276.104,-289"/>
<text text-anchor="middle" x="-235" y="-475.8" font-family="Times,serif" font-size="14.00">PagesController</text>
<polyline fill="none" stroke="black" points="-288.104,-469 -181.896,-469 "/>
<text text-anchor="start" x="-280.104" y="-453.8" font-family="Times,serif" font-size="14.00">destroy</text>
<text text-anchor="start" x="-280.104" y="-439.8" font-family="Times,serif" font-size="14.00">edit</text>
<text text-anchor="start" x="-280.104" y="-425.8" font-family="Times,serif" font-size="14.00">index</text>
<text text-anchor="start" x="-280.104" y="-411.8" font-family="Times,serif" font-size="14.00">show</text>
<text text-anchor="start" x="-280.104" y="-397.8" font-family="Times,serif" font-size="14.00">update</text>
<polyline fill="none" stroke="black" points="-288.104,-391 -181.896,-391 "/>
<polyline fill="none" stroke="black" points="-288.104,-367 -181.896,-367 "/>
<text text-anchor="start" x="-280.104" y="-351.8" font-family="Times,serif" font-size="14.00">_layout</text>
<text text-anchor="start" x="-280.104" y="-337.8" font-family="Times,serif" font-size="14.00">limit_params</text>
<text text-anchor="start" x="-280.104" y="-323.8" font-family="Times,serif" font-size="14.00">page_params</text>
<text text-anchor="start" x="-280.104" y="-309.8" font-family="Times,serif" font-size="14.00">select_params</text>
<text text-anchor="start" x="-280.104" y="-295.8" font-family="Times,serif" font-size="14.00">sort_params</text>
</g>
<!-- PeopleController -->
<g id="node6" class="node"><title>PeopleController</title>
<path fill="none" stroke="black" d="M-203.824,125C-203.824,125 -116.176,125 -116.176,125 -110.176,125 -104.176,119 -104.176,113 -104.176,113 -104.176,-93 -104.176,-93 -104.176,-99 -110.176,-105 -116.176,-105 -116.176,-105 -203.824,-105 -203.824,-105 -209.824,-105 -215.824,-99 -215.824,-93 -215.824,-93 -215.824,113 -215.824,113 -215.824,119 -209.824,125 -203.824,125"/>
<text text-anchor="middle" x="-160" y="-89.8" font-family="Times,serif" font-size="14.00">PeopleController</text>
<polyline fill="none" stroke="black" points="-215.824,-83 -104.176,-83 "/>
<text text-anchor="start" x="-207.824" y="-67.8" font-family="Times,serif" font-size="14.00">create</text>
<text text-anchor="start" x="-207.824" y="-53.8" font-family="Times,serif" font-size="14.00">destroy</text>
<text text-anchor="start" x="-207.824" y="-39.8" font-family="Times,serif" font-size="14.00">edit</text>
<text text-anchor="start" x="-207.824" y="-25.8" font-family="Times,serif" font-size="14.00">index</text>
<text text-anchor="start" x="-207.824" y="-11.8" font-family="Times,serif" font-size="14.00">new</text>
<text text-anchor="start" x="-207.824" y="2.2" font-family="Times,serif" font-size="14.00">show</text>
<text text-anchor="start" x="-207.824" y="16.2" font-family="Times,serif" font-size="14.00">update</text>
<polyline fill="none" stroke="black" points="-215.824,23 -104.176,23 "/>
<polyline fill="none" stroke="black" points="-215.824,47 -104.176,47 "/>
<text text-anchor="start" x="-207.824" y="62.2" font-family="Times,serif" font-size="14.00">_layout</text>
<text text-anchor="start" x="-207.824" y="76.2" font-family="Times,serif" font-size="14.00">limit_params</text>
<text text-anchor="start" x="-207.824" y="90.2" font-family="Times,serif" font-size="14.00">person_params</text>
<text text-anchor="start" x="-207.824" y="104.2" font-family="Times,serif" font-size="14.00">select_params</text>
<text text-anchor="start" x="-207.824" y="118.2" font-family="Times,serif" font-size="14.00">sort_params</text>
</g>
<!-- PlacesController -->
<g id="node7" class="node"><title>PlacesController</title>
<path fill="none" stroke="black" d="M246.345,233C246.345,233 331.655,233 331.655,233 337.655,233 343.655,227 343.655,221 343.655,221 343.655,15 343.655,15 343.655,9 337.655,3 331.655,3 331.655,3 246.345,3 246.345,3 240.345,3 234.345,9 234.345,15 234.345,15 234.345,221 234.345,221 234.345,227 240.345,233 246.345,233"/>
<text text-anchor="middle" x="289" y="18.2" font-family="Times,serif" font-size="14.00">PlacesController</text>
<polyline fill="none" stroke="black" points="234.345,25 343.655,25 "/>
<text text-anchor="start" x="242.345" y="40.2" font-family="Times,serif" font-size="14.00">create</text>
<text text-anchor="start" x="242.345" y="54.2" font-family="Times,serif" font-size="14.00">destroy</text>
<text text-anchor="start" x="242.345" y="68.2" font-family="Times,serif" font-size="14.00">edit</text>
<text text-anchor="start" x="242.345" y="82.2" font-family="Times,serif" font-size="14.00">index</text>
<text text-anchor="start" x="242.345" y="96.2" font-family="Times,serif" font-size="14.00">new</text>
<text text-anchor="start" x="242.345" y="110.2" font-family="Times,serif" font-size="14.00">show</text>
<text text-anchor="start" x="242.345" y="124.2" font-family="Times,serif" font-size="14.00">update</text>
<polyline fill="none" stroke="black" points="234.345,131 343.655,131 "/>
<polyline fill="none" stroke="black" points="234.345,155 343.655,155 "/>
<text text-anchor="start" x="242.345" y="170.2" font-family="Times,serif" font-size="14.00">_layout</text>
<text text-anchor="start" x="242.345" y="184.2" font-family="Times,serif" font-size="14.00">limit_params</text>
<text text-anchor="start" x="242.345" y="198.2" font-family="Times,serif" font-size="14.00">place_params</text>
<text text-anchor="start" x="242.345" y="212.2" font-family="Times,serif" font-size="14.00">select_params</text>
<text text-anchor="start" x="242.345" y="226.2" font-family="Times,serif" font-size="14.00">sort_params</text>
</g>
<!-- SourcesController -->
<g id="node8" class="node"><title>SourcesController</title>
<path fill="none" stroke="black" d="M-59.9346,125C-59.9346,125 33.9346,125 33.9346,125 39.9346,125 45.9346,119 45.9346,113 45.9346,113 45.9346,-93 45.9346,-93 45.9346,-99 39.9346,-105 33.9346,-105 33.9346,-105 -59.9346,-105 -59.9346,-105 -65.9346,-105 -71.9346,-99 -71.9346,-93 -71.9346,-93 -71.9346,113 -71.9346,113 -71.9346,119 -65.9346,125 -59.9346,125"/>
<text text-anchor="middle" x="-13" y="-89.8" font-family="Times,serif" font-size="14.00">SourcesController</text>
<polyline fill="none" stroke="black" points="-71.9346,-83 45.9346,-83 "/>
<text text-anchor="start" x="-63.9346" y="-67.8" font-family="Times,serif" font-size="14.00">create</text>
<text text-anchor="start" x="-63.9346" y="-53.8" font-family="Times,serif" font-size="14.00">destroy</text>
<text text-anchor="start" x="-63.9346" y="-39.8" font-family="Times,serif" font-size="14.00">edit</text>
<text text-anchor="start" x="-63.9346" y="-25.8" font-family="Times,serif" font-size="14.00">index</text>
<text text-anchor="start" x="-63.9346" y="-11.8" font-family="Times,serif" font-size="14.00">new</text>
<text text-anchor="start" x="-63.9346" y="2.2" font-family="Times,serif" font-size="14.00">show</text>
<text text-anchor="start" x="-63.9346" y="16.2" font-family="Times,serif" font-size="14.00">update</text>
<polyline fill="none" stroke="black" points="-71.9346,23 45.9346,23 "/>
<polyline fill="none" stroke="black" points="-71.9346,47 45.9346,47 "/>
<text text-anchor="start" x="-63.9346" y="62.2" font-family="Times,serif" font-size="14.00">_layout</text>
<text text-anchor="start" x="-63.9346" y="76.2" font-family="Times,serif" font-size="14.00">limit_params</text>
<text text-anchor="start" x="-63.9346" y="90.2" font-family="Times,serif" font-size="14.00">select_params</text>
<text text-anchor="start" x="-63.9346" y="104.2" font-family="Times,serif" font-size="14.00">sort_params</text>
<text text-anchor="start" x="-63.9346" y="118.2" font-family="Times,serif" font-size="14.00">source_params</text>
</g>
<!-- Users::RegistrationsController -->
<g id="node9" class="node"><title>Users::RegistrationsController</title>
<path fill="none" stroke="black" d="M-131.545,-145C-131.545,-145 31.5449,-145 31.5449,-145 37.5449,-145 43.5449,-151 43.5449,-157 43.5449,-157 43.5449,-279 43.5449,-279 43.5449,-285 37.5449,-291 31.5449,-291 31.5449,-291 -131.545,-291 -131.545,-291 -137.545,-291 -143.545,-285 -143.545,-279 -143.545,-279 -143.545,-157 -143.545,-157 -143.545,-151 -137.545,-145 -131.545,-145"/>
<text text-anchor="middle" x="-50" y="-275.8" font-family="Times,serif" font-size="14.00">Users::RegistrationsController</text>
<polyline fill="none" stroke="black" points="-143.545,-269 43.5449,-269 "/>
<text text-anchor="start" x="-135.545" y="-253.8" font-family="Times,serif" font-size="14.00">create</text>
<text text-anchor="start" x="-135.545" y="-239.8" font-family="Times,serif" font-size="14.00">new</text>
<polyline fill="none" stroke="black" points="-143.545,-233 43.5449,-233 "/>
<polyline fill="none" stroke="black" points="-143.545,-209 43.5449,-209 "/>
<text text-anchor="start" x="-135.545" y="-193.8" font-family="Times,serif" font-size="14.00">_layout</text>
<text text-anchor="start" x="-135.545" y="-179.8" font-family="Times,serif" font-size="14.00">ensure_token</text>
<text text-anchor="start" x="-135.545" y="-165.8" font-family="Times,serif" font-size="14.00">token_param</text>
<text text-anchor="start" x="-135.545" y="-151.8" font-family="Times,serif" font-size="14.00">user_params</text>
</g>
<!-- Users::ResetPasswordController -->
<g id="node10" class="node"><title>Users::ResetPasswordController</title>
<path fill="none" stroke="black" d="M210.01,-199C210.01,-199 383.99,-199 383.99,-199 389.99,-199 395.99,-205 395.99,-211 395.99,-211 395.99,-347 395.99,-347 395.99,-353 389.99,-359 383.99,-359 383.99,-359 210.01,-359 210.01,-359 204.01,-359 198.01,-353 198.01,-347 198.01,-347 198.01,-211 198.01,-211 198.01,-205 204.01,-199 210.01,-199"/>
<text text-anchor="middle" x="297" y="-343.8" font-family="Times,serif" font-size="14.00">Users::ResetPasswordController</text>
<polyline fill="none" stroke="black" points="198.01,-337 395.99,-337 "/>
<text text-anchor="start" x="206.01" y="-321.8" font-family="Times,serif" font-size="14.00">create</text>
<text text-anchor="start" x="206.01" y="-307.8" font-family="Times,serif" font-size="14.00">edit</text>
<text text-anchor="start" x="206.01" y="-293.8" font-family="Times,serif" font-size="14.00">update</text>
<polyline fill="none" stroke="black" points="198.01,-287 395.99,-287 "/>
<polyline fill="none" stroke="black" points="198.01,-263 395.99,-263 "/>
<text text-anchor="start" x="206.01" y="-247.8" font-family="Times,serif" font-size="14.00">_layout</text>
<text text-anchor="start" x="206.01" y="-233.8" font-family="Times,serif" font-size="14.00">email_param</text>
<text text-anchor="start" x="206.01" y="-219.8" font-family="Times,serif" font-size="14.00">password_params</text>
<text text-anchor="start" x="206.01" y="-205.8" font-family="Times,serif" font-size="14.00">token_param</text>
</g>
<!-- Users::SessionsController -->
<g id="node11" class="node"><title>Users::SessionsController</title>
<path fill="none" stroke="black" d="M12.2793,323C12.2793,323 149.721,323 149.721,323 155.721,323 161.721,317 161.721,311 161.721,311 161.721,175 161.721,175 161.721,169 155.721,163 149.721,163 149.721,163 12.2793,163 12.2793,163 6.2793,163 0.279297,169 0.279297,175 0.279297,175 0.279297,311 0.279297,311 0.279297,317 6.2793,323 12.2793,323"/>
<text text-anchor="middle" x="81" y="178.2" font-family="Times,serif" font-size="14.00">Users::SessionsController</text>
<polyline fill="none" stroke="black" points="0.279297,185 161.721,185 "/>
<text text-anchor="start" x="8.2793" y="200.2" font-family="Times,serif" font-size="14.00">create</text>
<text text-anchor="start" x="8.2793" y="214.2" font-family="Times,serif" font-size="14.00">destroy</text>
<text text-anchor="start" x="8.2793" y="228.2" font-family="Times,serif" font-size="14.00">new</text>
<polyline fill="none" stroke="black" points="0.279297,235 161.721,235 "/>
<polyline fill="none" stroke="black" points="0.279297,259 161.721,259 "/>
<text text-anchor="start" x="8.2793" y="274.2" font-family="Times,serif" font-size="14.00">_layout</text>
<text text-anchor="start" x="8.2793" y="288.2" font-family="Times,serif" font-size="14.00">email_param</text>
<text text-anchor="start" x="8.2793" y="302.2" font-family="Times,serif" font-size="14.00">password_param</text>
<text text-anchor="start" x="8.2793" y="316.2" font-family="Times,serif" font-size="14.00">remember_param</text>
</g>
</g>
</svg>
