<?xml version="1.0" encoding="UTF-8" standalone="no"?>
<!DOCTYPE svg PUBLIC "-//W3C//DTD SVG 1.1//EN"
 "http://www.w3.org/Graphics/SVG/1.1/DTD/svg11.dtd">
<!-- Generated by graphviz version 2.38.0 (20140413.2041)
 -->
<!-- Title: controllers_diagram Pages: 1 -->
<svg width="452pt" height="475pt"
 viewBox="0.00 0.00 452.44 475.00" xmlns="http://www.w3.org/2000/svg" xmlns:xlink="http://www.w3.org/1999/xlink">
<g id="graph0" class="graph" transform="scale(1 1) rotate(0) translate(105.99 267.5)">
<title>controllers_diagram</title>
<polygon fill="white" stroke="none" points="-105.99,207.5 -105.99,-267.5 346.45,-267.5 346.45,207.5 -105.99,207.5"/>
<!-- _diagram_info -->
<g id="node1" class="node"><title>_diagram_info</title>
<text text-anchor="start" x="143.55" y="76.9" font-family="Times,serif" font-size="13.00">Controllers diagram</text>
<text text-anchor="start" x="143.55" y="89.9" font-family="Times,serif" font-size="13.00">Date: Jan 19 2015 &#45; 16:04</text>
<text text-anchor="start" x="143.55" y="102.9" font-family="Times,serif" font-size="13.00">Migration version: 20150119120037</text>
<text text-anchor="start" x="143.55" y="115.9" font-family="Times,serif" font-size="13.00">Generated by RailRoady 1.3.0</text>
<text text-anchor="start" x="143.55" y="128.9" font-family="Times,serif" font-size="13.00">http://railroady.prestonlee.com</text>
</g>
<!-- ApplicationController -->
<g id="node2" class="node"><title>ApplicationController</title>
<path fill="none" stroke="black" d="M148.179,33C148.179,33 263.821,33 263.821,33 269.821,33 275.821,27 275.821,21 275.821,21 275.821,-61 275.821,-61 275.821,-67 269.821,-73 263.821,-73 263.821,-73 148.179,-73 148.179,-73 142.179,-73 136.179,-67 136.179,-61 136.179,-61 136.179,21 136.179,21 136.179,27 142.179,33 148.179,33"/>
<text text-anchor="middle" x="206" y="-57.8" font-family="Times,serif" font-size="14.00">ApplicationController</text>
<polyline fill="none" stroke="black" points="136.179,-51 275.821,-51 "/>
<polyline fill="none" stroke="black" points="136.179,-27 275.821,-27 "/>
<polyline fill="none" stroke="black" points="136.179,-3 275.821,-3 "/>
<text text-anchor="start" x="144.179" y="12.2" font-family="Times,serif" font-size="14.00">_layout</text>
<text text-anchor="start" x="144.179" y="26.2" font-family="Times,serif" font-size="14.00">not_authenticated</text>
</g>
<!-- HomeController -->
<g id="node3" class="node"><title>HomeController</title>
<path fill="none" stroke="black" d="M12.1206,203C12.1206,203 95.8794,203 95.8794,203 101.879,203 107.879,197 107.879,191 107.879,191 107.879,125 107.879,125 107.879,119 101.879,113 95.8794,113 95.8794,113 12.1206,113 12.1206,113 6.12061,113 0.120605,119 0.120605,125 0.120605,125 0.120605,191 0.120605,191 0.120605,197 6.12061,203 12.1206,203"/>
<text text-anchor="middle" x="54" y="128.2" font-family="Times,serif" font-size="14.00">HomeController</text>
<polyline fill="none" stroke="black" points="0.120605,135 107.879,135 "/>
<text text-anchor="start" x="8.12061" y="150.2" font-family="Times,serif" font-size="14.00">index</text>
<polyline fill="none" stroke="black" points="0.120605,157 107.879,157 "/>
<polyline fill="none" stroke="black" points="0.120605,181 107.879,181 "/>
<text text-anchor="start" x="8.12061" y="196.2" font-family="Times,serif" font-size="14.00">_layout</text>
</g>
<!-- Users::RegistrationsController -->
<g id="node4" class="node"><title>Users::RegistrationsController</title>
<path fill="none" stroke="black" d="M114.455,-103C114.455,-103 277.545,-103 277.545,-103 283.545,-103 289.545,-109 289.545,-115 289.545,-115 289.545,-237 289.545,-237 289.545,-243 283.545,-249 277.545,-249 277.545,-249 114.455,-249 114.455,-249 108.455,-249 102.455,-243 102.455,-237 102.455,-237 102.455,-115 102.455,-115 102.455,-109 108.455,-103 114.455,-103"/>
<text text-anchor="middle" x="196" y="-233.8" font-family="Times,serif" font-size="14.00">Users::RegistrationsController</text>
<polyline fill="none" stroke="black" points="102.455,-227 289.545,-227 "/>
<text text-anchor="start" x="110.455" y="-211.8" font-family="Times,serif" font-size="14.00">create</text>
<text text-anchor="start" x="110.455" y="-197.8" font-family="Times,serif" font-size="14.00">new</text>
<polyline fill="none" stroke="black" points="102.455,-191 289.545,-191 "/>
<polyline fill="none" stroke="black" points="102.455,-167 289.545,-167 "/>
<text text-anchor="start" x="110.455" y="-151.8" font-family="Times,serif" font-size="14.00">_layout</text>
<text text-anchor="start" x="110.455" y="-137.8" font-family="Times,serif" font-size="14.00">ensure_token</text>
<text text-anchor="start" x="110.455" y="-123.8" font-family="Times,serif" font-size="14.00">token_param</text>
<text text-anchor="start" x="110.455" y="-109.8" font-family="Times,serif" font-size="14.00">user_params</text>
</g>
<!-- Users::ResetPasswordController -->
<g id="node5" class="node"><title>Users::ResetPasswordController</title>
<path fill="none" stroke="black" d="M-89.9897,84C-89.9897,84 83.9897,84 83.9897,84 89.9897,84 95.9897,78 95.9897,72 95.9897,72 95.9897,-64 95.9897,-64 95.9897,-70 89.9897,-76 83.9897,-76 83.9897,-76 -89.9897,-76 -89.9897,-76 -95.9897,-76 -101.99,-70 -101.99,-64 -101.99,-64 -101.99,72 -101.99,72 -101.99,78 -95.9897,84 -89.9897,84"/>
<text text-anchor="middle" x="-3" y="-60.8" font-family="Times,serif" font-size="14.00">Users::ResetPasswordController</text>
<polyline fill="none" stroke="black" points="-101.99,-54 95.9897,-54 "/>
<text text-anchor="start" x="-93.9897" y="-38.8" font-family="Times,serif" font-size="14.00">create</text>
<text text-anchor="start" x="-93.9897" y="-24.8" font-family="Times,serif" font-size="14.00">edit</text>
<text text-anchor="start" x="-93.9897" y="-10.8" font-family="Times,serif" font-size="14.00">update</text>
<polyline fill="none" stroke="black" points="-101.99,-4 95.9897,-4 "/>
<polyline fill="none" stroke="black" points="-101.99,20 95.9897,20 "/>
<text text-anchor="start" x="-93.9897" y="35.2" font-family="Times,serif" font-size="14.00">_layout</text>
<text text-anchor="start" x="-93.9897" y="49.2" font-family="Times,serif" font-size="14.00">email_param</text>
<text text-anchor="start" x="-93.9897" y="63.2" font-family="Times,serif" font-size="14.00">password_params</text>
<text text-anchor="start" x="-93.9897" y="77.2" font-family="Times,serif" font-size="14.00">token_param</text>
</g>
<!-- Users::SessionsController -->
<g id="node6" class="node"><title>Users::SessionsController</title>
<path fill="none" stroke="black" d="M-72.7207,-103C-72.7207,-103 64.7207,-103 64.7207,-103 70.7207,-103 76.7207,-109 76.7207,-115 76.7207,-115 76.7207,-251 76.7207,-251 76.7207,-257 70.7207,-263 64.7207,-263 64.7207,-263 -72.7207,-263 -72.7207,-263 -78.7207,-263 -84.7207,-257 -84.7207,-251 -84.7207,-251 -84.7207,-115 -84.7207,-115 -84.7207,-109 -78.7207,-103 -72.7207,-103"/>
<text text-anchor="middle" x="-4" y="-247.8" font-family="Times,serif" font-size="14.00">Users::SessionsController</text>
<polyline fill="none" stroke="black" points="-84.7207,-241 76.7207,-241 "/>
<text text-anchor="start" x="-76.7207" y="-225.8" font-family="Times,serif" font-size="14.00">create</text>
<text text-anchor="start" x="-76.7207" y="-211.8" font-family="Times,serif" font-size="14.00">destroy</text>
<text text-anchor="start" x="-76.7207" y="-197.8" font-family="Times,serif" font-size="14.00">new</text>
<polyline fill="none" stroke="black" points="-84.7207,-191 76.7207,-191 "/>
<polyline fill="none" stroke="black" points="-84.7207,-167 76.7207,-167 "/>
<text text-anchor="start" x="-76.7207" y="-151.8" font-family="Times,serif" font-size="14.00">_layout</text>
<text text-anchor="start" x="-76.7207" y="-137.8" font-family="Times,serif" font-size="14.00">email_param</text>
<text text-anchor="start" x="-76.7207" y="-123.8" font-family="Times,serif" font-size="14.00">password_param</text>
<text text-anchor="start" x="-76.7207" y="-109.8" font-family="Times,serif" font-size="14.00">remember_param</text>
</g>
</g>
</svg>
