<?xml version="1.0" encoding="UTF-8" standalone="no"?>
<!DOCTYPE svg PUBLIC "-//W3C//DTD SVG 1.1//EN"
 "http://www.w3.org/Graphics/SVG/1.1/DTD/svg11.dtd">
<!-- Generated by graphviz version 2.38.0 (20140413.2041)
 -->
<!-- Title: controllers_diagram Pages: 1 -->
<svg width="854pt" height="911pt"
 viewBox="0.00 0.00 854.11 911.00" xmlns="http://www.w3.org/2000/svg" xmlns:xlink="http://www.w3.org/1999/xlink">
<g id="graph0" class="graph" transform="scale(1 1) rotate(0) translate(400.39 529.5)">
<title>controllers_diagram</title>
<polygon fill="white" stroke="none" points="-400.39,381.5 -400.39,-529.5 453.721,-529.5 453.721,381.5 -400.39,381.5"/>
<!-- _diagram_info -->
<g id="node1" class="node"><title>_diagram_info</title>
<text text-anchor="start" x="7.55029" y="228.9" font-family="Times,serif" font-size="13.00">Controllers diagram</text>
<text text-anchor="start" x="7.55029" y="241.9" font-family="Times,serif" font-size="13.00">Date: Feb 10 2015 &#45; 23:30</text>
<text text-anchor="start" x="7.55029" y="254.9" font-family="Times,serif" font-size="13.00">Migration version: 20150211045230</text>
<text text-anchor="start" x="7.55029" y="267.9" font-family="Times,serif" font-size="13.00">Generated by RailRoady 1.3.0</text>
<text text-anchor="start" x="7.55029" y="280.9" font-family="Times,serif" font-size="13.00">http://railroady.prestonlee.com</text>
</g>
<!-- AffiliationsController -->
<g id="node2" class="node"><title>AffiliationsController</title>
<path fill="none" stroke="black" d="M-221.662,-235C-221.662,-235 -108.338,-235 -108.338,-235 -102.338,-235 -96.3379,-241 -96.3379,-247 -96.3379,-247 -96.3379,-439 -96.3379,-439 -96.3379,-445 -102.338,-451 -108.338,-451 -108.338,-451 -221.662,-451 -221.662,-451 -227.662,-451 -233.662,-445 -233.662,-439 -233.662,-439 -233.662,-247 -233.662,-247 -233.662,-241 -227.662,-235 -221.662,-235"/>
<text text-anchor="middle" x="-165" y="-435.8" font-family="Times,serif" font-size="14.00">AffiliationsController</text>
<polyline fill="none" stroke="black" points="-233.662,-429 -96.3379,-429 "/>
<text text-anchor="start" x="-225.662" y="-413.8" font-family="Times,serif" font-size="14.00">create</text>
<text text-anchor="start" x="-225.662" y="-399.8" font-family="Times,serif" font-size="14.00">destroy</text>
<text text-anchor="start" x="-225.662" y="-385.8" font-family="Times,serif" font-size="14.00">edit</text>
<text text-anchor="start" x="-225.662" y="-371.8" font-family="Times,serif" font-size="14.00">new</text>
<text text-anchor="start" x="-225.662" y="-357.8" font-family="Times,serif" font-size="14.00">show</text>
<text text-anchor="start" x="-225.662" y="-343.8" font-family="Times,serif" font-size="14.00">update</text>
<polyline fill="none" stroke="black" points="-233.662,-337 -96.3379,-337 "/>
<polyline fill="none" stroke="black" points="-233.662,-313 -96.3379,-313 "/>
<text text-anchor="start" x="-225.662" y="-297.8" font-family="Times,serif" font-size="14.00">_layout</text>
<text text-anchor="start" x="-225.662" y="-283.8" font-family="Times,serif" font-size="14.00">affiliation_params</text>
<text text-anchor="start" x="-225.662" y="-269.8" font-family="Times,serif" font-size="14.00">limit_params</text>
<text text-anchor="start" x="-225.662" y="-255.8" font-family="Times,serif" font-size="14.00">select_params</text>
<text text-anchor="start" x="-225.662" y="-241.8" font-family="Times,serif" font-size="14.00">sort_params</text>
</g>
<!-- ApplicationController -->
<g id="node3" class="node"><title>ApplicationController</title>
<path fill="none" stroke="black" d="M-41.8208,-361C-41.8208,-361 73.8208,-361 73.8208,-361 79.8208,-361 85.8208,-367 85.8208,-373 85.8208,-373 85.8208,-469 85.8208,-469 85.8208,-475 79.8208,-481 73.8208,-481 73.8208,-481 -41.8208,-481 -41.8208,-481 -47.8208,-481 -53.8208,-475 -53.8208,-469 -53.8208,-469 -53.8208,-373 -53.8208,-373 -53.8208,-367 -47.8208,-361 -41.8208,-361"/>
<text text-anchor="middle" x="16" y="-465.8" font-family="Times,serif" font-size="14.00">ApplicationController</text>
<polyline fill="none" stroke="black" points="-53.8208,-459 85.8208,-459 "/>
<polyline fill="none" stroke="black" points="-53.8208,-435 85.8208,-435 "/>
<polyline fill="none" stroke="black" points="-53.8208,-411 85.8208,-411 "/>
<text text-anchor="start" x="-45.8208" y="-395.8" font-family="Times,serif" font-size="14.00">_layout</text>
<text text-anchor="start" x="-45.8208" y="-381.8" font-family="Times,serif" font-size="14.00">not_authenticated</text>
<text text-anchor="start" x="-45.8208" y="-367.8" font-family="Times,serif" font-size="14.00">set_user_cookie</text>
</g>
<!-- ArtifactsController -->
<g id="node4" class="node"><title>ArtifactsController</title>
<path fill="none" stroke="black" d="M119.738,179C119.738,179 218.262,179 218.262,179 224.262,179 230.262,173 230.262,167 230.262,167 230.262,-39 230.262,-39 230.262,-45 224.262,-51 218.262,-51 218.262,-51 119.738,-51 119.738,-51 113.738,-51 107.738,-45 107.738,-39 107.738,-39 107.738,167 107.738,167 107.738,173 113.738,179 119.738,179"/>
<text text-anchor="middle" x="169" y="-35.8" font-family="Times,serif" font-size="14.00">ArtifactsController</text>
<polyline fill="none" stroke="black" points="107.738,-29 230.262,-29 "/>
<text text-anchor="start" x="115.738" y="-13.8" font-family="Times,serif" font-size="14.00">create</text>
<text text-anchor="start" x="115.738" y="0.2" font-family="Times,serif" font-size="14.00">destroy</text>
<text text-anchor="start" x="115.738" y="14.2" font-family="Times,serif" font-size="14.00">edit</text>
<text text-anchor="start" x="115.738" y="28.2" font-family="Times,serif" font-size="14.00">index</text>
<text text-anchor="start" x="115.738" y="42.2" font-family="Times,serif" font-size="14.00">new</text>
<text text-anchor="start" x="115.738" y="56.2" font-family="Times,serif" font-size="14.00">show</text>
<text text-anchor="start" x="115.738" y="70.2" font-family="Times,serif" font-size="14.00">update</text>
<polyline fill="none" stroke="black" points="107.738,77 230.262,77 "/>
<polyline fill="none" stroke="black" points="107.738,101 230.262,101 "/>
<text text-anchor="start" x="115.738" y="116.2" font-family="Times,serif" font-size="14.00">_layout</text>
<text text-anchor="start" x="115.738" y="130.2" font-family="Times,serif" font-size="14.00">artifact_params</text>
<text text-anchor="start" x="115.738" y="144.2" font-family="Times,serif" font-size="14.00">limit_params</text>
<text text-anchor="start" x="115.738" y="158.2" font-family="Times,serif" font-size="14.00">select_params</text>
<text text-anchor="start" x="115.738" y="172.2" font-family="Times,serif" font-size="14.00">sort_params</text>
</g>
<!-- ErrorsController -->
<g id="node5" class="node"><title>ErrorsController</title>
<path fill="none" stroke="black" d="M137.907,-361C137.907,-361 248.093,-361 248.093,-361 254.093,-361 260.093,-367 260.093,-373 260.093,-373 260.093,-467 260.093,-467 260.093,-473 254.093,-479 248.093,-479 248.093,-479 137.907,-479 137.907,-479 131.907,-479 125.907,-473 125.907,-467 125.907,-467 125.907,-373 125.907,-373 125.907,-367 131.907,-361 137.907,-361"/>
<text text-anchor="middle" x="193" y="-463.8" font-family="Times,serif" font-size="14.00">ErrorsController</text>
<polyline fill="none" stroke="black" points="125.907,-457 260.093,-457 "/>
<text text-anchor="start" x="133.907" y="-441.8" font-family="Times,serif" font-size="14.00">not_found</text>
<text text-anchor="start" x="133.907" y="-427.8" font-family="Times,serif" font-size="14.00">server_error</text>
<text text-anchor="start" x="133.907" y="-413.8" font-family="Times,serif" font-size="14.00">unprocessable_entity</text>
<polyline fill="none" stroke="black" points="125.907,-407 260.093,-407 "/>
<polyline fill="none" stroke="black" points="125.907,-383 260.093,-383 "/>
<text text-anchor="start" x="133.907" y="-367.8" font-family="Times,serif" font-size="14.00">_layout</text>
</g>
<!-- EventsController -->
<g id="node6" class="node"><title>EventsController</title>
<path fill="none" stroke="black" d="M-239.824,17C-239.824,17 -152.176,17 -152.176,17 -146.176,17 -140.176,11 -140.176,5 -140.176,5 -140.176,-187 -140.176,-187 -140.176,-193 -146.176,-199 -152.176,-199 -152.176,-199 -239.824,-199 -239.824,-199 -245.824,-199 -251.824,-193 -251.824,-187 -251.824,-187 -251.824,5 -251.824,5 -251.824,11 -245.824,17 -239.824,17"/>
<text text-anchor="middle" x="-196" y="-183.8" font-family="Times,serif" font-size="14.00">EventsController</text>
<polyline fill="none" stroke="black" points="-251.824,-177 -140.176,-177 "/>
<text text-anchor="start" x="-243.824" y="-161.8" font-family="Times,serif" font-size="14.00">create</text>
<text text-anchor="start" x="-243.824" y="-147.8" font-family="Times,serif" font-size="14.00">destroy</text>
<text text-anchor="start" x="-243.824" y="-133.8" font-family="Times,serif" font-size="14.00">edit</text>
<text text-anchor="start" x="-243.824" y="-119.8" font-family="Times,serif" font-size="14.00">new</text>
<text text-anchor="start" x="-243.824" y="-105.8" font-family="Times,serif" font-size="14.00">show</text>
<text text-anchor="start" x="-243.824" y="-91.8" font-family="Times,serif" font-size="14.00">update</text>
<polyline fill="none" stroke="black" points="-251.824,-85 -140.176,-85 "/>
<polyline fill="none" stroke="black" points="-251.824,-61 -140.176,-61 "/>
<text text-anchor="start" x="-243.824" y="-45.8" font-family="Times,serif" font-size="14.00">_layout</text>
<text text-anchor="start" x="-243.824" y="-31.8" font-family="Times,serif" font-size="14.00">event_params</text>
<text text-anchor="start" x="-243.824" y="-17.8" font-family="Times,serif" font-size="14.00">limit_params</text>
<text text-anchor="start" x="-243.824" y="-3.8" font-family="Times,serif" font-size="14.00">select_params</text>
<text text-anchor="start" x="-243.824" y="10.2" font-family="Times,serif" font-size="14.00">sort_params</text>
</g>
<!-- HomeController -->
<g id="node7" class="node"><title>HomeController</title>
<path fill="none" stroke="black" d="M-365.879,377C-365.879,377 -282.121,377 -282.121,377 -276.121,377 -270.121,371 -270.121,365 -270.121,365 -270.121,299 -270.121,299 -270.121,293 -276.121,287 -282.121,287 -282.121,287 -365.879,287 -365.879,287 -371.879,287 -377.879,293 -377.879,299 -377.879,299 -377.879,365 -377.879,365 -377.879,371 -371.879,377 -365.879,377"/>
<text text-anchor="middle" x="-324" y="302.2" font-family="Times,serif" font-size="14.00">HomeController</text>
<polyline fill="none" stroke="black" points="-377.879,309 -270.121,309 "/>
<text text-anchor="start" x="-369.879" y="324.2" font-family="Times,serif" font-size="14.00">index</text>
<polyline fill="none" stroke="black" points="-377.879,331 -270.121,331 "/>
<polyline fill="none" stroke="black" points="-377.879,355 -270.121,355 "/>
<text text-anchor="start" x="-369.879" y="370.2" font-family="Times,serif" font-size="14.00">_layout</text>
</g>
<!-- LegalController -->
<g id="node8" class="node"><title>LegalController</title>
<path fill="none" stroke="black" d="M-365.707,-253C-365.707,-253 -284.293,-253 -284.293,-253 -278.293,-253 -272.293,-259 -272.293,-265 -272.293,-265 -272.293,-331 -272.293,-331 -272.293,-337 -278.293,-343 -284.293,-343 -284.293,-343 -365.707,-343 -365.707,-343 -371.707,-343 -377.707,-337 -377.707,-331 -377.707,-331 -377.707,-265 -377.707,-265 -377.707,-259 -371.707,-253 -365.707,-253"/>
<text text-anchor="middle" x="-325" y="-327.8" font-family="Times,serif" font-size="14.00">LegalController</text>
<polyline fill="none" stroke="black" points="-377.707,-321 -272.293,-321 "/>
<text text-anchor="start" x="-369.707" y="-305.8" font-family="Times,serif" font-size="14.00">privacy_policy</text>
<polyline fill="none" stroke="black" points="-377.707,-299 -272.293,-299 "/>
<polyline fill="none" stroke="black" points="-377.707,-275 -272.293,-275 "/>
<text text-anchor="start" x="-369.707" y="-259.8" font-family="Times,serif" font-size="14.00">_layout</text>
</g>
<!-- PagesController -->
<g id="node9" class="node"><title>PagesController</title>
<path fill="none" stroke="black" d="M-240.104,251C-240.104,251 -157.896,251 -157.896,251 -151.896,251 -145.896,245 -145.896,239 -145.896,239 -145.896,61 -145.896,61 -145.896,55 -151.896,49 -157.896,49 -157.896,49 -240.104,49 -240.104,49 -246.104,49 -252.104,55 -252.104,61 -252.104,61 -252.104,239 -252.104,239 -252.104,245 -246.104,251 -240.104,251"/>
<text text-anchor="middle" x="-199" y="64.2" font-family="Times,serif" font-size="14.00">PagesController</text>
<polyline fill="none" stroke="black" points="-252.104,71 -145.896,71 "/>
<text text-anchor="start" x="-244.104" y="86.2" font-family="Times,serif" font-size="14.00">destroy</text>
<text text-anchor="start" x="-244.104" y="100.2" font-family="Times,serif" font-size="14.00">edit</text>
<text text-anchor="start" x="-244.104" y="114.2" font-family="Times,serif" font-size="14.00">index</text>
<text text-anchor="start" x="-244.104" y="128.2" font-family="Times,serif" font-size="14.00">show</text>
<text text-anchor="start" x="-244.104" y="142.2" font-family="Times,serif" font-size="14.00">update</text>
<polyline fill="none" stroke="black" points="-252.104,149 -145.896,149 "/>
<polyline fill="none" stroke="black" points="-252.104,173 -145.896,173 "/>
<text text-anchor="start" x="-244.104" y="188.2" font-family="Times,serif" font-size="14.00">_layout</text>
<text text-anchor="start" x="-244.104" y="202.2" font-family="Times,serif" font-size="14.00">limit_params</text>
<text text-anchor="start" x="-244.104" y="216.2" font-family="Times,serif" font-size="14.00">page_params</text>
<text text-anchor="start" x="-244.104" y="230.2" font-family="Times,serif" font-size="14.00">select_params</text>
<text text-anchor="start" x="-244.104" y="244.2" font-family="Times,serif" font-size="14.00">sort_params</text>
</g>
<!-- PeopleController -->
<g id="node10" class="node"><title>PeopleController</title>
<path fill="none" stroke="black" d="M-41.8242,-91C-41.8242,-91 45.8242,-91 45.8242,-91 51.8242,-91 57.8242,-97 57.8242,-103 57.8242,-103 57.8242,-309 57.8242,-309 57.8242,-315 51.8242,-321 45.8242,-321 45.8242,-321 -41.8242,-321 -41.8242,-321 -47.8242,-321 -53.8242,-315 -53.8242,-309 -53.8242,-309 -53.8242,-103 -53.8242,-103 -53.8242,-97 -47.8242,-91 -41.8242,-91"/>
<text text-anchor="middle" x="2" y="-305.8" font-family="Times,serif" font-size="14.00">PeopleController</text>
<polyline fill="none" stroke="black" points="-53.8242,-299 57.8242,-299 "/>
<text text-anchor="start" x="-45.8242" y="-283.8" font-family="Times,serif" font-size="14.00">create</text>
<text text-anchor="start" x="-45.8242" y="-269.8" font-family="Times,serif" font-size="14.00">destroy</text>
<text text-anchor="start" x="-45.8242" y="-255.8" font-family="Times,serif" font-size="14.00">edit</text>
<text text-anchor="start" x="-45.8242" y="-241.8" font-family="Times,serif" font-size="14.00">index</text>
<text text-anchor="start" x="-45.8242" y="-227.8" font-family="Times,serif" font-size="14.00">new</text>
<text text-anchor="start" x="-45.8242" y="-213.8" font-family="Times,serif" font-size="14.00">show</text>
<text text-anchor="start" x="-45.8242" y="-199.8" font-family="Times,serif" font-size="14.00">update</text>
<polyline fill="none" stroke="black" points="-53.8242,-193 57.8242,-193 "/>
<polyline fill="none" stroke="black" points="-53.8242,-169 57.8242,-169 "/>
<text text-anchor="start" x="-45.8242" y="-153.8" font-family="Times,serif" font-size="14.00">_layout</text>
<text text-anchor="start" x="-45.8242" y="-139.8" font-family="Times,serif" font-size="14.00">limit_params</text>
<text text-anchor="start" x="-45.8242" y="-125.8" font-family="Times,serif" font-size="14.00">person_params</text>
<text text-anchor="start" x="-45.8242" y="-111.8" font-family="Times,serif" font-size="14.00">select_params</text>
<text text-anchor="start" x="-45.8242" y="-97.8" font-family="Times,serif" font-size="14.00">sort_params</text>
</g>
<!-- PlacesController -->
<g id="node11" class="node"><title>PlacesController</title>
<path fill="none" stroke="black" d="M282.345,269C282.345,269 367.655,269 367.655,269 373.655,269 379.655,263 379.655,257 379.655,257 379.655,51 379.655,51 379.655,45 373.655,39 367.655,39 367.655,39 282.345,39 282.345,39 276.345,39 270.345,45 270.345,51 270.345,51 270.345,257 270.345,257 270.345,263 276.345,269 282.345,269"/>
<text text-anchor="middle" x="325" y="54.2" font-family="Times,serif" font-size="14.00">PlacesController</text>
<polyline fill="none" stroke="black" points="270.345,61 379.655,61 "/>
<text text-anchor="start" x="278.345" y="76.2" font-family="Times,serif" font-size="14.00">create</text>
<text text-anchor="start" x="278.345" y="90.2" font-family="Times,serif" font-size="14.00">destroy</text>
<text text-anchor="start" x="278.345" y="104.2" font-family="Times,serif" font-size="14.00">edit</text>
<text text-anchor="start" x="278.345" y="118.2" font-family="Times,serif" font-size="14.00">index</text>
<text text-anchor="start" x="278.345" y="132.2" font-family="Times,serif" font-size="14.00">new</text>
<text text-anchor="start" x="278.345" y="146.2" font-family="Times,serif" font-size="14.00">show</text>
<text text-anchor="start" x="278.345" y="160.2" font-family="Times,serif" font-size="14.00">update</text>
<polyline fill="none" stroke="black" points="270.345,167 379.655,167 "/>
<polyline fill="none" stroke="black" points="270.345,191 379.655,191 "/>
<text text-anchor="start" x="278.345" y="206.2" font-family="Times,serif" font-size="14.00">_layout</text>
<text text-anchor="start" x="278.345" y="220.2" font-family="Times,serif" font-size="14.00">limit_params</text>
<text text-anchor="start" x="278.345" y="234.2" font-family="Times,serif" font-size="14.00">place_params</text>
<text text-anchor="start" x="278.345" y="248.2" font-family="Times,serif" font-size="14.00">select_params</text>
<text text-anchor="start" x="278.345" y="262.2" font-family="Times,serif" font-size="14.00">sort_params</text>
</g>
<!-- PubsubController -->
<g id="node12" class="node"><title>PubsubController</title>
<path fill="none" stroke="black" d="M-384.39,-1C-384.39,-1 -293.61,-1 -293.61,-1 -287.61,-1 -281.61,-7 -281.61,-13 -281.61,-13 -281.61,-107 -281.61,-107 -281.61,-113 -287.61,-119 -293.61,-119 -293.61,-119 -384.39,-119 -384.39,-119 -390.39,-119 -396.39,-113 -396.39,-107 -396.39,-107 -396.39,-13 -396.39,-13 -396.39,-7 -390.39,-1 -384.39,-1"/>
<text text-anchor="middle" x="-339" y="-103.8" font-family="Times,serif" font-size="14.00">PubsubController</text>
<polyline fill="none" stroke="black" points="-396.39,-97 -281.61,-97 "/>
<text text-anchor="start" x="-388.39" y="-81.8" font-family="Times,serif" font-size="14.00">auth</text>
<polyline fill="none" stroke="black" points="-396.39,-75 -281.61,-75 "/>
<polyline fill="none" stroke="black" points="-396.39,-51 -281.61,-51 "/>
<text text-anchor="start" x="-388.39" y="-35.8" font-family="Times,serif" font-size="14.00">_layout</text>
<text text-anchor="start" x="-388.39" y="-21.8" font-family="Times,serif" font-size="14.00">pusher_params</text>
<text text-anchor="start" x="-388.39" y="-7.8" font-family="Times,serif" font-size="14.00">user_channel</text>
</g>
<!-- SourcesController -->
<g id="node13" class="node"><title>SourcesController</title>
<path fill="none" stroke="black" d="M102.065,-91C102.065,-91 195.935,-91 195.935,-91 201.935,-91 207.935,-97 207.935,-103 207.935,-103 207.935,-309 207.935,-309 207.935,-315 201.935,-321 195.935,-321 195.935,-321 102.065,-321 102.065,-321 96.0654,-321 90.0654,-315 90.0654,-309 90.0654,-309 90.0654,-103 90.0654,-103 90.0654,-97 96.0654,-91 102.065,-91"/>
<text text-anchor="middle" x="149" y="-305.8" font-family="Times,serif" font-size="14.00">SourcesController</text>
<polyline fill="none" stroke="black" points="90.0654,-299 207.935,-299 "/>
<text text-anchor="start" x="98.0654" y="-283.8" font-family="Times,serif" font-size="14.00">create</text>
<text text-anchor="start" x="98.0654" y="-269.8" font-family="Times,serif" font-size="14.00">destroy</text>
<text text-anchor="start" x="98.0654" y="-255.8" font-family="Times,serif" font-size="14.00">edit</text>
<text text-anchor="start" x="98.0654" y="-241.8" font-family="Times,serif" font-size="14.00">index</text>
<text text-anchor="start" x="98.0654" y="-227.8" font-family="Times,serif" font-size="14.00">new</text>
<text text-anchor="start" x="98.0654" y="-213.8" font-family="Times,serif" font-size="14.00">show</text>
<text text-anchor="start" x="98.0654" y="-199.8" font-family="Times,serif" font-size="14.00">update</text>
<polyline fill="none" stroke="black" points="90.0654,-193 207.935,-193 "/>
<polyline fill="none" stroke="black" points="90.0654,-169 207.935,-169 "/>
<text text-anchor="start" x="98.0654" y="-153.8" font-family="Times,serif" font-size="14.00">_layout</text>
<text text-anchor="start" x="98.0654" y="-139.8" font-family="Times,serif" font-size="14.00">limit_params</text>
<text text-anchor="start" x="98.0654" y="-125.8" font-family="Times,serif" font-size="14.00">select_params</text>
<text text-anchor="start" x="98.0654" y="-111.8" font-family="Times,serif" font-size="14.00">sort_params</text>
<text text-anchor="start" x="98.0654" y="-97.8" font-family="Times,serif" font-size="14.00">source_params</text>
</g>
<!-- Users::RegistrationsController -->
<g id="node14" class="node"><title>Users::RegistrationsController</title>
<path fill="none" stroke="black" d="M-95.5449,89C-95.5449,89 67.5449,89 67.5449,89 73.5449,89 79.5449,83 79.5449,77 79.5449,77 79.5449,-45 79.5449,-45 79.5449,-51 73.5449,-57 67.5449,-57 67.5449,-57 -95.5449,-57 -95.5449,-57 -101.545,-57 -107.545,-51 -107.545,-45 -107.545,-45 -107.545,77 -107.545,77 -107.545,83 -101.545,89 -95.5449,89"/>
<text text-anchor="middle" x="-14" y="-41.8" font-family="Times,serif" font-size="14.00">Users::RegistrationsController</text>
<polyline fill="none" stroke="black" points="-107.545,-35 79.5449,-35 "/>
<text text-anchor="start" x="-99.5449" y="-19.8" font-family="Times,serif" font-size="14.00">create</text>
<text text-anchor="start" x="-99.5449" y="-5.8" font-family="Times,serif" font-size="14.00">new</text>
<polyline fill="none" stroke="black" points="-107.545,1 79.5449,1 "/>
<polyline fill="none" stroke="black" points="-107.545,25 79.5449,25 "/>
<text text-anchor="start" x="-99.5449" y="40.2" font-family="Times,serif" font-size="14.00">_layout</text>
<text text-anchor="start" x="-99.5449" y="54.2" font-family="Times,serif" font-size="14.00">ensure_token</text>
<text text-anchor="start" x="-99.5449" y="68.2" font-family="Times,serif" font-size="14.00">token_param</text>
<text text-anchor="start" x="-99.5449" y="82.2" font-family="Times,serif" font-size="14.00">user_params</text>
</g>
<!-- Users::ResetPasswordController -->
<g id="node15" class="node"><title>Users::ResetPasswordController</title>
<path fill="none" stroke="black" d="M246.01,-91C246.01,-91 419.99,-91 419.99,-91 425.99,-91 431.99,-97 431.99,-103 431.99,-103 431.99,-239 431.99,-239 431.99,-245 425.99,-251 419.99,-251 419.99,-251 246.01,-251 246.01,-251 240.01,-251 234.01,-245 234.01,-239 234.01,-239 234.01,-103 234.01,-103 234.01,-97 240.01,-91 246.01,-91"/>
<text text-anchor="middle" x="333" y="-235.8" font-family="Times,serif" font-size="14.00">Users::ResetPasswordController</text>
<polyline fill="none" stroke="black" points="234.01,-229 431.99,-229 "/>
<text text-anchor="start" x="242.01" y="-213.8" font-family="Times,serif" font-size="14.00">create</text>
<text text-anchor="start" x="242.01" y="-199.8" font-family="Times,serif" font-size="14.00">edit</text>
<text text-anchor="start" x="242.01" y="-185.8" font-family="Times,serif" font-size="14.00">update</text>
<polyline fill="none" stroke="black" points="234.01,-179 431.99,-179 "/>
<polyline fill="none" stroke="black" points="234.01,-155 431.99,-155 "/>
<text text-anchor="start" x="242.01" y="-139.8" font-family="Times,serif" font-size="14.00">_layout</text>
<text text-anchor="start" x="242.01" y="-125.8" font-family="Times,serif" font-size="14.00">email_param</text>
<text text-anchor="start" x="242.01" y="-111.8" font-family="Times,serif" font-size="14.00">password_params</text>
<text text-anchor="start" x="242.01" y="-97.8" font-family="Times,serif" font-size="14.00">token_param</text>
</g>
<!-- Users::SessionsController -->
<g id="node16" class="node"><title>Users::SessionsController</title>
<path fill="none" stroke="black" d="M300.279,-289C300.279,-289 437.721,-289 437.721,-289 443.721,-289 449.721,-295 449.721,-301 449.721,-301 449.721,-437 449.721,-437 449.721,-443 443.721,-449 437.721,-449 437.721,-449 300.279,-449 300.279,-449 294.279,-449 288.279,-443 288.279,-437 288.279,-437 288.279,-301 288.279,-301 288.279,-295 294.279,-289 300.279,-289"/>
<text text-anchor="middle" x="369" y="-433.8" font-family="Times,serif" font-size="14.00">Users::SessionsController</text>
<polyline fill="none" stroke="black" points="288.279,-427 449.721,-427 "/>
<text text-anchor="start" x="296.279" y="-411.8" font-family="Times,serif" font-size="14.00">create</text>
<text text-anchor="start" x="296.279" y="-397.8" font-family="Times,serif" font-size="14.00">destroy</text>
<text text-anchor="start" x="296.279" y="-383.8" font-family="Times,serif" font-size="14.00">new</text>
<polyline fill="none" stroke="black" points="288.279,-377 449.721,-377 "/>
<polyline fill="none" stroke="black" points="288.279,-353 449.721,-353 "/>
<text text-anchor="start" x="296.279" y="-337.8" font-family="Times,serif" font-size="14.00">_layout</text>
<text text-anchor="start" x="296.279" y="-323.8" font-family="Times,serif" font-size="14.00">email_param</text>
<text text-anchor="start" x="296.279" y="-309.8" font-family="Times,serif" font-size="14.00">password_param</text>
<text text-anchor="start" x="296.279" y="-295.8" font-family="Times,serif" font-size="14.00">remember_param</text>
</g>
<!-- UsersController -->
<g id="node17" class="node"><title>UsersController</title>
<path fill="none" stroke="black" d="M-365.714,-379C-365.714,-379 -284.286,-379 -284.286,-379 -278.286,-379 -272.286,-385 -272.286,-391 -272.286,-391 -272.286,-513 -272.286,-513 -272.286,-519 -278.286,-525 -284.286,-525 -284.286,-525 -365.714,-525 -365.714,-525 -371.714,-525 -377.714,-519 -377.714,-513 -377.714,-513 -377.714,-391 -377.714,-391 -377.714,-385 -371.714,-379 -365.714,-379"/>
<text text-anchor="middle" x="-325" y="-509.8" font-family="Times,serif" font-size="14.00">UsersController</text>
<polyline fill="none" stroke="black" points="-377.714,-503 -272.286,-503 "/>
<text text-anchor="start" x="-369.714" y="-487.8" font-family="Times,serif" font-size="14.00">edit</text>
<text text-anchor="start" x="-369.714" y="-473.8" font-family="Times,serif" font-size="14.00">show</text>
<text text-anchor="start" x="-369.714" y="-459.8" font-family="Times,serif" font-size="14.00">update</text>
<polyline fill="none" stroke="black" points="-377.714,-453 -272.286,-453 "/>
<polyline fill="none" stroke="black" points="-377.714,-429 -272.286,-429 "/>
<text text-anchor="start" x="-369.714" y="-413.8" font-family="Times,serif" font-size="14.00">_layout</text>
<text text-anchor="start" x="-369.714" y="-399.8" font-family="Times,serif" font-size="14.00">ensure_user</text>
<text text-anchor="start" x="-369.714" y="-385.8" font-family="Times,serif" font-size="14.00">user_params</text>
</g>
</g>
</svg>
