<?xml version="1.0" encoding="UTF-8" standalone="no"?>
<!DOCTYPE svg PUBLIC "-//W3C//DTD SVG 1.1//EN"
 "http://www.w3.org/Graphics/SVG/1.1/DTD/svg11.dtd">
<!-- Generated by graphviz version 2.38.0 (20140413.2041)
 -->
<!-- Title: controllers_diagram Pages: 1 -->
<svg width="904pt" height="853pt"
 viewBox="0.00 0.00 903.53 853.00" xmlns="http://www.w3.org/2000/svg" xmlns:xlink="http://www.w3.org/1999/xlink">
<g id="graph0" class="graph" transform="scale(1 1) rotate(0) translate(381.714 489.5)">
<title>controllers_diagram</title>
<polygon fill="white" stroke="none" points="-381.714,363.5 -381.714,-489.5 521.821,-489.5 521.821,363.5 -381.714,363.5"/>
<!-- _diagram_info -->
<g id="node1" class="node"><title>_diagram_info</title>
<text text-anchor="start" x="-225.688" y="174.9" font-family="Times,serif" font-size="13.00">Controllers diagram</text>
<text text-anchor="start" x="-225.688" y="187.9" font-family="Times,serif" font-size="13.00">Date: Jan 28 2015 &#45; 00:06</text>
<text text-anchor="start" x="-225.688" y="200.9" font-family="Times,serif" font-size="13.00">Migration version: 20150127222420</text>
<text text-anchor="start" x="-225.688" y="213.9" font-family="Times,serif" font-size="13.00">Generated by RailRoady 1.3.0</text>
<text text-anchor="start" x="-225.688" y="226.9" font-family="Times,serif" font-size="13.00">http://railroady.prestonlee.com</text>
</g>
<!-- AffiliationsController -->
<g id="node2" class="node"><title>AffiliationsController</title>
<path fill="none" stroke="black" d="M84.3379,71C84.3379,71 197.662,71 197.662,71 203.662,71 209.662,65 209.662,59 209.662,59 209.662,-133 209.662,-133 209.662,-139 203.662,-145 197.662,-145 197.662,-145 84.3379,-145 84.3379,-145 78.3379,-145 72.3379,-139 72.3379,-133 72.3379,-133 72.3379,59 72.3379,59 72.3379,65 78.3379,71 84.3379,71"/>
<text text-anchor="middle" x="141" y="-129.8" font-family="Times,serif" font-size="14.00">AffiliationsController</text>
<polyline fill="none" stroke="black" points="72.3379,-123 209.662,-123 "/>
<text text-anchor="start" x="80.3379" y="-107.8" font-family="Times,serif" font-size="14.00">create</text>
<text text-anchor="start" x="80.3379" y="-93.8" font-family="Times,serif" font-size="14.00">destroy</text>
<text text-anchor="start" x="80.3379" y="-79.8" font-family="Times,serif" font-size="14.00">edit</text>
<text text-anchor="start" x="80.3379" y="-65.8" font-family="Times,serif" font-size="14.00">new</text>
<text text-anchor="start" x="80.3379" y="-51.8" font-family="Times,serif" font-size="14.00">show</text>
<text text-anchor="start" x="80.3379" y="-37.8" font-family="Times,serif" font-size="14.00">update</text>
<polyline fill="none" stroke="black" points="72.3379,-31 209.662,-31 "/>
<polyline fill="none" stroke="black" points="72.3379,-7 209.662,-7 "/>
<text text-anchor="start" x="80.3379" y="8.2" font-family="Times,serif" font-size="14.00">_layout</text>
<text text-anchor="start" x="80.3379" y="22.2" font-family="Times,serif" font-size="14.00">affiliation_params</text>
<text text-anchor="start" x="80.3379" y="36.2" font-family="Times,serif" font-size="14.00">limit_params</text>
<text text-anchor="start" x="80.3379" y="50.2" font-family="Times,serif" font-size="14.00">select_params</text>
<text text-anchor="start" x="80.3379" y="64.2" font-family="Times,serif" font-size="14.00">sort_params</text>
</g>
<!-- ApplicationController -->
<g id="node3" class="node"><title>ApplicationController</title>
<path fill="none" stroke="black" d="M390.179,-379C390.179,-379 505.821,-379 505.821,-379 511.821,-379 517.821,-385 517.821,-391 517.821,-391 517.821,-473 517.821,-473 517.821,-479 511.821,-485 505.821,-485 505.821,-485 390.179,-485 390.179,-485 384.179,-485 378.179,-479 378.179,-473 378.179,-473 378.179,-391 378.179,-391 378.179,-385 384.179,-379 390.179,-379"/>
<text text-anchor="middle" x="448" y="-469.8" font-family="Times,serif" font-size="14.00">ApplicationController</text>
<polyline fill="none" stroke="black" points="378.179,-463 517.821,-463 "/>
<polyline fill="none" stroke="black" points="378.179,-439 517.821,-439 "/>
<polyline fill="none" stroke="black" points="378.179,-415 517.821,-415 "/>
<text text-anchor="start" x="386.179" y="-399.8" font-family="Times,serif" font-size="14.00">_layout</text>
<text text-anchor="start" x="386.179" y="-385.8" font-family="Times,serif" font-size="14.00">not_authenticated</text>
</g>
<!-- ArtifactsController -->
<g id="node4" class="node"><title>ArtifactsController</title>
<path fill="none" stroke="black" d="M-78.2622,-145C-78.2622,-145 20.2622,-145 20.2622,-145 26.2622,-145 32.2622,-151 32.2622,-157 32.2622,-157 32.2622,-363 32.2622,-363 32.2622,-369 26.2622,-375 20.2622,-375 20.2622,-375 -78.2622,-375 -78.2622,-375 -84.2622,-375 -90.2622,-369 -90.2622,-363 -90.2622,-363 -90.2622,-157 -90.2622,-157 -90.2622,-151 -84.2622,-145 -78.2622,-145"/>
<text text-anchor="middle" x="-29" y="-359.8" font-family="Times,serif" font-size="14.00">ArtifactsController</text>
<polyline fill="none" stroke="black" points="-90.2622,-353 32.2622,-353 "/>
<text text-anchor="start" x="-82.2622" y="-337.8" font-family="Times,serif" font-size="14.00">create</text>
<text text-anchor="start" x="-82.2622" y="-323.8" font-family="Times,serif" font-size="14.00">destroy</text>
<text text-anchor="start" x="-82.2622" y="-309.8" font-family="Times,serif" font-size="14.00">edit</text>
<text text-anchor="start" x="-82.2622" y="-295.8" font-family="Times,serif" font-size="14.00">index</text>
<text text-anchor="start" x="-82.2622" y="-281.8" font-family="Times,serif" font-size="14.00">new</text>
<text text-anchor="start" x="-82.2622" y="-267.8" font-family="Times,serif" font-size="14.00">show</text>
<text text-anchor="start" x="-82.2622" y="-253.8" font-family="Times,serif" font-size="14.00">update</text>
<polyline fill="none" stroke="black" points="-90.2622,-247 32.2622,-247 "/>
<polyline fill="none" stroke="black" points="-90.2622,-223 32.2622,-223 "/>
<text text-anchor="start" x="-82.2622" y="-207.8" font-family="Times,serif" font-size="14.00">_layout</text>
<text text-anchor="start" x="-82.2622" y="-193.8" font-family="Times,serif" font-size="14.00">artifact_params</text>
<text text-anchor="start" x="-82.2622" y="-179.8" font-family="Times,serif" font-size="14.00">limit_params</text>
<text text-anchor="start" x="-82.2622" y="-165.8" font-family="Times,serif" font-size="14.00">select_params</text>
<text text-anchor="start" x="-82.2622" y="-151.8" font-family="Times,serif" font-size="14.00">sort_params</text>
</g>
<!-- EventsController -->
<g id="node5" class="node"><title>EventsController</title>
<path fill="none" stroke="black" d="M-221.824,-235C-221.824,-235 -134.176,-235 -134.176,-235 -128.176,-235 -122.176,-241 -122.176,-247 -122.176,-247 -122.176,-439 -122.176,-439 -122.176,-445 -128.176,-451 -134.176,-451 -134.176,-451 -221.824,-451 -221.824,-451 -227.824,-451 -233.824,-445 -233.824,-439 -233.824,-439 -233.824,-247 -233.824,-247 -233.824,-241 -227.824,-235 -221.824,-235"/>
<text text-anchor="middle" x="-178" y="-435.8" font-family="Times,serif" font-size="14.00">EventsController</text>
<polyline fill="none" stroke="black" points="-233.824,-429 -122.176,-429 "/>
<text text-anchor="start" x="-225.824" y="-413.8" font-family="Times,serif" font-size="14.00">create</text>
<text text-anchor="start" x="-225.824" y="-399.8" font-family="Times,serif" font-size="14.00">destroy</text>
<text text-anchor="start" x="-225.824" y="-385.8" font-family="Times,serif" font-size="14.00">edit</text>
<text text-anchor="start" x="-225.824" y="-371.8" font-family="Times,serif" font-size="14.00">new</text>
<text text-anchor="start" x="-225.824" y="-357.8" font-family="Times,serif" font-size="14.00">show</text>
<text text-anchor="start" x="-225.824" y="-343.8" font-family="Times,serif" font-size="14.00">update</text>
<polyline fill="none" stroke="black" points="-233.824,-337 -122.176,-337 "/>
<polyline fill="none" stroke="black" points="-233.824,-313 -122.176,-313 "/>
<text text-anchor="start" x="-225.824" y="-297.8" font-family="Times,serif" font-size="14.00">_layout</text>
<text text-anchor="start" x="-225.824" y="-283.8" font-family="Times,serif" font-size="14.00">event_params</text>
<text text-anchor="start" x="-225.824" y="-269.8" font-family="Times,serif" font-size="14.00">limit_params</text>
<text text-anchor="start" x="-225.824" y="-255.8" font-family="Times,serif" font-size="14.00">select_params</text>
<text text-anchor="start" x="-225.824" y="-241.8" font-family="Times,serif" font-size="14.00">sort_params</text>
</g>
<!-- HomeController -->
<g id="node6" class="node"><title>HomeController</title>
<path fill="none" stroke="black" d="M-347.879,359C-347.879,359 -264.121,359 -264.121,359 -258.121,359 -252.121,353 -252.121,347 -252.121,347 -252.121,281 -252.121,281 -252.121,275 -258.121,269 -264.121,269 -264.121,269 -347.879,269 -347.879,269 -353.879,269 -359.879,275 -359.879,281 -359.879,281 -359.879,347 -359.879,347 -359.879,353 -353.879,359 -347.879,359"/>
<text text-anchor="middle" x="-306" y="284.2" font-family="Times,serif" font-size="14.00">HomeController</text>
<polyline fill="none" stroke="black" points="-359.879,291 -252.121,291 "/>
<text text-anchor="start" x="-351.879" y="306.2" font-family="Times,serif" font-size="14.00">index</text>
<polyline fill="none" stroke="black" points="-359.879,313 -252.121,313 "/>
<polyline fill="none" stroke="black" points="-359.879,337 -252.121,337 "/>
<text text-anchor="start" x="-351.879" y="352.2" font-family="Times,serif" font-size="14.00">_layout</text>
</g>
<!-- PagesController -->
<g id="node7" class="node"><title>PagesController</title>
<path fill="none" stroke="black" d="M-348.104,-1C-348.104,-1 -265.896,-1 -265.896,-1 -259.896,-1 -253.896,-7 -253.896,-13 -253.896,-13 -253.896,-191 -253.896,-191 -253.896,-197 -259.896,-203 -265.896,-203 -265.896,-203 -348.104,-203 -348.104,-203 -354.104,-203 -360.104,-197 -360.104,-191 -360.104,-191 -360.104,-13 -360.104,-13 -360.104,-7 -354.104,-1 -348.104,-1"/>
<text text-anchor="middle" x="-307" y="-187.8" font-family="Times,serif" font-size="14.00">PagesController</text>
<polyline fill="none" stroke="black" points="-360.104,-181 -253.896,-181 "/>
<text text-anchor="start" x="-352.104" y="-165.8" font-family="Times,serif" font-size="14.00">destroy</text>
<text text-anchor="start" x="-352.104" y="-151.8" font-family="Times,serif" font-size="14.00">edit</text>
<text text-anchor="start" x="-352.104" y="-137.8" font-family="Times,serif" font-size="14.00">index</text>
<text text-anchor="start" x="-352.104" y="-123.8" font-family="Times,serif" font-size="14.00">show</text>
<text text-anchor="start" x="-352.104" y="-109.8" font-family="Times,serif" font-size="14.00">update</text>
<polyline fill="none" stroke="black" points="-360.104,-103 -253.896,-103 "/>
<polyline fill="none" stroke="black" points="-360.104,-79 -253.896,-79 "/>
<text text-anchor="start" x="-352.104" y="-63.8" font-family="Times,serif" font-size="14.00">_layout</text>
<text text-anchor="start" x="-352.104" y="-49.8" font-family="Times,serif" font-size="14.00">limit_params</text>
<text text-anchor="start" x="-352.104" y="-35.8" font-family="Times,serif" font-size="14.00">page_params</text>
<text text-anchor="start" x="-352.104" y="-21.8" font-family="Times,serif" font-size="14.00">select_params</text>
<text text-anchor="start" x="-352.104" y="-7.8" font-family="Times,serif" font-size="14.00">sort_params</text>
</g>
<!-- PeopleController -->
<g id="node8" class="node"><title>PeopleController</title>
<path fill="none" stroke="black" d="M-203.824,125C-203.824,125 -116.176,125 -116.176,125 -110.176,125 -104.176,119 -104.176,113 -104.176,113 -104.176,-93 -104.176,-93 -104.176,-99 -110.176,-105 -116.176,-105 -116.176,-105 -203.824,-105 -203.824,-105 -209.824,-105 -215.824,-99 -215.824,-93 -215.824,-93 -215.824,113 -215.824,113 -215.824,119 -209.824,125 -203.824,125"/>
<text text-anchor="middle" x="-160" y="-89.8" font-family="Times,serif" font-size="14.00">PeopleController</text>
<polyline fill="none" stroke="black" points="-215.824,-83 -104.176,-83 "/>
<text text-anchor="start" x="-207.824" y="-67.8" font-family="Times,serif" font-size="14.00">create</text>
<text text-anchor="start" x="-207.824" y="-53.8" font-family="Times,serif" font-size="14.00">destroy</text>
<text text-anchor="start" x="-207.824" y="-39.8" font-family="Times,serif" font-size="14.00">edit</text>
<text text-anchor="start" x="-207.824" y="-25.8" font-family="Times,serif" font-size="14.00">index</text>
<text text-anchor="start" x="-207.824" y="-11.8" font-family="Times,serif" font-size="14.00">new</text>
<text text-anchor="start" x="-207.824" y="2.2" font-family="Times,serif" font-size="14.00">show</text>
<text text-anchor="start" x="-207.824" y="16.2" font-family="Times,serif" font-size="14.00">update</text>
<polyline fill="none" stroke="black" points="-215.824,23 -104.176,23 "/>
<polyline fill="none" stroke="black" points="-215.824,47 -104.176,47 "/>
<text text-anchor="start" x="-207.824" y="62.2" font-family="Times,serif" font-size="14.00">_layout</text>
<text text-anchor="start" x="-207.824" y="76.2" font-family="Times,serif" font-size="14.00">limit_params</text>
<text text-anchor="start" x="-207.824" y="90.2" font-family="Times,serif" font-size="14.00">person_params</text>
<text text-anchor="start" x="-207.824" y="104.2" font-family="Times,serif" font-size="14.00">select_params</text>
<text text-anchor="start" x="-207.824" y="118.2" font-family="Times,serif" font-size="14.00">sort_params</text>
</g>
<!-- PlacesController -->
<g id="node9" class="node"><title>PlacesController</title>
<path fill="none" stroke="black" d="M300.345,287C300.345,287 385.655,287 385.655,287 391.655,287 397.655,281 397.655,275 397.655,275 397.655,69 397.655,69 397.655,63 391.655,57 385.655,57 385.655,57 300.345,57 300.345,57 294.345,57 288.345,63 288.345,69 288.345,69 288.345,275 288.345,275 288.345,281 294.345,287 300.345,287"/>
<text text-anchor="middle" x="343" y="72.2" font-family="Times,serif" font-size="14.00">PlacesController</text>
<polyline fill="none" stroke="black" points="288.345,79 397.655,79 "/>
<text text-anchor="start" x="296.345" y="94.2" font-family="Times,serif" font-size="14.00">create</text>
<text text-anchor="start" x="296.345" y="108.2" font-family="Times,serif" font-size="14.00">destroy</text>
<text text-anchor="start" x="296.345" y="122.2" font-family="Times,serif" font-size="14.00">edit</text>
<text text-anchor="start" x="296.345" y="136.2" font-family="Times,serif" font-size="14.00">index</text>
<text text-anchor="start" x="296.345" y="150.2" font-family="Times,serif" font-size="14.00">new</text>
<text text-anchor="start" x="296.345" y="164.2" font-family="Times,serif" font-size="14.00">show</text>
<text text-anchor="start" x="296.345" y="178.2" font-family="Times,serif" font-size="14.00">update</text>
<polyline fill="none" stroke="black" points="288.345,185 397.655,185 "/>
<polyline fill="none" stroke="black" points="288.345,209 397.655,209 "/>
<text text-anchor="start" x="296.345" y="224.2" font-family="Times,serif" font-size="14.00">_layout</text>
<text text-anchor="start" x="296.345" y="238.2" font-family="Times,serif" font-size="14.00">limit_params</text>
<text text-anchor="start" x="296.345" y="252.2" font-family="Times,serif" font-size="14.00">place_params</text>
<text text-anchor="start" x="296.345" y="266.2" font-family="Times,serif" font-size="14.00">select_params</text>
<text text-anchor="start" x="296.345" y="280.2" font-family="Times,serif" font-size="14.00">sort_params</text>
</g>
<!-- SourcesController -->
<g id="node10" class="node"><title>SourcesController</title>
<path fill="none" stroke="black" d="M-59.9346,125C-59.9346,125 33.9346,125 33.9346,125 39.9346,125 45.9346,119 45.9346,113 45.9346,113 45.9346,-93 45.9346,-93 45.9346,-99 39.9346,-105 33.9346,-105 33.9346,-105 -59.9346,-105 -59.9346,-105 -65.9346,-105 -71.9346,-99 -71.9346,-93 -71.9346,-93 -71.9346,113 -71.9346,113 -71.9346,119 -65.9346,125 -59.9346,125"/>
<text text-anchor="middle" x="-13" y="-89.8" font-family="Times,serif" font-size="14.00">SourcesController</text>
<polyline fill="none" stroke="black" points="-71.9346,-83 45.9346,-83 "/>
<text text-anchor="start" x="-63.9346" y="-67.8" font-family="Times,serif" font-size="14.00">create</text>
<text text-anchor="start" x="-63.9346" y="-53.8" font-family="Times,serif" font-size="14.00">destroy</text>
<text text-anchor="start" x="-63.9346" y="-39.8" font-family="Times,serif" font-size="14.00">edit</text>
<text text-anchor="start" x="-63.9346" y="-25.8" font-family="Times,serif" font-size="14.00">index</text>
<text text-anchor="start" x="-63.9346" y="-11.8" font-family="Times,serif" font-size="14.00">new</text>
<text text-anchor="start" x="-63.9346" y="2.2" font-family="Times,serif" font-size="14.00">show</text>
<text text-anchor="start" x="-63.9346" y="16.2" font-family="Times,serif" font-size="14.00">update</text>
<polyline fill="none" stroke="black" points="-71.9346,23 45.9346,23 "/>
<polyline fill="none" stroke="black" points="-71.9346,47 45.9346,47 "/>
<text text-anchor="start" x="-63.9346" y="62.2" font-family="Times,serif" font-size="14.00">_layout</text>
<text text-anchor="start" x="-63.9346" y="76.2" font-family="Times,serif" font-size="14.00">limit_params</text>
<text text-anchor="start" x="-63.9346" y="90.2" font-family="Times,serif" font-size="14.00">select_params</text>
<text text-anchor="start" x="-63.9346" y="104.2" font-family="Times,serif" font-size="14.00">sort_params</text>
<text text-anchor="start" x="-63.9346" y="118.2" font-family="Times,serif" font-size="14.00">source_params</text>
</g>
<!-- Users::RegistrationsController -->
<g id="node11" class="node"><title>Users::RegistrationsController</title>
<path fill="none" stroke="black" d="M84.4551,251C84.4551,251 247.545,251 247.545,251 253.545,251 259.545,245 259.545,239 259.545,239 259.545,117 259.545,117 259.545,111 253.545,105 247.545,105 247.545,105 84.4551,105 84.4551,105 78.4551,105 72.4551,111 72.4551,117 72.4551,117 72.4551,239 72.4551,239 72.4551,245 78.4551,251 84.4551,251"/>
<text text-anchor="middle" x="166" y="120.2" font-family="Times,serif" font-size="14.00">Users::RegistrationsController</text>
<polyline fill="none" stroke="black" points="72.4551,127 259.545,127 "/>
<text text-anchor="start" x="80.4551" y="142.2" font-family="Times,serif" font-size="14.00">create</text>
<text text-anchor="start" x="80.4551" y="156.2" font-family="Times,serif" font-size="14.00">new</text>
<polyline fill="none" stroke="black" points="72.4551,163 259.545,163 "/>
<polyline fill="none" stroke="black" points="72.4551,187 259.545,187 "/>
<text text-anchor="start" x="80.4551" y="202.2" font-family="Times,serif" font-size="14.00">_layout</text>
<text text-anchor="start" x="80.4551" y="216.2" font-family="Times,serif" font-size="14.00">ensure_token</text>
<text text-anchor="start" x="80.4551" y="230.2" font-family="Times,serif" font-size="14.00">token_param</text>
<text text-anchor="start" x="80.4551" y="244.2" font-family="Times,serif" font-size="14.00">user_params</text>
</g>
<!-- Users::ResetPasswordController -->
<g id="node12" class="node"><title>Users::ResetPasswordController</title>
<path fill="none" stroke="black" d="M192.01,-181C192.01,-181 365.99,-181 365.99,-181 371.99,-181 377.99,-187 377.99,-193 377.99,-193 377.99,-329 377.99,-329 377.99,-335 371.99,-341 365.99,-341 365.99,-341 192.01,-341 192.01,-341 186.01,-341 180.01,-335 180.01,-329 180.01,-329 180.01,-193 180.01,-193 180.01,-187 186.01,-181 192.01,-181"/>
<text text-anchor="middle" x="279" y="-325.8" font-family="Times,serif" font-size="14.00">Users::ResetPasswordController</text>
<polyline fill="none" stroke="black" points="180.01,-319 377.99,-319 "/>
<text text-anchor="start" x="188.01" y="-303.8" font-family="Times,serif" font-size="14.00">create</text>
<text text-anchor="start" x="188.01" y="-289.8" font-family="Times,serif" font-size="14.00">edit</text>
<text text-anchor="start" x="188.01" y="-275.8" font-family="Times,serif" font-size="14.00">update</text>
<polyline fill="none" stroke="black" points="180.01,-269 377.99,-269 "/>
<polyline fill="none" stroke="black" points="180.01,-245 377.99,-245 "/>
<text text-anchor="start" x="188.01" y="-229.8" font-family="Times,serif" font-size="14.00">_layout</text>
<text text-anchor="start" x="188.01" y="-215.8" font-family="Times,serif" font-size="14.00">email_param</text>
<text text-anchor="start" x="188.01" y="-201.8" font-family="Times,serif" font-size="14.00">password_params</text>
<text text-anchor="start" x="188.01" y="-187.8" font-family="Times,serif" font-size="14.00">token_param</text>
</g>
<!-- Users::SessionsController -->
<g id="node13" class="node"><title>Users::SessionsController</title>
<path fill="none" stroke="black" d="M264.279,17C264.279,17 401.721,17 401.721,17 407.721,17 413.721,11 413.721,5 413.721,5 413.721,-131 413.721,-131 413.721,-137 407.721,-143 401.721,-143 401.721,-143 264.279,-143 264.279,-143 258.279,-143 252.279,-137 252.279,-131 252.279,-131 252.279,5 252.279,5 252.279,11 258.279,17 264.279,17"/>
<text text-anchor="middle" x="333" y="-127.8" font-family="Times,serif" font-size="14.00">Users::SessionsController</text>
<polyline fill="none" stroke="black" points="252.279,-121 413.721,-121 "/>
<text text-anchor="start" x="260.279" y="-105.8" font-family="Times,serif" font-size="14.00">create</text>
<text text-anchor="start" x="260.279" y="-91.8" font-family="Times,serif" font-size="14.00">destroy</text>
<text text-anchor="start" x="260.279" y="-77.8" font-family="Times,serif" font-size="14.00">new</text>
<polyline fill="none" stroke="black" points="252.279,-71 413.721,-71 "/>
<polyline fill="none" stroke="black" points="252.279,-47 413.721,-47 "/>
<text text-anchor="start" x="260.279" y="-31.8" font-family="Times,serif" font-size="14.00">_layout</text>
<text text-anchor="start" x="260.279" y="-17.8" font-family="Times,serif" font-size="14.00">email_param</text>
<text text-anchor="start" x="260.279" y="-3.8" font-family="Times,serif" font-size="14.00">password_param</text>
<text text-anchor="start" x="260.279" y="10.2" font-family="Times,serif" font-size="14.00">remember_param</text>
</g>
<!-- UsersController -->
<g id="node14" class="node"><title>UsersController</title>
<path fill="none" stroke="black" d="M-365.714,179C-365.714,179 -284.286,179 -284.286,179 -278.286,179 -272.286,173 -272.286,167 -272.286,167 -272.286,45 -272.286,45 -272.286,39 -278.286,33 -284.286,33 -284.286,33 -365.714,33 -365.714,33 -371.714,33 -377.714,39 -377.714,45 -377.714,45 -377.714,167 -377.714,167 -377.714,173 -371.714,179 -365.714,179"/>
<text text-anchor="middle" x="-325" y="48.2" font-family="Times,serif" font-size="14.00">UsersController</text>
<polyline fill="none" stroke="black" points="-377.714,55 -272.286,55 "/>
<text text-anchor="start" x="-369.714" y="70.2" font-family="Times,serif" font-size="14.00">edit</text>
<text text-anchor="start" x="-369.714" y="84.2" font-family="Times,serif" font-size="14.00">show</text>
<text text-anchor="start" x="-369.714" y="98.2" font-family="Times,serif" font-size="14.00">update</text>
<polyline fill="none" stroke="black" points="-377.714,105 -272.286,105 "/>
<polyline fill="none" stroke="black" points="-377.714,129 -272.286,129 "/>
<text text-anchor="start" x="-369.714" y="144.2" font-family="Times,serif" font-size="14.00">_layout</text>
<text text-anchor="start" x="-369.714" y="158.2" font-family="Times,serif" font-size="14.00">ensure_user</text>
<text text-anchor="start" x="-369.714" y="172.2" font-family="Times,serif" font-size="14.00">user_params</text>
</g>
</g>
</svg>
