<?xml version="1.0" encoding="UTF-8" standalone="no"?>
<!DOCTYPE svg PUBLIC "-//W3C//DTD SVG 1.1//EN"
 "http://www.w3.org/Graphics/SVG/1.1/DTD/svg11.dtd">
<!-- Generated by graphviz version 2.38.0 (20140413.2041)
 -->
<!-- Title: models_diagram Pages: 1 -->
<svg width="494pt" height="347pt"
 viewBox="0.00 0.00 493.72 347.00" xmlns="http://www.w3.org/2000/svg" xmlns:xlink="http://www.w3.org/1999/xlink">
<g id="graph0" class="graph" transform="scale(1 1) rotate(0) translate(4 343)">
<title>models_diagram</title>
<polygon fill="white" stroke="none" points="-4,4 -4,-343 489.717,-343 489.717,4 -4,4"/>
<!-- _diagram_info -->
<g id="node1" class="node"><title>_diagram_info</title>
<text text-anchor="start" x="8" y="-191.6" font-family="Times,serif" font-size="13.00">Models diagram</text>
<text text-anchor="start" x="8" y="-178.6" font-family="Times,serif" font-size="13.00">Date: Jan 19 2015 &#45; 16:04</text>
<text text-anchor="start" x="8" y="-165.6" font-family="Times,serif" font-size="13.00">Migration version: 20150119120037</text>
<text text-anchor="start" x="8" y="-152.6" font-family="Times,serif" font-size="13.00">Generated by RailRoady 1.3.0</text>
<text text-anchor="start" x="8" y="-139.6" font-family="Times,serif" font-size="13.00">http://railroady.prestonlee.com</text>
</g>
<!-- User -->
<g id="node2" class="node"><title>User</title>
<path fill="none" stroke="black" d="M237.182,-0.5C237.182,-0.5 473.717,-0.5 473.717,-0.5 479.717,-0.5 485.717,-6.5 485.717,-12.5 485.717,-12.5 485.717,-326.5 485.717,-326.5 485.717,-332.5 479.717,-338.5 473.717,-338.5 473.717,-338.5 237.182,-338.5 237.182,-338.5 231.182,-338.5 225.182,-332.5 225.182,-326.5 225.182,-326.5 225.182,-12.5 225.182,-12.5 225.182,-6.5 231.182,-0.5 237.182,-0.5"/>
<text text-anchor="middle" x="355.45" y="-323.3" font-family="Times,serif" font-size="14.00">User</text>
<polyline fill="none" stroke="black" points="225.182,-316.5 485.717,-316.5 "/>
<text text-anchor="start" x="233.182" y="-301.3" font-family="Times,serif" font-size="14.00">id :integer</text>
<text text-anchor="start" x="233.182" y="-287.3" font-family="Times,serif" font-size="14.00">email :string</text>
<text text-anchor="start" x="233.182" y="-273.3" font-family="Times,serif" font-size="14.00">crypted_password :string</text>
<text text-anchor="start" x="233.182" y="-259.3" font-family="Times,serif" font-size="14.00">salt :string</text>
<text text-anchor="start" x="233.182" y="-245.3" font-family="Times,serif" font-size="14.00">created_at :datetime</text>
<text text-anchor="start" x="233.182" y="-231.3" font-family="Times,serif" font-size="14.00">updated_at :datetime</text>
<text text-anchor="start" x="233.182" y="-217.3" font-family="Times,serif" font-size="14.00">remember_me_token :string</text>
<text text-anchor="start" x="233.182" y="-203.3" font-family="Times,serif" font-size="14.00">remember_me_token_expires_at :datetime</text>
<text text-anchor="start" x="233.182" y="-189.3" font-family="Times,serif" font-size="14.00">reset_password_token :string</text>
<text text-anchor="start" x="233.182" y="-175.3" font-family="Times,serif" font-size="14.00">reset_password_token_expires_at :datetime</text>
<text text-anchor="start" x="233.182" y="-161.3" font-family="Times,serif" font-size="14.00">reset_password_email_sent_at :datetime</text>
<text text-anchor="start" x="233.182" y="-147.3" font-family="Times,serif" font-size="14.00">activation_state :string</text>
<text text-anchor="start" x="233.182" y="-133.3" font-family="Times,serif" font-size="14.00">activation_token :string</text>
<text text-anchor="start" x="233.182" y="-119.3" font-family="Times,serif" font-size="14.00">activation_token_expires_at :datetime</text>
<text text-anchor="start" x="233.182" y="-105.3" font-family="Times,serif" font-size="14.00">failed_logins_count :integer</text>
<text text-anchor="start" x="233.182" y="-91.3" font-family="Times,serif" font-size="14.00">lock_expires_at :datetime</text>
<text text-anchor="start" x="233.182" y="-77.3" font-family="Times,serif" font-size="14.00">unlock_token :string</text>
<text text-anchor="start" x="233.182" y="-63.3" font-family="Times,serif" font-size="14.00">last_login_at :datetime</text>
<text text-anchor="start" x="233.182" y="-49.3" font-family="Times,serif" font-size="14.00">last_logout_at :datetime</text>
<text text-anchor="start" x="233.182" y="-35.3" font-family="Times,serif" font-size="14.00">last_activity_at :datetime</text>
<text text-anchor="start" x="233.182" y="-21.3" font-family="Times,serif" font-size="14.00">last_login_from_ip_address :string</text>
<text text-anchor="start" x="233.182" y="-7.3" font-family="Times,serif" font-size="14.00">name :string</text>
</g>
</g>
</svg>
