<?xml version="1.0" encoding="UTF-8" standalone="no"?>
<!DOCTYPE svg PUBLIC "-//W3C//DTD SVG 1.1//EN"
 "http://www.w3.org/Graphics/SVG/1.1/DTD/svg11.dtd">
<!-- Generated by graphviz version 2.38.0 (20140413.2041)
 -->
<!-- Title: models_diagram Pages: 1 -->
<svg width="2017pt" height="498pt"
 viewBox="0.00 0.00 2017.32 498.00" xmlns="http://www.w3.org/2000/svg" xmlns:xlink="http://www.w3.org/1999/xlink">
<g id="graph0" class="graph" transform="scale(1 1) rotate(0) translate(4 494)">
<title>models_diagram</title>
<polygon fill="white" stroke="none" points="-4,4 -4,-494 2013.32,-494 2013.32,4 -4,4"/>
<!-- _diagram_info -->
<g id="node1" class="node"><title>_diagram_info</title>
<text text-anchor="start" x="8" y="-475.6" font-family="Times,serif" font-size="13.00">Models diagram</text>
<text text-anchor="start" x="8" y="-462.6" font-family="Times,serif" font-size="13.00">Date: Feb 10 2015 &#45; 23:30</text>
<text text-anchor="start" x="8" y="-449.6" font-family="Times,serif" font-size="13.00">Migration version: 20150211045230</text>
<text text-anchor="start" x="8" y="-436.6" font-family="Times,serif" font-size="13.00">Generated by RailRoady 1.3.0</text>
<text text-anchor="start" x="8" y="-423.6" font-family="Times,serif" font-size="13.00">http://railroady.prestonlee.com</text>
</g>
<!-- Ability -->
<g id="node2" class="node"><title>Ability</title>
<polygon fill="none" stroke="black" points="280.12,-471.5 224.78,-471.5 224.78,-435.5 280.12,-435.5 280.12,-471.5"/>
<text text-anchor="middle" x="252.45" y="-449.3" font-family="Times,serif" font-size="14.00">Ability</text>
</g>
<!-- Affiliation -->
<g id="node3" class="node"><title>Affiliation</title>
<ellipse fill="none" stroke="black" cx="814.45" cy="-177" rx="46.9064" ry="18"/>
<text text-anchor="middle" x="814.45" y="-172.8" font-family="Times,serif" font-size="14.00">Affiliation</text>
</g>
<!-- PaperTrail::Version -->
<g id="node15" class="node"><title>PaperTrail::Version</title>
<ellipse fill="none" stroke="black" cx="572.45" cy="-91" rx="79.1078" ry="18"/>
<text text-anchor="middle" x="572.45" y="-86.8" font-family="Times,serif" font-size="14.00">PaperTrail::Version</text>
</g>
<!-- Affiliation&#45;&gt;PaperTrail::Version -->
<g id="edge1" class="edge"><title>Affiliation&#45;&gt;PaperTrail::Version</title>
<path fill="none" stroke="#136d19" d="M773.084,-161.642C731.675,-147.268 667.882,-125.125 623.381,-109.679"/>
<ellipse fill="none" stroke="#136d19" cx="777.022" cy="-163.008" rx="4.00001" ry="4.00001"/>
<polygon fill="#136d19" stroke="#136d19" points="623.361,-109.672 615.389,-102.141 618.637,-108.032 613.913,-106.392 613.913,-106.392 613.913,-106.392 618.637,-108.032 612.438,-110.644 623.361,-109.672 623.361,-109.672"/>
<text text-anchor="middle" x="731.781" y="-129.8" font-family="Times,serif" font-size="14.00">versions</text>
</g>
<!-- Annotation -->
<g id="node4" class="node"><title>Annotation</title>
<ellipse fill="none" stroke="black" cx="1110.45" cy="-18" rx="49.7964" ry="18"/>
<text text-anchor="middle" x="1110.45" y="-13.8" font-family="Times,serif" font-size="14.00">Annotation</text>
</g>
<!-- Artifact -->
<g id="node5" class="node"><title>Artifact</title>
<ellipse fill="none" stroke="black" cx="1413.45" cy="-453.5" rx="37.7092" ry="18"/>
<text text-anchor="middle" x="1413.45" y="-449.3" font-family="Times,serif" font-size="14.00">Artifact</text>
</g>
<!-- Artifact&#45;&gt;Annotation -->
<g id="edge4" class="edge"><title>Artifact&#45;&gt;Annotation</title>
<path fill="none" stroke="#48e80b" d="M1459.22,-451.411C1525.26,-447.131 1639.45,-428.397 1639.45,-350 1639.45,-350 1639.45,-350 1639.45,-90 1639.45,-43.1042 1308.67,-25.9787 1170.24,-20.8651"/>
<ellipse fill="none" stroke="#48e80b" cx="1455.02" cy="-451.653" rx="4" ry="4"/>
<polygon fill="#48e80b" stroke="#48e80b" points="1170.21,-20.8642 1160.38,-16.0064 1165.21,-20.6838 1160.22,-20.5035 1160.22,-20.5035 1160.22,-20.5035 1165.21,-20.6838 1160.05,-25.0006 1170.21,-20.8642 1170.21,-20.8642"/>
</g>
<!-- Citation -->
<g id="node6" class="node"><title>Citation</title>
<ellipse fill="none" stroke="black" cx="1384.45" cy="-91" rx="38.7042" ry="18"/>
<text text-anchor="middle" x="1384.45" y="-86.8" font-family="Times,serif" font-size="14.00">Citation</text>
</g>
<!-- Artifact&#45;&gt;Citation -->
<g id="edge8" class="edge"><title>Artifact&#45;&gt;Citation</title>
<path fill="none" stroke="#ee7212" d="M1460.17,-447.405C1515.84,-438.442 1601.45,-414.219 1601.45,-350 1601.45,-350 1601.45,-350 1601.45,-176 1601.45,-139.646 1494.19,-112.89 1430.49,-100.205"/>
<polygon fill="#ee7212" stroke="#ee7212" points="1460.03,-447.425 1449.48,-444.457 1455.09,-448.166 1450.14,-448.907 1450.14,-448.907 1450.14,-448.907 1455.09,-448.166 1450.81,-453.357 1460.03,-447.425 1460.03,-447.425"/>
<polygon fill="#ee7212" stroke="#ee7212" points="1430.1,-100.129 1421.14,-93.8012 1425.19,-99.1736 1420.28,-98.2183 1420.28,-98.2183 1420.28,-98.2183 1425.19,-99.1736 1419.42,-102.635 1430.1,-100.129 1430.1,-100.129"/>
</g>
<!-- Event -->
<g id="node7" class="node"><title>Event</title>
<ellipse fill="none" stroke="black" cx="913.45" cy="-349" rx="30.9706" ry="18"/>
<text text-anchor="middle" x="913.45" y="-344.8" font-family="Times,serif" font-size="14.00">Event</text>
</g>
<!-- Artifact&#45;&gt;Event -->
<g id="edge3" class="edge"><title>Artifact&#45;&gt;Event</title>
<path fill="none" stroke="#ee0388" d="M1369.67,-443.525C1273.17,-423.743 1043.49,-376.658 952.009,-357.905"/>
<polygon fill="#ee0388" stroke="#ee0388" points="1369.68,-443.527 1378.57,-449.944 1374.58,-444.531 1379.48,-445.535 1379.48,-445.535 1379.48,-445.535 1374.58,-444.531 1380.38,-441.127 1369.68,-443.527 1369.68,-443.527"/>
<polygon fill="#ee0388" stroke="#ee0388" points="951.86,-357.874 942.968,-351.458 946.962,-356.87 942.064,-355.866 942.064,-355.866 942.064,-355.866 946.962,-356.87 941.16,-360.274 951.86,-357.874 951.86,-357.874"/>
</g>
<!-- Page -->
<g id="node9" class="node"><title>Page</title>
<ellipse fill="none" stroke="black" cx="1165.45" cy="-91" rx="27.0958" ry="18"/>
<text text-anchor="middle" x="1165.45" y="-86.8" font-family="Times,serif" font-size="14.00">Page</text>
</g>
<!-- Artifact&#45;&gt;Page -->
<g id="edge5" class="edge"><title>Artifact&#45;&gt;Page</title>
<path fill="none" stroke="#2ecb24" d="M1439.64,-430.992C1471.55,-401.993 1518.87,-348.295 1498.45,-299 1493.06,-285.995 1385.6,-176.559 1357.45,-159 1307.57,-127.89 1241.35,-108.905 1201.15,-99.4336"/>
<polygon fill="#2ecb24" stroke="#2ecb24" points="1439.4,-431.199 1428.93,-434.441 1435.65,-434.507 1431.9,-437.815 1431.9,-437.815 1431.9,-437.815 1435.65,-434.507 1434.88,-441.189 1439.4,-431.199 1439.4,-431.199"/>
<polygon fill="#2ecb24" stroke="#2ecb24" points="1201.02,-99.4037 1192.27,-92.7878 1196.15,-98.2891 1191.27,-97.1746 1191.27,-97.1746 1191.27,-97.1746 1196.15,-98.2891 1190.27,-101.561 1201.02,-99.4037 1201.02,-99.4037"/>
<text text-anchor="middle" x="1531.1" y="-258.8" font-family="Times,serif" font-size="14.00">annotated_pages</text>
</g>
<!-- Source -->
<g id="node12" class="node"><title>Source</title>
<ellipse fill="none" stroke="black" cx="1134.45" cy="-177" rx="34.8285" ry="18"/>
<text text-anchor="middle" x="1134.45" y="-172.8" font-family="Times,serif" font-size="14.00">Source</text>
</g>
<!-- Artifact&#45;&gt;Source -->
<g id="edge6" class="edge"><title>Artifact&#45;&gt;Source</title>
<path fill="none" stroke="#a22910" d="M1398.32,-427.231C1382.89,-400.063 1359.75,-355.088 1349.04,-313 1338.06,-269.835 1372.32,-246.043 1342.45,-213 1341.06,-211.463 1237.63,-194.598 1177.16,-184.852"/>
<polygon fill="#a22910" stroke="#a22910" points="1398.42,-427.405 1399.52,-438.315 1400.92,-431.734 1403.42,-436.064 1403.42,-436.064 1403.42,-436.064 1400.92,-431.734 1407.31,-433.813 1398.42,-427.405 1398.42,-427.405"/>
<polygon fill="#a22910" stroke="#a22910" points="1177,-184.826 1167.84,-178.793 1172.06,-184.031 1167.13,-183.236 1167.13,-183.236 1167.13,-183.236 1172.06,-184.031 1166.41,-187.679 1177,-184.826 1177,-184.826"/>
<text text-anchor="middle" x="1401.15" y="-301.8" font-family="Times,serif" font-size="14.00">annotated_sources</text>
</g>
<!-- Artifact&#45;&gt;Source -->
<g id="edge7" class="edge"><title>Artifact&#45;&gt;Source</title>
<path fill="none" stroke="#cd85b5" d="M1429.84,-426.909C1447.58,-395.769 1470.99,-342.023 1452.45,-299 1430.43,-247.894 1411.5,-237.326 1361.45,-213 1312.55,-189.233 1294.18,-203.305 1240.45,-195 1219.68,-191.79 1196.65,-188.111 1177.37,-184.998"/>
<polygon fill="#cd85b5" stroke="#cd85b5" points="1429.67,-427.205 1420.7,-433.519 1427.12,-431.508 1424.57,-435.811 1424.57,-435.811 1424.57,-435.811 1427.12,-431.508 1428.45,-438.103 1429.67,-427.205 1429.67,-427.205"/>
<polygon fill="#cd85b5" stroke="#cd85b5" points="1177.25,-184.978 1168.1,-178.938 1172.32,-184.179 1167.38,-183.38 1167.38,-183.38 1167.38,-183.38 1172.32,-184.179 1166.66,-187.822 1177.25,-184.978 1177.25,-184.978"/>
<text text-anchor="middle" x="1476.12" y="-301.8" font-family="Times,serif" font-size="14.00">photos</text>
</g>
<!-- Artifact&#45;&gt;Source -->
<g id="edge9" class="edge"><title>Artifact&#45;&gt;Source</title>
<path fill="none" stroke="#93bab9" d="M1394.53,-428.355C1387.49,-419.235 1379.5,-408.714 1372.45,-399 1362.31,-385.035 1359.48,-381.706 1350.45,-367 1309.64,-300.567 1327.79,-261.128 1266.45,-213 1241.56,-193.469 1206.75,-184.789 1179.12,-180.955"/>
<polygon fill="#93bab9" stroke="#93bab9" points="1394.54,-428.372 1397.11,-439.032 1397.6,-432.323 1400.67,-436.274 1400.67,-436.274 1400.67,-436.274 1397.6,-432.323 1404.22,-433.516 1394.54,-428.372 1394.54,-428.372"/>
<polygon fill="#93bab9" stroke="#93bab9" points="1178.85,-180.922 1169.47,-175.244 1173.89,-180.316 1168.92,-179.711 1168.92,-179.711 1168.92,-179.711 1173.89,-180.316 1168.38,-184.178 1178.85,-180.922 1178.85,-180.922"/>
</g>
<!-- Artifact&#45;&gt;PaperTrail::Version -->
<g id="edge2" class="edge"><title>Artifact&#45;&gt;PaperTrail::Version</title>
<path fill="none" stroke="#0eb222" d="M1367.49,-452.965C1163.56,-454.433 350.45,-453.779 350.45,-350 350.45,-350 350.45,-350 350.45,-176 350.45,-143.026 437.206,-118.452 502.25,-104.661"/>
<ellipse fill="none" stroke="#0eb222" cx="1371.62" cy="-452.933" rx="4" ry="4"/>
<polygon fill="#0eb222" stroke="#0eb222" points="502.289,-104.653 512.994,-107.029 507.185,-103.638 512.08,-102.623 512.08,-102.623 512.08,-102.623 507.185,-103.638 511.167,-98.2168 502.289,-104.653 502.289,-104.653"/>
<text text-anchor="middle" x="373.781" y="-258.8" font-family="Times,serif" font-size="14.00">versions</text>
</g>
<!-- Event&#45;&gt;Citation -->
<g id="edge14" class="edge"><title>Event&#45;&gt;Citation</title>
<path fill="none" stroke="#b56edc" d="M952.229,-346.708C1003.15,-344.112 1094.82,-336.324 1169.45,-313 1223.55,-296.09 1368.55,-211.649 1381.45,-195 1400.4,-170.534 1401.54,-157.528 1396.45,-127 1395.99,-124.244 1395.34,-121.414 1394.58,-118.614"/>
<ellipse fill="none" stroke="#b56edc" cx="948.11" cy="-346.904" rx="4" ry="4"/>
<polygon fill="#b56edc" stroke="#b56edc" points="1394.49,-118.33 1395.75,-107.437 1392.98,-113.564 1391.46,-108.798 1391.46,-108.798 1391.46,-108.798 1392.98,-113.564 1387.18,-110.158 1394.49,-118.33 1394.49,-118.33"/>
</g>
<!-- Interaction -->
<g id="node8" class="node"><title>Interaction</title>
<ellipse fill="none" stroke="black" cx="572.45" cy="-177" rx="48.3169" ry="18"/>
<text text-anchor="middle" x="572.45" y="-172.8" font-family="Times,serif" font-size="14.00">Interaction</text>
</g>
<!-- Event&#45;&gt;Interaction -->
<g id="edge11" class="edge"><title>Event&#45;&gt;Interaction</title>
<path fill="none" stroke="#f85382" d="M877.17,-339.635C817.793,-324.638 698.109,-288.826 614.45,-227 605.3,-220.238 596.8,-211.13 589.875,-202.602"/>
<ellipse fill="none" stroke="#f85382" cx="881.256" cy="-340.65" rx="4.00001" ry="4.00001"/>
<polygon fill="#f85382" stroke="#f85382" points="589.875,-202.602 587.304,-191.942 586.811,-198.65 583.748,-194.699 583.748,-194.699 583.748,-194.699 586.811,-198.65 580.191,-197.456 589.875,-202.602 589.875,-202.602"/>
</g>
<!-- Person -->
<g id="node10" class="node"><title>Person</title>
<ellipse fill="none" stroke="black" cx="781.45" cy="-263" rx="34.3614" ry="18"/>
<text text-anchor="middle" x="781.45" y="-258.8" font-family="Times,serif" font-size="14.00">Person</text>
</g>
<!-- Event&#45;&gt;Person -->
<g id="edge12" class="edge"><title>Event&#45;&gt;Person</title>
<path fill="none" stroke="#cc87d2" d="M878.542,-335.109C864.62,-329.271 848.771,-321.715 835.45,-313 824.028,-305.528 812.65,-295.659 803.303,-286.737"/>
<polygon fill="#cc87d2" stroke="#cc87d2" points="878.55,-335.112 886.126,-343.04 883.183,-336.991 887.817,-338.87 887.817,-338.87 887.817,-338.87 883.183,-336.991 889.508,-334.699 878.55,-335.112 878.55,-335.112"/>
<polygon fill="#cc87d2" stroke="#cc87d2" points="803.109,-286.546 799.127,-276.328 799.541,-283.042 795.974,-279.539 795.974,-279.539 795.974,-279.539 799.541,-283.042 792.821,-282.749 803.109,-286.546 803.109,-286.546"/>
</g>
<!-- Place -->
<g id="node11" class="node"><title>Place</title>
<ellipse fill="none" stroke="black" cx="1017.45" cy="-263" rx="29.0172" ry="18"/>
<text text-anchor="middle" x="1017.45" y="-258.8" font-family="Times,serif" font-size="14.00">Place</text>
</g>
<!-- Event&#45;&gt;Place -->
<g id="edge13" class="edge"><title>Event&#45;&gt;Place</title>
<path fill="none" stroke="#3fe1dc" d="M939.101,-327.282C955.371,-314.141 976.319,-297.221 992.46,-284.184"/>
<polygon fill="#3fe1dc" stroke="#3fe1dc" points="938.871,-327.467 928.264,-330.25 934.982,-330.609 931.092,-333.751 931.092,-333.751 931.092,-333.751 934.982,-330.609 933.919,-337.251 938.871,-327.467 938.871,-327.467"/>
<polygon fill="#3fe1dc" stroke="#3fe1dc" points="992.633,-284.044 1003.24,-281.261 996.523,-280.902 1000.41,-277.761 1000.41,-277.761 1000.41,-277.761 996.523,-280.902 997.585,-274.26 992.633,-284.044 992.633,-284.044"/>
</g>
<!-- Event&#45;&gt;Source -->
<g id="edge15" class="edge"><title>Event&#45;&gt;Source</title>
<path fill="none" stroke="#b3703d" d="M954.331,-348.102C1029.44,-345.749 1187.48,-328.369 1250.45,-227 1268.92,-197.275 1218.94,-185.565 1178.89,-180.963"/>
<polygon fill="#b3703d" stroke="#b3703d" points="954.298,-348.103 944.194,-343.843 949.3,-348.222 944.301,-348.342 944.301,-348.342 944.301,-348.342 949.3,-348.222 944.409,-352.84 954.298,-348.103 954.298,-348.103"/>
<polygon fill="#b3703d" stroke="#b3703d" points="1178.66,-180.939 1169.17,-175.439 1173.68,-180.428 1168.71,-179.916 1168.71,-179.916 1168.71,-179.916 1173.68,-180.428 1168.25,-184.392 1178.66,-180.939 1178.66,-180.939"/>
</g>
<!-- Event&#45;&gt;PaperTrail::Version -->
<g id="edge10" class="edge"><title>Event&#45;&gt;PaperTrail::Version</title>
<path fill="none" stroke="#160846" d="M876.207,-341.583C775.938,-323.429 504.734,-268.234 458.45,-195 441.48,-168.149 455.474,-146.626 480.45,-127 489.898,-119.576 501.096,-113.59 512.37,-108.812"/>
<ellipse fill="none" stroke="#160846" cx="880.312" cy="-342.319" rx="4.00001" ry="4.00001"/>
<polygon fill="#160846" stroke="#160846" points="512.521,-108.752 523.475,-109.262 517.171,-106.915 521.822,-105.077 521.822,-105.077 521.822,-105.077 517.171,-106.915 520.168,-100.892 512.521,-108.752 512.521,-108.752"/>
<text text-anchor="middle" x="517.781" y="-215.8" font-family="Times,serif" font-size="14.00">versions</text>
</g>
<!-- Interaction&#45;&gt;PaperTrail::Version -->
<g id="edge16" class="edge"><title>Interaction&#45;&gt;PaperTrail::Version</title>
<path fill="none" stroke="#29c810" d="M572.45,-150.257C572.45,-140.441 572.45,-129.226 572.45,-119.273"/>
<ellipse fill="none" stroke="#29c810" cx="572.45" cy="-154.595" rx="4" ry="4"/>
<polygon fill="#29c810" stroke="#29c810" points="572.45,-119.095 576.95,-109.095 572.45,-114.095 572.45,-109.095 572.45,-109.095 572.45,-109.095 572.45,-114.095 567.95,-109.095 572.45,-119.095 572.45,-119.095"/>
<text text-anchor="middle" x="595.781" y="-129.8" font-family="Times,serif" font-size="14.00">versions</text>
</g>
<!-- Page&#45;&gt;Annotation -->
<g id="edge17" class="edge"><title>Page&#45;&gt;Annotation</title>
<path fill="none" stroke="#3b48a3" d="M1148.43,-68.0348C1142.42,-60.274 1135.62,-51.4982 1129.46,-43.5378"/>
<ellipse fill="none" stroke="#3b48a3" cx="1151.07" cy="-71.4318" rx="4.00002" ry="4.00002"/>
<polygon fill="#3b48a3" stroke="#3b48a3" points="1129.44,-43.5196 1126.88,-32.8583 1126.38,-39.5669 1123.32,-35.6141 1123.32,-35.6141 1123.32,-35.6141 1126.38,-39.5669 1119.76,-38.3699 1129.44,-43.5196 1129.44,-43.5196"/>
</g>
<!-- Person&#45;&gt;Affiliation -->
<g id="edge19" class="edge"><title>Person&#45;&gt;Affiliation</title>
<path fill="none" stroke="#122cc4" d="M741.429,-254.355C712.147,-246.897 680.017,-233.625 695.45,-213 696.623,-211.433 734.879,-200.347 767.7,-191.066"/>
<ellipse fill="none" stroke="#122cc4" cx="745.681" cy="-255.374" rx="4.00001" ry="4.00001"/>
<polygon fill="#122cc4" stroke="#122cc4" points="768.04,-190.97 778.886,-192.587 772.852,-189.613 777.664,-188.256 777.664,-188.256 777.664,-188.256 772.852,-189.613 776.443,-183.925 768.04,-190.97 768.04,-190.97"/>
</g>
<!-- Person&#45;&gt;Annotation -->
<g id="edge21" class="edge"><title>Person&#45;&gt;Annotation</title>
<path fill="none" stroke="#561a95" d="M776.629,-236.567C776.46,-228.21 777.995,-219.426 783.45,-213 809.001,-182.896 839.293,-219.256 870.45,-195 896.957,-174.364 880.044,-151.097 903.45,-127 948.575,-80.5434 1018.01,-50.0067 1063.83,-33.6143"/>
<ellipse fill="none" stroke="#561a95" cx="776.962" cy="-240.692" rx="4" ry="4"/>
<polygon fill="#561a95" stroke="#561a95" points="1064.07,-33.5291 1074.99,-34.4823 1068.79,-31.8814 1073.51,-30.2337 1073.51,-30.2337 1073.51,-30.2337 1068.79,-31.8814 1072.03,-25.985 1064.07,-33.5291 1064.07,-33.5291"/>
</g>
<!-- Person&#45;&gt;Citation -->
<g id="edge26" class="edge"><title>Person&#45;&gt;Citation</title>
<path fill="none" stroke="#64a3d7" d="M783.887,-234.987C785.997,-226.736 789.771,-218.42 796.45,-213 831.099,-184.88 952.978,-205.076 996.45,-195 1040.03,-184.899 1047.64,-172.003 1090.45,-159 1177.16,-132.661 1281.03,-111.307 1339.21,-100.24"/>
<polygon fill="#64a3d7" stroke="#64a3d7" points="783.887,-234.989 777.631,-243.995 782.971,-239.904 782.055,-244.82 782.055,-244.82 782.055,-244.82 782.971,-239.904 786.478,-245.644 783.887,-234.989 783.887,-234.989"/>
<polygon fill="#64a3d7" stroke="#64a3d7" points="1339.35,-100.213 1350.02,-102.781 1344.27,-99.2862 1349.18,-98.3593 1349.18,-98.3593 1349.18,-98.3593 1344.27,-99.2862 1348.35,-93.9373 1339.35,-100.213 1339.35,-100.213"/>
</g>
<!-- Person&#45;&gt;Event -->
<g id="edge25" class="edge"><title>Person&#45;&gt;Event</title>
<path fill="none" stroke="#df117d" d="M811.177,-282.918C833.199,-296.931 863.034,-315.918 884.796,-329.766"/>
<polygon fill="#df117d" stroke="#df117d" points="810.998,-282.804 804.978,-273.638 806.78,-280.119 802.562,-277.435 802.562,-277.435 802.562,-277.435 806.78,-280.119 800.146,-281.231 810.998,-282.804 810.998,-282.804"/>
<polygon fill="#df117d" stroke="#df117d" points="884.965,-329.873 890.986,-339.039 889.183,-332.558 893.402,-335.242 893.402,-335.242 893.402,-335.242 889.183,-332.558 895.818,-331.446 884.965,-329.873 884.965,-329.873"/>
<text text-anchor="middle" x="895.102" y="-301.8" font-family="Times,serif" font-size="14.00">source_events</text>
</g>
<!-- Person&#45;&gt;Interaction -->
<g id="edge20" class="edge"><title>Person&#45;&gt;Interaction</title>
<path fill="none" stroke="#429275" d="M740.756,-255.79C712.326,-250.495 673.967,-241.405 642.45,-227 627.103,-219.986 611.574,-209.53 599.054,-200.077"/>
<ellipse fill="none" stroke="#429275" cx="744.932" cy="-256.54" rx="4.00001" ry="4.00001"/>
<polygon fill="#429275" stroke="#429275" points="598.804,-199.883 593.668,-190.194 594.856,-196.815 590.907,-193.747 590.907,-193.747 590.907,-193.747 594.856,-196.815 588.146,-197.301 598.804,-199.883 598.804,-199.883"/>
</g>
<!-- Person&#45;&gt;Page -->
<g id="edge22" class="edge"><title>Person&#45;&gt;Page</title>
<path fill="none" stroke="#a63e0e" d="M740.488,-252.225C723.257,-246.747 703.71,-238.619 688.45,-227 663.032,-207.648 644.116,-183.042 665.153,-159 672.839,-150.216 1014.39,-109.631 1128.65,-96.2744"/>
<polygon fill="#a63e0e" stroke="#a63e0e" points="740.731,-252.297 749.032,-259.464 745.524,-253.724 750.316,-255.151 750.316,-255.151 750.316,-255.151 745.524,-253.724 751.6,-250.838 740.731,-252.297 740.731,-252.297"/>
<polygon fill="#a63e0e" stroke="#a63e0e" points="1128.74,-96.2643 1139.19,-99.5746 1133.71,-95.6846 1138.67,-95.1049 1138.67,-95.1049 1138.67,-95.1049 1133.71,-95.6846 1138.15,-90.6353 1128.74,-96.2643 1128.74,-96.2643"/>
<text text-anchor="middle" x="712.098" y="-172.8" font-family="Times,serif" font-size="14.00">annotated_pages</text>
</g>
<!-- Person&#45;&gt;Source -->
<g id="edge23" class="edge"><title>Person&#45;&gt;Source</title>
<path fill="none" stroke="#8c8143" d="M793.36,-235.998C798.715,-227.227 805.916,-218.32 815.042,-213 855.393,-189.478 978.076,-200.57 1024.45,-195 1046.77,-192.319 1071.52,-188.564 1091.89,-185.264"/>
<polygon fill="#8c8143" stroke="#8c8143" points="793.264,-236.173 784.501,-242.765 790.854,-240.553 788.444,-244.934 788.444,-244.934 788.444,-244.934 790.854,-240.553 792.387,-247.103 793.264,-236.173 793.264,-236.173"/>
<polygon fill="#8c8143" stroke="#8c8143" points="1091.93,-185.257 1102.53,-188.079 1096.87,-184.448 1101.8,-183.638 1101.8,-183.638 1101.8,-183.638 1096.87,-184.448 1101.07,-179.198 1091.93,-185.257 1091.93,-185.257"/>
<text text-anchor="middle" x="867.153" y="-215.8" font-family="Times,serif" font-size="14.00">annotated_sources</text>
</g>
<!-- Person&#45;&gt;Source -->
<g id="edge24" class="edge"><title>Person&#45;&gt;Source</title>
<path fill="none" stroke="#3a38a1" d="M821.796,-252.399C889.548,-236.277 1025.44,-203.94 1093.56,-187.731"/>
<polygon fill="#3a38a1" stroke="#3a38a1" points="821.58,-252.45 810.81,-250.388 816.716,-253.608 811.852,-254.766 811.852,-254.766 811.852,-254.766 816.716,-253.608 812.894,-259.143 821.58,-252.45 821.58,-252.45"/>
<polygon fill="#3a38a1" stroke="#3a38a1" points="1093.76,-187.682 1104.53,-189.745 1098.63,-186.524 1103.49,-185.367 1103.49,-185.367 1103.49,-185.367 1098.63,-186.524 1102.45,-180.989 1093.76,-187.682 1093.76,-187.682"/>
<text text-anchor="middle" x="998.119" y="-215.8" font-family="Times,serif" font-size="14.00">photos</text>
</g>
<!-- Person&#45;&gt;Source -->
<g id="edge27" class="edge"><title>Person&#45;&gt;Source</title>
<path fill="none" stroke="#2d901c" d="M825.427,-259.009C873.926,-254.919 953.909,-245.823 1020.45,-227 1028.54,-224.712 1069.15,-206.994 1099.62,-193.515"/>
<polygon fill="#2d901c" stroke="#2d901c" points="825.245,-259.024 814.915,-255.345 820.261,-259.427 815.278,-259.83 815.278,-259.83 815.278,-259.83 820.261,-259.427 815.641,-264.316 825.245,-259.024 825.245,-259.024"/>
<polygon fill="#2d901c" stroke="#2d901c" points="1099.96,-193.365 1110.92,-193.427 1104.53,-191.339 1109.1,-189.313 1109.1,-189.313 1109.1,-189.313 1104.53,-191.339 1107.27,-185.199 1099.96,-193.365 1099.96,-193.365"/>
</g>
<!-- Person&#45;&gt;PaperTrail::Version -->
<g id="edge18" class="edge"><title>Person&#45;&gt;PaperTrail::Version</title>
<path fill="none" stroke="#7142b8" d="M739.446,-259.363C662.166,-253.538 502.27,-236.636 468.788,-195 443.545,-163.61 489.487,-131.537 528.025,-111.703"/>
<ellipse fill="none" stroke="#7142b8" cx="743.565" cy="-259.664" rx="4" ry="4"/>
<polygon fill="#7142b8" stroke="#7142b8" points="528.161,-111.635 539.118,-111.203 532.636,-109.405 537.111,-107.175 537.111,-107.175 537.111,-107.175 532.636,-109.405 535.104,-103.148 528.161,-111.635 528.161,-111.635"/>
<text text-anchor="middle" x="492.781" y="-172.8" font-family="Times,serif" font-size="14.00">versions</text>
</g>
<!-- Place&#45;&gt;Affiliation -->
<g id="edge29" class="edge"><title>Place&#45;&gt;Affiliation</title>
<path fill="none" stroke="#bf0414" d="M980.085,-261.815C922.488,-260.647 816.163,-254.688 792.45,-227 786.417,-219.956 788.392,-210.99 793.063,-202.658"/>
<ellipse fill="none" stroke="#bf0414" cx="984.214" cy="-261.886" rx="4" ry="4"/>
<polygon fill="#bf0414" stroke="#bf0414" points="793.098,-202.606 802.417,-196.826 795.891,-198.459 798.684,-194.312 798.684,-194.312 798.684,-194.312 795.891,-198.459 794.952,-191.798 793.098,-202.606 793.098,-202.606"/>
</g>
<!-- Place&#45;&gt;Annotation -->
<g id="edge31" class="edge"><title>Place&#45;&gt;Annotation</title>
<path fill="none" stroke="#2939c0" d="M1026.76,-237.681C1044.27,-191.915 1082.01,-93.3187 1100.21,-45.7493"/>
<ellipse fill="none" stroke="#2939c0" cx="1025.27" cy="-241.562" rx="4.00001" ry="4.00001"/>
<polygon fill="#2939c0" stroke="#2939c0" points="1100.31,-45.4826 1108.09,-37.7517 1102.1,-40.8129 1103.89,-36.1432 1103.89,-36.1432 1103.89,-36.1432 1102.1,-40.8129 1099.69,-34.5348 1100.31,-45.4826 1100.31,-45.4826"/>
</g>
<!-- Place&#45;&gt;Citation -->
<g id="edge36" class="edge"><title>Place&#45;&gt;Citation</title>
<path fill="none" stroke="#56594d" d="M1056.75,-259.943C1137.4,-254.853 1317.42,-238.755 1357.45,-195 1376.3,-174.395 1382.31,-142.239 1384.06,-119.341"/>
<polygon fill="#56594d" stroke="#56594d" points="1056.49,-259.958 1046.23,-256.071 1051.5,-260.261 1046.51,-260.563 1046.51,-260.563 1046.51,-260.563 1051.5,-260.261 1046.78,-265.055 1056.49,-259.958 1056.49,-259.958"/>
<polygon fill="#56594d" stroke="#56594d" points="1384.07,-119.226 1389.1,-109.485 1384.34,-114.234 1384.61,-109.241 1384.61,-109.241 1384.61,-109.241 1384.34,-114.234 1380.12,-108.997 1384.07,-119.226 1384.07,-119.226"/>
</g>
<!-- Place&#45;&gt;Event -->
<g id="edge35" class="edge"><title>Place&#45;&gt;Event</title>
<path fill="none" stroke="#919f08" d="M1001.86,-288.188C995.592,-296.717 987.853,-305.931 979.45,-313 969.931,-321.007 958.281,-327.927 947.433,-333.451"/>
<polygon fill="#919f08" stroke="#919f08" points="1001.87,-288.179 1011.3,-282.579 1004.74,-284.086 1007.61,-279.993 1007.61,-279.993 1007.61,-279.993 1004.74,-284.086 1003.93,-277.408 1001.87,-288.179 1001.87,-288.179"/>
<polygon fill="#919f08" stroke="#919f08" points="947.178,-333.575 936.217,-333.889 942.679,-335.756 938.18,-337.938 938.18,-337.938 938.18,-337.938 942.679,-335.756 940.143,-341.987 947.178,-333.575 947.178,-333.575"/>
<text text-anchor="middle" x="1033.1" y="-301.8" font-family="Times,serif" font-size="14.00">source_events</text>
</g>
<!-- Place&#45;&gt;Interaction -->
<g id="edge30" class="edge"><title>Place&#45;&gt;Interaction</title>
<path fill="none" stroke="#04b8d6" d="M981.019,-257.182C935.237,-250.973 854.311,-239.48 785.45,-227 717.948,-214.767 701.114,-211.188 634.45,-195 629.559,-193.812 624.467,-192.516 619.397,-191.185"/>
<ellipse fill="none" stroke="#04b8d6" cx="985.184" cy="-257.745" rx="4.00001" ry="4.00001"/>
<polygon fill="#04b8d6" stroke="#04b8d6" points="619.395,-191.184 610.894,-184.257 614.564,-189.894 609.733,-188.605 609.733,-188.605 609.733,-188.605 614.564,-189.894 608.572,-192.952 619.395,-191.184 619.395,-191.184"/>
</g>
<!-- Place&#45;&gt;Page -->
<g id="edge32" class="edge"><title>Place&#45;&gt;Page</title>
<path fill="none" stroke="#e4f332" d="M1057.05,-262.012C1116.88,-261.091 1225.96,-255.438 1250.45,-227 1282.99,-189.207 1227.7,-137.79 1192.04,-110.612"/>
<polygon fill="#e4f332" stroke="#e4f332" points="1056.84,-262.014 1046.78,-257.63 1051.84,-262.072 1046.84,-262.13 1046.84,-262.13 1046.84,-262.13 1051.84,-262.072 1046.89,-266.63 1056.84,-262.014 1056.84,-262.014"/>
<polygon fill="#e4f332" stroke="#e4f332" points="1191.92,-110.526 1186.58,-100.95 1187.91,-107.544 1183.89,-104.562 1183.89,-104.562 1183.89,-104.562 1187.91,-107.544 1181.21,-108.175 1191.92,-110.526 1191.92,-110.526"/>
<text text-anchor="middle" x="1307.1" y="-172.8" font-family="Times,serif" font-size="14.00">annotated_pages</text>
</g>
<!-- Place&#45;&gt;Source -->
<g id="edge33" class="edge"><title>Place&#45;&gt;Source</title>
<path fill="none" stroke="#53b633" d="M1057.04,-262.12C1084.66,-259.861 1119.81,-251.8 1138.45,-227 1143.16,-220.738 1143.97,-212.668 1143.09,-204.891"/>
<polygon fill="#53b633" stroke="#53b633" points="1056.85,-262.131 1046.6,-258.233 1051.86,-262.428 1046.87,-262.725 1046.87,-262.725 1046.87,-262.725 1051.86,-262.428 1047.13,-267.217 1056.85,-262.131 1056.85,-262.131"/>
<polygon fill="#53b633" stroke="#53b633" points="1143.07,-204.821 1145.53,-194.135 1142.1,-199.917 1141.12,-195.013 1141.12,-195.013 1141.12,-195.013 1142.1,-199.917 1136.71,-195.892 1143.07,-204.821 1143.07,-204.821"/>
<text text-anchor="middle" x="1195.15" y="-215.8" font-family="Times,serif" font-size="14.00">annotated_sources</text>
</g>
<!-- Place&#45;&gt;Source -->
<g id="edge34" class="edge"><title>Place&#45;&gt;Source</title>
<path fill="none" stroke="#2d80dc" d="M1041.19,-240.734C1051.61,-231.783 1064.17,-221.495 1076.11,-213 1084.47,-207.056 1093.87,-201.118 1102.64,-195.865"/>
<polygon fill="#2d80dc" stroke="#2d80dc" points="1040.88,-240.999 1030.39,-244.174 1037.11,-244.283 1033.34,-247.567 1033.34,-247.567 1033.34,-247.567 1037.11,-244.283 1036.3,-250.96 1040.88,-240.999 1040.88,-240.999"/>
<polygon fill="#2d80dc" stroke="#2d80dc" points="1102.87,-195.733 1113.77,-194.547 1107.18,-193.2 1111.49,-190.667 1111.49,-190.667 1111.49,-190.667 1107.18,-193.2 1109.21,-186.787 1102.87,-195.733 1102.87,-195.733"/>
<text text-anchor="middle" x="1095.12" y="-215.8" font-family="Times,serif" font-size="14.00">photos</text>
</g>
<!-- Place&#45;&gt;Source -->
<g id="edge37" class="edge"><title>Place&#45;&gt;Source</title>
<path fill="none" stroke="#a91625" d="M1055.6,-255.573C1074.96,-250.609 1097.65,-241.951 1113.45,-227 1119.85,-220.94 1124.4,-212.605 1127.58,-204.527"/>
<polygon fill="#a91625" stroke="#a91625" points="1055.58,-255.578 1044.82,-253.463 1050.71,-256.712 1045.84,-257.846 1045.84,-257.846 1045.84,-257.846 1050.71,-256.712 1046.86,-262.229 1055.58,-255.578 1055.58,-255.578"/>
<polygon fill="#a91625" stroke="#a91625" points="1127.61,-204.441 1135.09,-196.417 1129.22,-199.706 1130.83,-194.971 1130.83,-194.971 1130.83,-194.971 1129.22,-199.706 1126.56,-193.525 1127.61,-204.441 1127.61,-204.441"/>
</g>
<!-- Place&#45;&gt;PaperTrail::Version -->
<g id="edge28" class="edge"><title>Place&#45;&gt;PaperTrail::Version</title>
<path fill="none" stroke="#3ed026" d="M1002.63,-239.311C995.997,-230.338 987.604,-220.419 978.45,-213 936.758,-179.21 920.442,-178.514 870.45,-159 797.57,-130.551 709.716,-112.64 648.354,-102.57"/>
<ellipse fill="none" stroke="#3ed026" cx="1005.03" cy="-242.673" rx="4.00002" ry="4.00002"/>
<polygon fill="#3ed026" stroke="#3ed026" points="648.232,-102.55 639.075,-96.5173 643.296,-101.755 638.36,-100.96 638.36,-100.96 638.36,-100.96 643.296,-101.755 637.644,-105.403 648.232,-102.55 648.232,-102.55"/>
<text text-anchor="middle" x="977.781" y="-172.8" font-family="Times,serif" font-size="14.00">versions</text>
</g>
<!-- Source&#45;&gt;Annotation -->
<g id="edge40" class="edge"><title>Source&#45;&gt;Annotation</title>
<path fill="none" stroke="#b03ae0" d="M1130.29,-148.768C1125.89,-120.022 1119.01,-74.975 1114.61,-46.2301"/>
<polygon fill="#b03ae0" stroke="#b03ae0" points="1130.32,-149.014 1127.39,-159.579 1131.08,-153.957 1131.84,-158.899 1131.84,-158.899 1131.84,-158.899 1131.08,-153.957 1136.28,-158.219 1130.32,-149.014 1130.32,-149.014"/>
<polygon fill="#b03ae0" stroke="#b03ae0" points="1114.57,-45.9647 1117.51,-35.3995 1113.82,-41.0221 1113.06,-36.0795 1113.06,-36.0795 1113.06,-36.0795 1113.82,-41.0221 1108.61,-36.7596 1114.57,-45.9647 1114.57,-45.9647"/>
</g>
<!-- Source&#45;&gt;Citation -->
<g id="edge41" class="edge"><title>Source&#45;&gt;Citation</title>
<path fill="none" stroke="#95a052" d="M1170.73,-163.81C1216.94,-148.285 1296.52,-121.544 1344.44,-105.442"/>
<ellipse fill="none" stroke="#95a052" cx="1166.92" cy="-165.09" rx="4.00001" ry="4.00001"/>
<polygon fill="#95a052" stroke="#95a052" points="1344.69,-105.361 1355.6,-106.441 1349.43,-103.768 1354.17,-102.175 1354.17,-102.175 1354.17,-102.175 1349.43,-103.768 1352.73,-97.9098 1344.69,-105.361 1344.69,-105.361"/>
</g>
<!-- Source&#45;&gt;Page -->
<g id="edge39" class="edge"><title>Source&#45;&gt;Page</title>
<path fill="none" stroke="#7b2738" d="M1143.56,-151.321C1147.4,-140.918 1151.87,-128.797 1155.77,-118.232"/>
<ellipse fill="none" stroke="#7b2738" cx="1142.11" cy="-155.249" rx="4.00001" ry="4.00001"/>
<polygon fill="#7b2738" stroke="#7b2738" points="1155.83,-118.068 1163.51,-110.245 1157.56,-113.377 1159.29,-108.687 1159.29,-108.687 1159.29,-108.687 1157.56,-113.377 1155.07,-107.129 1155.83,-118.068 1155.83,-118.068"/>
</g>
<!-- Source&#45;&gt;PaperTrail::Version -->
<g id="edge38" class="edge"><title>Source&#45;&gt;PaperTrail::Version</title>
<path fill="none" stroke="#8c1ac6" d="M1095.05,-167.504C1044.92,-156.913 955.57,-138.774 878.45,-127 802.717,-115.438 715.907,-105.855 654.141,-99.6569"/>
<ellipse fill="none" stroke="#8c1ac6" cx="1099.14" cy="-168.37" rx="4.00001" ry="4.00001"/>
<polygon fill="#8c1ac6" stroke="#8c1ac6" points="654.015,-99.6445 644.51,-94.1757 649.04,-99.149 644.064,-98.6535 644.064,-98.6535 644.064,-98.6535 649.04,-99.149 643.619,-103.131 654.015,-99.6445 654.015,-99.6445"/>
<text text-anchor="middle" x="979.781" y="-129.8" font-family="Times,serif" font-size="14.00">versions</text>
</g>
<!-- User -->
<g id="node13" class="node"><title>User</title>
<ellipse fill="none" stroke="black" cx="1840.45" cy="-453.5" rx="27" ry="18"/>
<text text-anchor="middle" x="1840.45" y="-449.3" font-family="Times,serif" font-size="14.00">User</text>
</g>
<!-- Mailboxer::Message -->
<g id="node16" class="node"><title>Mailboxer::Message</title>
<ellipse fill="none" stroke="black" cx="1750.45" cy="-349" rx="82.6045" ry="18"/>
<text text-anchor="middle" x="1750.45" y="-344.8" font-family="Times,serif" font-size="14.00">Mailboxer::Message</text>
</g>
<!-- User&#45;&gt;Mailboxer::Message -->
<g id="edge42" class="edge"><title>User&#45;&gt;Mailboxer::Message</title>
<path fill="none" stroke="#f10dd6" d="M1821.8,-431.258C1807.4,-414.856 1787.43,-392.122 1772.29,-374.87"/>
<ellipse fill="none" stroke="#f10dd6" cx="1824.53" cy="-434.37" rx="4.00002" ry="4.00002"/>
<polygon fill="#f10dd6" stroke="#f10dd6" points="1771.88,-374.408 1768.66,-363.924 1768.58,-370.651 1765.28,-366.893 1765.28,-366.893 1765.28,-366.893 1768.58,-370.651 1761.9,-369.863 1771.88,-374.408 1771.88,-374.408"/>
<text text-anchor="middle" x="1818.89" y="-387.8" font-family="Times,serif" font-size="14.00">messages</text>
</g>
<!-- Mailboxer::Receipt -->
<g id="node17" class="node"><title>Mailboxer::Receipt</title>
<ellipse fill="none" stroke="black" cx="1930.45" cy="-349" rx="78.7367" ry="18"/>
<text text-anchor="middle" x="1930.45" y="-344.8" font-family="Times,serif" font-size="14.00">Mailboxer::Receipt</text>
</g>
<!-- User&#45;&gt;Mailboxer::Receipt -->
<g id="edge43" class="edge"><title>User&#45;&gt;Mailboxer::Receipt</title>
<path fill="none" stroke="#c9681d" d="M1859.1,-431.258C1873.5,-414.856 1893.46,-392.122 1908.61,-374.87"/>
<ellipse fill="none" stroke="#c9681d" cx="1856.37" cy="-434.37" rx="4.00002" ry="4.00002"/>
<polygon fill="#c9681d" stroke="#c9681d" points="1909.02,-374.408 1919,-369.863 1912.32,-370.651 1915.62,-366.893 1915.62,-366.893 1915.62,-366.893 1912.32,-370.651 1912.23,-363.924 1909.02,-374.408 1909.02,-374.408"/>
<text text-anchor="middle" x="1920.22" y="-387.8" font-family="Times,serif" font-size="14.00">receipts</text>
</g>
<!-- Verb -->
<g id="node14" class="node"><title>Verb</title>
<ellipse fill="none" stroke="black" cx="325.45" cy="-453.5" rx="27" ry="18"/>
<text text-anchor="middle" x="325.45" y="-449.3" font-family="Times,serif" font-size="14.00">Verb</text>
</g>
<!-- Verb&#45;&gt;Event -->
<g id="edge44" class="edge"><title>Verb&#45;&gt;Event</title>
<path fill="none" stroke="#8fc8c2" d="M359.577,-446.551C461.934,-428.708 765.95,-375.712 874.439,-356.8"/>
<ellipse fill="none" stroke="#8fc8c2" cx="355.415" cy="-447.276" rx="4.00001" ry="4.00001"/>
<polygon fill="#8fc8c2" stroke="#8fc8c2" points="874.463,-356.796 885.087,-359.512 879.389,-355.938 884.314,-355.079 884.314,-355.079 884.314,-355.079 879.389,-355.938 883.541,-350.646 874.463,-356.796 874.463,-356.796"/>
</g>
</g>
</svg>
