<?xml version="1.0" encoding="UTF-8" standalone="no"?>
<!DOCTYPE svg PUBLIC "-//W3C//DTD SVG 1.1//EN"
 "http://www.w3.org/Graphics/SVG/1.1/DTD/svg11.dtd">
<!-- Generated by graphviz version 2.38.0 (20140413.2041)
 -->
<!-- Title: models_diagram Pages: 1 -->
<svg width="972pt" height="1108pt"
 viewBox="0.00 0.00 971.96 1108.00" xmlns="http://www.w3.org/2000/svg" xmlns:xlink="http://www.w3.org/1999/xlink">
<g id="graph0" class="graph" transform="scale(1 1) rotate(0) translate(4 1104)">
<title>models_diagram</title>
<polygon fill="white" stroke="none" points="-4,4 -4,-1104 967.955,-1104 967.955,4 -4,4"/>
<!-- _diagram_info -->
<g id="node1" class="node"><title>_diagram_info</title>
<text text-anchor="start" x="8" y="-931.6" font-family="Times,serif" font-size="13.00">Models diagram</text>
<text text-anchor="start" x="8" y="-918.6" font-family="Times,serif" font-size="13.00">Date: Jan 28 2015 &#45; 00:06</text>
<text text-anchor="start" x="8" y="-905.6" font-family="Times,serif" font-size="13.00">Migration version: 20150127222420</text>
<text text-anchor="start" x="8" y="-892.6" font-family="Times,serif" font-size="13.00">Generated by RailRoady 1.3.0</text>
<text text-anchor="start" x="8" y="-879.6" font-family="Times,serif" font-size="13.00">http://railroady.prestonlee.com</text>
</g>
<!-- Affiliation -->
<g id="node2" class="node"><title>Affiliation</title>
<path fill="none" stroke="black" d="M127.182,-0.5C127.182,-0.5 236.193,-0.5 236.193,-0.5 242.193,-0.5 248.193,-6.5 248.193,-12.5 248.193,-12.5 248.193,-200.5 248.193,-200.5 248.193,-206.5 242.193,-212.5 236.193,-212.5 236.193,-212.5 127.182,-212.5 127.182,-212.5 121.182,-212.5 115.182,-206.5 115.182,-200.5 115.182,-200.5 115.182,-12.5 115.182,-12.5 115.182,-6.5 121.182,-0.5 127.182,-0.5"/>
<text text-anchor="middle" x="181.688" y="-197.3" font-family="Times,serif" font-size="14.00">Affiliation</text>
<polyline fill="none" stroke="black" points="115.182,-190.5 248.193,-190.5 "/>
<text text-anchor="start" x="123.182" y="-175.3" font-family="Times,serif" font-size="14.00">id :integer</text>
<text text-anchor="start" x="123.182" y="-161.3" font-family="Times,serif" font-size="14.00">uuid :uuid</text>
<text text-anchor="start" x="123.182" y="-147.3" font-family="Times,serif" font-size="14.00">slug :string</text>
<text text-anchor="start" x="123.182" y="-133.3" font-family="Times,serif" font-size="14.00">name :string</text>
<text text-anchor="start" x="123.182" y="-119.3" font-family="Times,serif" font-size="14.00">description :text</text>
<text text-anchor="start" x="123.182" y="-105.3" font-family="Times,serif" font-size="14.00">person_id :integer</text>
<text text-anchor="start" x="123.182" y="-91.3" font-family="Times,serif" font-size="14.00">place_id :integer</text>
<text text-anchor="start" x="123.182" y="-77.3" font-family="Times,serif" font-size="14.00">title :string</text>
<text text-anchor="start" x="123.182" y="-63.3" font-family="Times,serif" font-size="14.00">start_date :date</text>
<text text-anchor="start" x="123.182" y="-49.3" font-family="Times,serif" font-size="14.00">end_date :date</text>
<text text-anchor="start" x="123.182" y="-35.3" font-family="Times,serif" font-size="14.00">current :boolean</text>
<text text-anchor="start" x="123.182" y="-21.3" font-family="Times,serif" font-size="14.00">created_at :datetime</text>
<text text-anchor="start" x="123.182" y="-7.3" font-family="Times,serif" font-size="14.00">updated_at :datetime</text>
</g>
<!-- Artifact -->
<g id="node3" class="node"><title>Artifact</title>
<path fill="none" stroke="black" d="M237.572,-810.5C237.572,-810.5 359.803,-810.5 359.803,-810.5 365.803,-810.5 371.803,-816.5 371.803,-822.5 371.803,-822.5 371.803,-996.5 371.803,-996.5 371.803,-1002.5 365.803,-1008.5 359.803,-1008.5 359.803,-1008.5 237.572,-1008.5 237.572,-1008.5 231.572,-1008.5 225.572,-1002.5 225.572,-996.5 225.572,-996.5 225.572,-822.5 225.572,-822.5 225.572,-816.5 231.572,-810.5 237.572,-810.5"/>
<text text-anchor="middle" x="298.688" y="-993.3" font-family="Times,serif" font-size="14.00">Artifact</text>
<polyline fill="none" stroke="black" points="225.572,-986.5 371.803,-986.5 "/>
<text text-anchor="start" x="233.572" y="-971.3" font-family="Times,serif" font-size="14.00">id :integer</text>
<text text-anchor="start" x="233.572" y="-957.3" font-family="Times,serif" font-size="14.00">uuid :uuid</text>
<text text-anchor="start" x="233.572" y="-943.3" font-family="Times,serif" font-size="14.00">slug :string</text>
<text text-anchor="start" x="233.572" y="-929.3" font-family="Times,serif" font-size="14.00">name :string</text>
<text text-anchor="start" x="233.572" y="-915.3" font-family="Times,serif" font-size="14.00">description :text</text>
<text text-anchor="start" x="233.572" y="-901.3" font-family="Times,serif" font-size="14.00">alternate_names :string</text>
<text text-anchor="start" x="233.572" y="-887.3" font-family="Times,serif" font-size="14.00">artist :string</text>
<text text-anchor="start" x="233.572" y="-873.3" font-family="Times,serif" font-size="14.00">dimensions :string</text>
<text text-anchor="start" x="233.572" y="-859.3" font-family="Times,serif" font-size="14.00">date_created :string</text>
<text text-anchor="start" x="233.572" y="-845.3" font-family="Times,serif" font-size="14.00">group :boolean</text>
<text text-anchor="start" x="233.572" y="-831.3" font-family="Times,serif" font-size="14.00">created_at :datetime</text>
<text text-anchor="start" x="233.572" y="-817.3" font-family="Times,serif" font-size="14.00">updated_at :datetime</text>
</g>
<!-- Event -->
<g id="node4" class="node"><title>Event</title>
<path fill="none" stroke="black" d="M322.075,-470.5C322.075,-470.5 437.3,-470.5 437.3,-470.5 443.3,-470.5 449.3,-476.5 449.3,-482.5 449.3,-482.5 449.3,-670.5 449.3,-670.5 449.3,-676.5 443.3,-682.5 437.3,-682.5 437.3,-682.5 322.075,-682.5 322.075,-682.5 316.075,-682.5 310.075,-676.5 310.075,-670.5 310.075,-670.5 310.075,-482.5 310.075,-482.5 310.075,-476.5 316.075,-470.5 322.075,-470.5"/>
<text text-anchor="middle" x="379.688" y="-667.3" font-family="Times,serif" font-size="14.00">Event</text>
<polyline fill="none" stroke="black" points="310.075,-660.5 449.3,-660.5 "/>
<text text-anchor="start" x="318.075" y="-645.3" font-family="Times,serif" font-size="14.00">id :integer</text>
<text text-anchor="start" x="318.075" y="-631.3" font-family="Times,serif" font-size="14.00">uuid :uuid</text>
<text text-anchor="start" x="318.075" y="-617.3" font-family="Times,serif" font-size="14.00">slug :string</text>
<text text-anchor="start" x="318.075" y="-603.3" font-family="Times,serif" font-size="14.00">name :string</text>
<text text-anchor="start" x="318.075" y="-589.3" font-family="Times,serif" font-size="14.00">description :text</text>
<text text-anchor="start" x="318.075" y="-575.3" font-family="Times,serif" font-size="14.00">date :date</text>
<text text-anchor="start" x="318.075" y="-561.3" font-family="Times,serif" font-size="14.00">status :string</text>
<text text-anchor="start" x="318.075" y="-547.3" font-family="Times,serif" font-size="14.00">created_at :datetime</text>
<text text-anchor="start" x="318.075" y="-533.3" font-family="Times,serif" font-size="14.00">updated_at :datetime</text>
<text text-anchor="start" x="318.075" y="-519.3" font-family="Times,serif" font-size="14.00">price_cents :integer</text>
<text text-anchor="start" x="318.075" y="-505.3" font-family="Times,serif" font-size="14.00">price_currency :string</text>
<text text-anchor="start" x="318.075" y="-491.3" font-family="Times,serif" font-size="14.00">failed :boolean</text>
<text text-anchor="start" x="318.075" y="-477.3" font-family="Times,serif" font-size="14.00">verb_id :integer</text>
</g>
<!-- Artifact&#45;&gt;Event -->
<g id="edge1" class="edge"><title>Artifact&#45;&gt;Event</title>
<path fill="none" stroke="#952081" d="M325.217,-800.092C333.65,-765.63 343.005,-727.403 351.548,-692.492"/>
<polygon fill="#952081" stroke="#952081" points="325.148,-800.372 318.4,-809.016 323.96,-805.229 322.771,-810.085 322.771,-810.085 322.771,-810.085 323.96,-805.229 327.142,-811.155 325.148,-800.372 325.148,-800.372"/>
<polygon fill="#952081" stroke="#952081" points="351.557,-692.453 358.305,-683.809 352.746,-687.596 353.934,-682.739 353.934,-682.739 353.934,-682.739 352.746,-687.596 349.563,-681.67 351.557,-692.453 351.557,-692.453"/>
</g>
<!-- Interaction -->
<g id="node5" class="node"><title>Interaction</title>
<path fill="none" stroke="black" d="M278.289,-35.5C278.289,-35.5 409.086,-35.5 409.086,-35.5 415.086,-35.5 421.086,-41.5 421.086,-47.5 421.086,-47.5 421.086,-165.5 421.086,-165.5 421.086,-171.5 415.086,-177.5 409.086,-177.5 409.086,-177.5 278.289,-177.5 278.289,-177.5 272.289,-177.5 266.289,-171.5 266.289,-165.5 266.289,-165.5 266.289,-47.5 266.289,-47.5 266.289,-41.5 272.289,-35.5 278.289,-35.5"/>
<text text-anchor="middle" x="343.688" y="-162.3" font-family="Times,serif" font-size="14.00">Interaction</text>
<polyline fill="none" stroke="black" points="266.289,-155.5 421.086,-155.5 "/>
<text text-anchor="start" x="274.289" y="-140.3" font-family="Times,serif" font-size="14.00">id :integer</text>
<text text-anchor="start" x="274.289" y="-126.3" font-family="Times,serif" font-size="14.00">actor_id :integer</text>
<text text-anchor="start" x="274.289" y="-112.3" font-family="Times,serif" font-size="14.00">actor_type :string</text>
<text text-anchor="start" x="274.289" y="-98.3" font-family="Times,serif" font-size="14.00">event_id :integer</text>
<text text-anchor="start" x="274.289" y="-84.3" font-family="Times,serif" font-size="14.00">recipient :boolean</text>
<text text-anchor="start" x="274.289" y="-70.3" font-family="Times,serif" font-size="14.00">unknown_actor :boolean</text>
<text text-anchor="start" x="274.289" y="-56.3" font-family="Times,serif" font-size="14.00">created_at :datetime</text>
<text text-anchor="start" x="274.289" y="-42.3" font-family="Times,serif" font-size="14.00">updated_at :datetime</text>
</g>
<!-- Event&#45;&gt;Interaction -->
<g id="edge2" class="edge"><title>Event&#45;&gt;Interaction</title>
<path fill="none" stroke="#844267" d="M406.413,-462.413C417.235,-399.066 423.991,-318.973 408.688,-249 404.125,-228.139 396.19,-206.68 387.398,-186.978"/>
<ellipse fill="none" stroke="#844267" cx="405.695" cy="-466.507" rx="4.00001" ry="4.00001"/>
<polygon fill="#844267" stroke="#844267" points="387.338,-186.847 387.256,-175.881 385.252,-182.303 383.166,-177.758 383.166,-177.758 383.166,-177.758 385.252,-182.303 379.076,-179.636 387.338,-186.847 387.338,-186.847"/>
</g>
<!-- Person -->
<g id="node7" class="node"><title>Person</title>
<path fill="none" stroke="black" d="M127.182,-249.5C127.182,-249.5 236.193,-249.5 236.193,-249.5 242.193,-249.5 248.193,-255.5 248.193,-261.5 248.193,-261.5 248.193,-421.5 248.193,-421.5 248.193,-427.5 242.193,-433.5 236.193,-433.5 236.193,-433.5 127.182,-433.5 127.182,-433.5 121.182,-433.5 115.182,-427.5 115.182,-421.5 115.182,-421.5 115.182,-261.5 115.182,-261.5 115.182,-255.5 121.182,-249.5 127.182,-249.5"/>
<text text-anchor="middle" x="181.688" y="-418.3" font-family="Times,serif" font-size="14.00">Person</text>
<polyline fill="none" stroke="black" points="115.182,-411.5 248.193,-411.5 "/>
<text text-anchor="start" x="123.182" y="-396.3" font-family="Times,serif" font-size="14.00">id :integer</text>
<text text-anchor="start" x="123.182" y="-382.3" font-family="Times,serif" font-size="14.00">uuid :uuid</text>
<text text-anchor="start" x="123.182" y="-368.3" font-family="Times,serif" font-size="14.00">slug :string</text>
<text text-anchor="start" x="123.182" y="-354.3" font-family="Times,serif" font-size="14.00">name :string</text>
<text text-anchor="start" x="123.182" y="-340.3" font-family="Times,serif" font-size="14.00">description :text</text>
<text text-anchor="start" x="123.182" y="-326.3" font-family="Times,serif" font-size="14.00">gender :string</text>
<text text-anchor="start" x="123.182" y="-312.3" font-family="Times,serif" font-size="14.00">date_of_birth :date</text>
<text text-anchor="start" x="123.182" y="-298.3" font-family="Times,serif" font-size="14.00">date_of_death :date</text>
<text text-anchor="start" x="123.182" y="-284.3" font-family="Times,serif" font-size="14.00">nationality :string</text>
<text text-anchor="start" x="123.182" y="-270.3" font-family="Times,serif" font-size="14.00">created_at :datetime</text>
<text text-anchor="start" x="123.182" y="-256.3" font-family="Times,serif" font-size="14.00">updated_at :datetime</text>
</g>
<!-- Event&#45;&gt;Person -->
<g id="edge4" class="edge"><title>Event&#45;&gt;Person</title>
<path fill="none" stroke="#060238" d="M303.383,-488.518C287.836,-470.573 271.661,-451.737 256.688,-434 256.079,-433.279 255.468,-432.554 254.855,-431.827"/>
<polygon fill="#060238" stroke="#060238" points="303.449,-488.595 306.602,-499.097 306.726,-492.372 310.002,-496.149 310.002,-496.149 310.002,-496.149 306.726,-492.372 313.401,-493.2 303.449,-488.595 303.449,-488.595"/>
<polygon fill="#060238" stroke="#060238" points="254.65,-431.582 251.67,-421.029 251.436,-427.752 248.223,-423.922 248.223,-423.922 248.223,-423.922 251.436,-427.752 244.775,-426.814 254.65,-431.582 254.65,-431.582"/>
</g>
<!-- Place -->
<g id="node8" class="node"><title>Place</title>
<path fill="none" stroke="black" d="M278.182,-277.5C278.182,-277.5 387.193,-277.5 387.193,-277.5 393.193,-277.5 399.193,-283.5 399.193,-289.5 399.193,-289.5 399.193,-393.5 399.193,-393.5 399.193,-399.5 393.193,-405.5 387.193,-405.5 387.193,-405.5 278.182,-405.5 278.182,-405.5 272.182,-405.5 266.182,-399.5 266.182,-393.5 266.182,-393.5 266.182,-289.5 266.182,-289.5 266.182,-283.5 272.182,-277.5 278.182,-277.5"/>
<text text-anchor="middle" x="332.688" y="-390.3" font-family="Times,serif" font-size="14.00">Place</text>
<polyline fill="none" stroke="black" points="266.182,-383.5 399.193,-383.5 "/>
<text text-anchor="start" x="274.182" y="-368.3" font-family="Times,serif" font-size="14.00">id :integer</text>
<text text-anchor="start" x="274.182" y="-354.3" font-family="Times,serif" font-size="14.00">uuid :uuid</text>
<text text-anchor="start" x="274.182" y="-340.3" font-family="Times,serif" font-size="14.00">slug :string</text>
<text text-anchor="start" x="274.182" y="-326.3" font-family="Times,serif" font-size="14.00">name :string</text>
<text text-anchor="start" x="274.182" y="-312.3" font-family="Times,serif" font-size="14.00">description :text</text>
<text text-anchor="start" x="274.182" y="-298.3" font-family="Times,serif" font-size="14.00">created_at :datetime</text>
<text text-anchor="start" x="274.182" y="-284.3" font-family="Times,serif" font-size="14.00">updated_at :datetime</text>
</g>
<!-- Event&#45;&gt;Place -->
<g id="edge5" class="edge"><title>Event&#45;&gt;Place</title>
<path fill="none" stroke="#db0d79" d="M356.469,-460.394C353.406,-445.209 350.336,-429.992 347.469,-415.776"/>
<polygon fill="#db0d79" stroke="#db0d79" points="356.479,-460.445 354.045,-471.137 357.468,-465.346 358.457,-470.248 358.457,-470.248 358.457,-470.248 357.468,-465.346 362.868,-469.358 356.479,-460.445 356.479,-460.445"/>
<polygon fill="#db0d79" stroke="#db0d79" points="347.397,-415.419 349.83,-404.726 346.408,-410.517 345.419,-405.616 345.419,-405.616 345.419,-405.616 346.408,-410.517 341.008,-406.506 347.397,-415.419 347.397,-415.419"/>
</g>
<!-- Citation -->
<g id="node12" class="node"><title>Citation</title>
<ellipse fill="none" stroke="black" cx="494.688" cy="-341.5" rx="38.7042" ry="18"/>
<text text-anchor="middle" x="494.688" y="-337.3" font-family="Times,serif" font-size="14.00">Citation</text>
</g>
<!-- Event&#45;&gt;Citation -->
<g id="edge3" class="edge"><title>Event&#45;&gt;Citation</title>
<path fill="none" stroke="#12fdb7" d="M435.224,-462.978C452.681,-427.609 470.379,-391.752 481.873,-368.464"/>
<ellipse fill="none" stroke="#12fdb7" cx="433.407" cy="-466.661" rx="4.00002" ry="4.00002"/>
<polygon fill="#12fdb7" stroke="#12fdb7" points="481.974,-368.258 490.436,-361.283 484.187,-363.775 486.4,-359.291 486.4,-359.291 486.4,-359.291 484.187,-363.775 482.365,-357.299 481.974,-368.258 481.974,-368.258"/>
</g>
<!-- Page -->
<g id="node6" class="node"><title>Page</title>
<path fill="none" stroke="black" d="M564.182,-512.5C564.182,-512.5 673.193,-512.5 673.193,-512.5 679.193,-512.5 685.193,-518.5 685.193,-524.5 685.193,-524.5 685.193,-628.5 685.193,-628.5 685.193,-634.5 679.193,-640.5 673.193,-640.5 673.193,-640.5 564.182,-640.5 564.182,-640.5 558.182,-640.5 552.182,-634.5 552.182,-628.5 552.182,-628.5 552.182,-524.5 552.182,-524.5 552.182,-518.5 558.182,-512.5 564.182,-512.5"/>
<text text-anchor="middle" x="618.688" y="-625.3" font-family="Times,serif" font-size="14.00">Page</text>
<polyline fill="none" stroke="black" points="552.182,-618.5 685.193,-618.5 "/>
<text text-anchor="start" x="560.182" y="-603.3" font-family="Times,serif" font-size="14.00">id :integer</text>
<text text-anchor="start" x="560.182" y="-589.3" font-family="Times,serif" font-size="14.00">source_id :integer</text>
<text text-anchor="start" x="560.182" y="-575.3" font-family="Times,serif" font-size="14.00">number :integer</text>
<text text-anchor="start" x="560.182" y="-561.3" font-family="Times,serif" font-size="14.00">text :text</text>
<text text-anchor="start" x="560.182" y="-547.3" font-family="Times,serif" font-size="14.00">image :string</text>
<text text-anchor="start" x="560.182" y="-533.3" font-family="Times,serif" font-size="14.00">created_at :datetime</text>
<text text-anchor="start" x="560.182" y="-519.3" font-family="Times,serif" font-size="14.00">updated_at :datetime</text>
</g>
<!-- Person&#45;&gt;Affiliation -->
<g id="edge6" class="edge"><title>Person&#45;&gt;Affiliation</title>
<path fill="none" stroke="#ab4796" d="M181.688,-241.208C181.688,-235.193 181.688,-229.114 181.688,-223.039"/>
<ellipse fill="none" stroke="#ab4796" cx="181.688" cy="-245.415" rx="4" ry="4"/>
<polygon fill="#ab4796" stroke="#ab4796" points="181.688,-222.831 186.188,-212.831 181.688,-217.831 181.688,-212.831 181.688,-212.831 181.688,-212.831 181.688,-217.831 177.188,-212.831 181.688,-222.831 181.688,-222.831"/>
</g>
<!-- Person&#45;&gt;Interaction -->
<g id="edge7" class="edge"><title>Person&#45;&gt;Interaction</title>
<path fill="none" stroke="#f0bb15" d="M249.709,-242.666C262.884,-223.718 276.529,-204.093 289.2,-185.867"/>
<ellipse fill="none" stroke="#f0bb15" cx="247.301" cy="-246.131" rx="4.00002" ry="4.00002"/>
<polygon fill="#f0bb15" stroke="#f0bb15" points="289.24,-185.81 298.644,-180.168 292.095,-181.705 294.949,-177.6 294.949,-177.6 294.949,-177.6 292.095,-181.705 291.254,-175.031 289.24,-185.81 289.24,-185.81"/>
</g>
<!-- Place&#45;&gt;Affiliation -->
<g id="edge8" class="edge"><title>Place&#45;&gt;Affiliation</title>
<path fill="none" stroke="#a6eb40" d="M287.347,-270.538C276.76,-254.201 265.226,-236.404 253.797,-218.767"/>
<ellipse fill="none" stroke="#a6eb40" cx="289.65" cy="-274.09" rx="4.00002" ry="4.00002"/>
<polygon fill="#a6eb40" stroke="#a6eb40" points="253.637,-218.521 251.975,-207.682 250.918,-214.325 248.198,-210.129 248.198,-210.129 248.198,-210.129 250.918,-214.325 244.422,-212.576 253.637,-218.521 253.637,-218.521"/>
</g>
<!-- Place&#45;&gt;Interaction -->
<g id="edge9" class="edge"><title>Place&#45;&gt;Interaction</title>
<path fill="none" stroke="#ea362c" d="M336.046,-269.356C337.266,-243.522 338.652,-214.162 339.906,-187.606"/>
<ellipse fill="none" stroke="#ea362c" cx="335.853" cy="-273.451" rx="4" ry="4"/>
<polygon fill="#ea362c" stroke="#ea362c" points="339.908,-187.568 344.874,-177.791 340.143,-182.574 340.379,-177.579 340.379,-177.579 340.379,-177.579 340.143,-182.574 335.884,-177.367 339.908,-187.568 339.908,-187.568"/>
</g>
<!-- Source -->
<g id="node9" class="node"><title>Source</title>
<path fill="none" stroke="black" d="M564.182,-803.5C564.182,-803.5 673.193,-803.5 673.193,-803.5 679.193,-803.5 685.193,-809.5 685.193,-815.5 685.193,-815.5 685.193,-1003.5 685.193,-1003.5 685.193,-1009.5 679.193,-1015.5 673.193,-1015.5 673.193,-1015.5 564.182,-1015.5 564.182,-1015.5 558.182,-1015.5 552.182,-1009.5 552.182,-1003.5 552.182,-1003.5 552.182,-815.5 552.182,-815.5 552.182,-809.5 558.182,-803.5 564.182,-803.5"/>
<text text-anchor="middle" x="618.688" y="-1000.3" font-family="Times,serif" font-size="14.00">Source</text>
<polyline fill="none" stroke="black" points="552.182,-993.5 685.193,-993.5 "/>
<text text-anchor="start" x="560.182" y="-978.3" font-family="Times,serif" font-size="14.00">id :integer</text>
<text text-anchor="start" x="560.182" y="-964.3" font-family="Times,serif" font-size="14.00">uuid :uuid</text>
<text text-anchor="start" x="560.182" y="-950.3" font-family="Times,serif" font-size="14.00">slug :string</text>
<text text-anchor="start" x="560.182" y="-936.3" font-family="Times,serif" font-size="14.00">kind :string</text>
<text text-anchor="start" x="560.182" y="-922.3" font-family="Times,serif" font-size="14.00">name :string</text>
<text text-anchor="start" x="560.182" y="-908.3" font-family="Times,serif" font-size="14.00">description :text</text>
<text text-anchor="start" x="560.182" y="-894.3" font-family="Times,serif" font-size="14.00">authors :string</text>
<text text-anchor="start" x="560.182" y="-880.3" font-family="Times,serif" font-size="14.00">date_created :date</text>
<text text-anchor="start" x="560.182" y="-866.3" font-family="Times,serif" font-size="14.00">attribution :string</text>
<text text-anchor="start" x="560.182" y="-852.3" font-family="Times,serif" font-size="14.00">thumbnail :string</text>
<text text-anchor="start" x="560.182" y="-838.3" font-family="Times,serif" font-size="14.00">document :string</text>
<text text-anchor="start" x="560.182" y="-824.3" font-family="Times,serif" font-size="14.00">created_at :datetime</text>
<text text-anchor="start" x="560.182" y="-810.3" font-family="Times,serif" font-size="14.00">updated_at :datetime</text>
</g>
<!-- Source&#45;&gt;Page -->
<g id="edge10" class="edge"><title>Source&#45;&gt;Page</title>
<path fill="none" stroke="#364baf" d="M618.688,-795.111C618.688,-747.496 618.688,-693.472 618.688,-651.164"/>
<ellipse fill="none" stroke="#364baf" cx="618.688" cy="-799.315" rx="4" ry="4"/>
<polygon fill="#364baf" stroke="#364baf" points="618.688,-650.948 623.188,-640.948 618.688,-645.948 618.688,-640.948 618.688,-640.948 618.688,-640.948 618.688,-645.948 614.188,-640.948 618.688,-650.948 618.688,-650.948"/>
</g>
<!-- User -->
<g id="node10" class="node"><title>User</title>
<path fill="none" stroke="black" d="M715.42,-719.5C715.42,-719.5 951.955,-719.5 951.955,-719.5 957.955,-719.5 963.955,-725.5 963.955,-731.5 963.955,-731.5 963.955,-1087.5 963.955,-1087.5 963.955,-1093.5 957.955,-1099.5 951.955,-1099.5 951.955,-1099.5 715.42,-1099.5 715.42,-1099.5 709.42,-1099.5 703.42,-1093.5 703.42,-1087.5 703.42,-1087.5 703.42,-731.5 703.42,-731.5 703.42,-725.5 709.42,-719.5 715.42,-719.5"/>
<text text-anchor="middle" x="833.688" y="-1084.3" font-family="Times,serif" font-size="14.00">User</text>
<polyline fill="none" stroke="black" points="703.42,-1077.5 963.955,-1077.5 "/>
<text text-anchor="start" x="711.42" y="-1062.3" font-family="Times,serif" font-size="14.00">id :integer</text>
<text text-anchor="start" x="711.42" y="-1048.3" font-family="Times,serif" font-size="14.00">email :string</text>
<text text-anchor="start" x="711.42" y="-1034.3" font-family="Times,serif" font-size="14.00">crypted_password :string</text>
<text text-anchor="start" x="711.42" y="-1020.3" font-family="Times,serif" font-size="14.00">salt :string</text>
<text text-anchor="start" x="711.42" y="-1006.3" font-family="Times,serif" font-size="14.00">created_at :datetime</text>
<text text-anchor="start" x="711.42" y="-992.3" font-family="Times,serif" font-size="14.00">updated_at :datetime</text>
<text text-anchor="start" x="711.42" y="-978.3" font-family="Times,serif" font-size="14.00">remember_me_token :string</text>
<text text-anchor="start" x="711.42" y="-964.3" font-family="Times,serif" font-size="14.00">remember_me_token_expires_at :datetime</text>
<text text-anchor="start" x="711.42" y="-950.3" font-family="Times,serif" font-size="14.00">reset_password_token :string</text>
<text text-anchor="start" x="711.42" y="-936.3" font-family="Times,serif" font-size="14.00">reset_password_token_expires_at :datetime</text>
<text text-anchor="start" x="711.42" y="-922.3" font-family="Times,serif" font-size="14.00">reset_password_email_sent_at :datetime</text>
<text text-anchor="start" x="711.42" y="-908.3" font-family="Times,serif" font-size="14.00">activation_state :string</text>
<text text-anchor="start" x="711.42" y="-894.3" font-family="Times,serif" font-size="14.00">activation_token :string</text>
<text text-anchor="start" x="711.42" y="-880.3" font-family="Times,serif" font-size="14.00">activation_token_expires_at :datetime</text>
<text text-anchor="start" x="711.42" y="-866.3" font-family="Times,serif" font-size="14.00">failed_logins_count :integer</text>
<text text-anchor="start" x="711.42" y="-852.3" font-family="Times,serif" font-size="14.00">lock_expires_at :datetime</text>
<text text-anchor="start" x="711.42" y="-838.3" font-family="Times,serif" font-size="14.00">unlock_token :string</text>
<text text-anchor="start" x="711.42" y="-824.3" font-family="Times,serif" font-size="14.00">last_login_at :datetime</text>
<text text-anchor="start" x="711.42" y="-810.3" font-family="Times,serif" font-size="14.00">last_logout_at :datetime</text>
<text text-anchor="start" x="711.42" y="-796.3" font-family="Times,serif" font-size="14.00">last_activity_at :datetime</text>
<text text-anchor="start" x="711.42" y="-782.3" font-family="Times,serif" font-size="14.00">last_login_from_ip_address :string</text>
<text text-anchor="start" x="711.42" y="-768.3" font-family="Times,serif" font-size="14.00">name :string</text>
<text text-anchor="start" x="711.42" y="-754.3" font-family="Times,serif" font-size="14.00">slug :string</text>
<text text-anchor="start" x="711.42" y="-740.3" font-family="Times,serif" font-size="14.00">description :string</text>
<text text-anchor="start" x="711.42" y="-726.3" font-family="Times,serif" font-size="14.00">uuid :uuid</text>
</g>
<!-- Verb -->
<g id="node11" class="node"><title>Verb</title>
<path fill="none" stroke="black" d="M401.348,-817.5C401.348,-817.5 522.028,-817.5 522.028,-817.5 528.028,-817.5 534.028,-823.5 534.028,-829.5 534.028,-829.5 534.028,-989.5 534.028,-989.5 534.028,-995.5 528.028,-1001.5 522.028,-1001.5 522.028,-1001.5 401.348,-1001.5 401.348,-1001.5 395.348,-1001.5 389.348,-995.5 389.348,-989.5 389.348,-989.5 389.348,-829.5 389.348,-829.5 389.348,-823.5 395.348,-817.5 401.348,-817.5"/>
<text text-anchor="middle" x="461.688" y="-986.3" font-family="Times,serif" font-size="14.00">Verb</text>
<polyline fill="none" stroke="black" points="389.348,-979.5 534.028,-979.5 "/>
<text text-anchor="start" x="397.348" y="-964.3" font-family="Times,serif" font-size="14.00">id :integer</text>
<text text-anchor="start" x="397.348" y="-950.3" font-family="Times,serif" font-size="14.00">keyword :string</text>
<text text-anchor="start" x="397.348" y="-936.3" font-family="Times,serif" font-size="14.00">action :string</text>
<text text-anchor="start" x="397.348" y="-922.3" font-family="Times,serif" font-size="14.00">noun :string</text>
<text text-anchor="start" x="397.348" y="-908.3" font-family="Times,serif" font-size="14.00">components :string</text>
<text text-anchor="start" x="397.348" y="-894.3" font-family="Times,serif" font-size="14.00">created_at :datetime</text>
<text text-anchor="start" x="397.348" y="-880.3" font-family="Times,serif" font-size="14.00">updated_at :datetime</text>
<text text-anchor="start" x="397.348" y="-866.3" font-family="Times,serif" font-size="14.00">subject_types :string</text>
<text text-anchor="start" x="397.348" y="-852.3" font-family="Times,serif" font-size="14.00">subject_limit :integer</text>
<text text-anchor="start" x="397.348" y="-838.3" font-family="Times,serif" font-size="14.00">recipient_types :string</text>
<text text-anchor="start" x="397.348" y="-824.3" font-family="Times,serif" font-size="14.00">recipient_limit :integer</text>
</g>
<!-- Verb&#45;&gt;Event -->
<g id="edge11" class="edge"><title>Verb&#45;&gt;Event</title>
<path fill="none" stroke="#1773be" d="M437.104,-809.266C428.011,-772.561 417.627,-730.647 408.214,-692.648"/>
<ellipse fill="none" stroke="#1773be" cx="438.102" cy="-813.294" rx="4.00001" ry="4.00001"/>
<polygon fill="#1773be" stroke="#1773be" points="408.12,-692.267 410.083,-681.479 406.917,-687.414 405.715,-682.561 405.715,-682.561 405.715,-682.561 406.917,-687.414 401.347,-683.643 408.12,-692.267 408.12,-692.267"/>
</g>
</g>
</svg>
