<?xml version="1.0" encoding="UTF-8" standalone="no"?>
<!DOCTYPE svg PUBLIC "-//W3C//DTD SVG 1.1//EN"
 "http://www.w3.org/Graphics/SVG/1.1/DTD/svg11.dtd">
<!-- Generated by graphviz version 2.38.0 (20140413.2041)
 -->
<!-- Title: models_diagram Pages: 1 -->
<svg width="2143pt" height="1621pt"
 viewBox="0.00 0.00 2143.32 1621.00" xmlns="http://www.w3.org/2000/svg" xmlns:xlink="http://www.w3.org/1999/xlink">
<g id="graph0" class="graph" transform="scale(1 1) rotate(0) translate(4 1617)">
<title>models_diagram</title>
<polygon fill="white" stroke="none" points="-4,4 -4,-1617 2139.32,-1617 2139.32,4 -4,4"/>
<!-- _diagram_info -->
<g id="node1" class="node"><title>_diagram_info</title>
<text text-anchor="start" x="8" y="-1416.6" font-family="Times,serif" font-size="13.00">Models diagram</text>
<text text-anchor="start" x="8" y="-1403.6" font-family="Times,serif" font-size="13.00">Date: Feb 10 2015 &#45; 23:30</text>
<text text-anchor="start" x="8" y="-1390.6" font-family="Times,serif" font-size="13.00">Migration version: 20150211045230</text>
<text text-anchor="start" x="8" y="-1377.6" font-family="Times,serif" font-size="13.00">Generated by RailRoady 1.3.0</text>
<text text-anchor="start" x="8" y="-1364.6" font-family="Times,serif" font-size="13.00">http://railroady.prestonlee.com</text>
</g>
<!-- Ability -->
<g id="node2" class="node"><title>Ability</title>
<polygon fill="none" stroke="black" points="224.615,-1372.5 224.615,-1416.5 280.284,-1416.5 280.284,-1372.5 224.615,-1372.5"/>
<text text-anchor="middle" x="252.45" y="-1401.3" font-family="Times,serif" font-size="14.00">Ability</text>
<polyline fill="none" stroke="black" points="224.615,-1394.5 280.284,-1394.5 "/>
<text text-anchor="middle" x="252.45" y="-1379.3" font-family="Times,serif" font-size="14.00"> </text>
</g>
<!-- Affiliation -->
<g id="node3" class="node"><title>Affiliation</title>
<path fill="none" stroke="black" d="M882.944,-408.5C882.944,-408.5 991.955,-408.5 991.955,-408.5 997.955,-408.5 1003.96,-414.5 1003.96,-420.5 1003.96,-420.5 1003.96,-608.5 1003.96,-608.5 1003.96,-614.5 997.955,-620.5 991.955,-620.5 991.955,-620.5 882.944,-620.5 882.944,-620.5 876.944,-620.5 870.944,-614.5 870.944,-608.5 870.944,-608.5 870.944,-420.5 870.944,-420.5 870.944,-414.5 876.944,-408.5 882.944,-408.5"/>
<text text-anchor="middle" x="937.45" y="-605.3" font-family="Times,serif" font-size="14.00">Affiliation</text>
<polyline fill="none" stroke="black" points="870.944,-598.5 1003.96,-598.5 "/>
<text text-anchor="start" x="878.944" y="-583.3" font-family="Times,serif" font-size="14.00">id :integer</text>
<text text-anchor="start" x="878.944" y="-569.3" font-family="Times,serif" font-size="14.00">uuid :uuid</text>
<text text-anchor="start" x="878.944" y="-555.3" font-family="Times,serif" font-size="14.00">slug :string</text>
<text text-anchor="start" x="878.944" y="-541.3" font-family="Times,serif" font-size="14.00">name :string</text>
<text text-anchor="start" x="878.944" y="-527.3" font-family="Times,serif" font-size="14.00">description :text</text>
<text text-anchor="start" x="878.944" y="-513.3" font-family="Times,serif" font-size="14.00">person_id :integer</text>
<text text-anchor="start" x="878.944" y="-499.3" font-family="Times,serif" font-size="14.00">place_id :integer</text>
<text text-anchor="start" x="878.944" y="-485.3" font-family="Times,serif" font-size="14.00">title :string</text>
<text text-anchor="start" x="878.944" y="-471.3" font-family="Times,serif" font-size="14.00">start_date :date</text>
<text text-anchor="start" x="878.944" y="-457.3" font-family="Times,serif" font-size="14.00">end_date :date</text>
<text text-anchor="start" x="878.944" y="-443.3" font-family="Times,serif" font-size="14.00">current :boolean</text>
<text text-anchor="start" x="878.944" y="-429.3" font-family="Times,serif" font-size="14.00">created_at :datetime</text>
<text text-anchor="start" x="878.944" y="-415.3" font-family="Times,serif" font-size="14.00">updated_at :datetime</text>
</g>
<!-- PaperTrail::Version -->
<g id="node15" class="node"><title>PaperTrail::Version</title>
<ellipse fill="none" stroke="black" cx="646.45" cy="-279.5" rx="79.1078" ry="18"/>
<text text-anchor="middle" x="646.45" y="-275.3" font-family="Times,serif" font-size="14.00">PaperTrail::Version</text>
</g>
<!-- Affiliation&#45;&gt;PaperTrail::Version -->
<g id="edge1" class="edge"><title>Affiliation&#45;&gt;PaperTrail::Version</title>
<path fill="none" stroke="#8ea066" d="M865.07,-409.235C862.243,-406.386 859.368,-403.632 856.45,-401 806.618,-356.057 737.27,-320.307 692.127,-299.761"/>
<ellipse fill="none" stroke="#8ea066" cx="868.031" cy="-412.323" rx="4.00002" ry="4.00002"/>
<polygon fill="#8ea066" stroke="#8ea066" points="692,-299.705 684.719,-291.505 687.438,-297.658 682.876,-295.61 682.876,-295.61 682.876,-295.61 687.438,-297.658 681.034,-299.716 692,-299.705 692,-299.705"/>
<text text-anchor="middle" x="854.781" y="-371.8" font-family="Times,serif" font-size="14.00">versions</text>
</g>
<!-- Annotation -->
<g id="node4" class="node"><title>Annotation</title>
<path fill="none" stroke="black" d="M1191.94,-0.5C1191.94,-0.5 1300.96,-0.5 1300.96,-0.5 1306.96,-0.5 1312.96,-6.5 1312.96,-12.5 1312.96,-12.5 1312.96,-158.5 1312.96,-158.5 1312.96,-164.5 1306.96,-170.5 1300.96,-170.5 1300.96,-170.5 1191.94,-170.5 1191.94,-170.5 1185.94,-170.5 1179.94,-164.5 1179.94,-158.5 1179.94,-158.5 1179.94,-12.5 1179.94,-12.5 1179.94,-6.5 1185.94,-0.5 1191.94,-0.5"/>
<text text-anchor="middle" x="1246.45" y="-155.3" font-family="Times,serif" font-size="14.00">Annotation</text>
<polyline fill="none" stroke="black" points="1179.94,-148.5 1312.96,-148.5 "/>
<text text-anchor="start" x="1187.94" y="-133.3" font-family="Times,serif" font-size="14.00">id :integer</text>
<text text-anchor="start" x="1187.94" y="-119.3" font-family="Times,serif" font-size="14.00">uuid :uuid</text>
<text text-anchor="start" x="1187.94" y="-105.3" font-family="Times,serif" font-size="14.00">page_id :integer</text>
<text text-anchor="start" x="1187.94" y="-91.3" font-family="Times,serif" font-size="14.00">tagged_id :integer</text>
<text text-anchor="start" x="1187.94" y="-77.3" font-family="Times,serif" font-size="14.00">tagged_type :string</text>
<text text-anchor="start" x="1187.94" y="-63.3" font-family="Times,serif" font-size="14.00">name :string</text>
<text text-anchor="start" x="1187.94" y="-49.3" font-family="Times,serif" font-size="14.00">description :text</text>
<text text-anchor="start" x="1187.94" y="-35.3" font-family="Times,serif" font-size="14.00">location :json</text>
<text text-anchor="start" x="1187.94" y="-21.3" font-family="Times,serif" font-size="14.00">created_at :datetime</text>
<text text-anchor="start" x="1187.94" y="-7.3" font-family="Times,serif" font-size="14.00">updated_at :datetime</text>
</g>
<!-- Artifact -->
<g id="node5" class="node"><title>Artifact</title>
<path fill="none" stroke="black" d="M1469.33,-1295.5C1469.33,-1295.5 1591.57,-1295.5 1591.57,-1295.5 1597.57,-1295.5 1603.57,-1301.5 1603.57,-1307.5 1603.57,-1307.5 1603.57,-1481.5 1603.57,-1481.5 1603.57,-1487.5 1597.57,-1493.5 1591.57,-1493.5 1591.57,-1493.5 1469.33,-1493.5 1469.33,-1493.5 1463.33,-1493.5 1457.33,-1487.5 1457.33,-1481.5 1457.33,-1481.5 1457.33,-1307.5 1457.33,-1307.5 1457.33,-1301.5 1463.33,-1295.5 1469.33,-1295.5"/>
<text text-anchor="middle" x="1530.45" y="-1478.3" font-family="Times,serif" font-size="14.00">Artifact</text>
<polyline fill="none" stroke="black" points="1457.33,-1471.5 1603.57,-1471.5 "/>
<text text-anchor="start" x="1465.33" y="-1456.3" font-family="Times,serif" font-size="14.00">id :integer</text>
<text text-anchor="start" x="1465.33" y="-1442.3" font-family="Times,serif" font-size="14.00">uuid :uuid</text>
<text text-anchor="start" x="1465.33" y="-1428.3" font-family="Times,serif" font-size="14.00">slug :string</text>
<text text-anchor="start" x="1465.33" y="-1414.3" font-family="Times,serif" font-size="14.00">name :string</text>
<text text-anchor="start" x="1465.33" y="-1400.3" font-family="Times,serif" font-size="14.00">description :text</text>
<text text-anchor="start" x="1465.33" y="-1386.3" font-family="Times,serif" font-size="14.00">alternate_names :string</text>
<text text-anchor="start" x="1465.33" y="-1372.3" font-family="Times,serif" font-size="14.00">artist :string</text>
<text text-anchor="start" x="1465.33" y="-1358.3" font-family="Times,serif" font-size="14.00">dimensions :string</text>
<text text-anchor="start" x="1465.33" y="-1344.3" font-family="Times,serif" font-size="14.00">date_created :string</text>
<text text-anchor="start" x="1465.33" y="-1330.3" font-family="Times,serif" font-size="14.00">group :boolean</text>
<text text-anchor="start" x="1465.33" y="-1316.3" font-family="Times,serif" font-size="14.00">created_at :datetime</text>
<text text-anchor="start" x="1465.33" y="-1302.3" font-family="Times,serif" font-size="14.00">updated_at :datetime</text>
</g>
<!-- Artifact&#45;&gt;Annotation -->
<g id="edge4" class="edge"><title>Artifact&#45;&gt;Annotation</title>
<path fill="none" stroke="#ce6d16" d="M1609.55,-1322.35C1677.79,-1252.8 1765.45,-1140.17 1765.45,-1020.5 1765.45,-1020.5 1765.45,-1020.5 1765.45,-278.5 1765.45,-185.324 1467.49,-123.119 1323.1,-98.4437"/>
<ellipse fill="none" stroke="#ce6d16" cx="1606.65" cy="-1325.27" rx="4.00002" ry="4.00002"/>
<polygon fill="#ce6d16" stroke="#ce6d16" points="1322.83,-98.399 1313.72,-92.295 1317.9,-97.5655 1312.97,-96.732 1312.97,-96.732 1312.97,-96.732 1317.9,-97.5655 1312.22,-101.169 1322.83,-98.399 1322.83,-98.399"/>
</g>
<!-- Citation -->
<g id="node6" class="node"><title>Citation</title>
<path fill="none" stroke="black" d="M1455.94,-208.5C1455.94,-208.5 1564.96,-208.5 1564.96,-208.5 1570.96,-208.5 1576.96,-214.5 1576.96,-220.5 1576.96,-220.5 1576.96,-338.5 1576.96,-338.5 1576.96,-344.5 1570.96,-350.5 1564.96,-350.5 1564.96,-350.5 1455.94,-350.5 1455.94,-350.5 1449.94,-350.5 1443.94,-344.5 1443.94,-338.5 1443.94,-338.5 1443.94,-220.5 1443.94,-220.5 1443.94,-214.5 1449.94,-208.5 1455.94,-208.5"/>
<text text-anchor="middle" x="1510.45" y="-335.3" font-family="Times,serif" font-size="14.00">Citation</text>
<polyline fill="none" stroke="black" points="1443.94,-328.5 1576.96,-328.5 "/>
<text text-anchor="start" x="1451.94" y="-313.3" font-family="Times,serif" font-size="14.00">id :integer</text>
<text text-anchor="start" x="1451.94" y="-299.3" font-family="Times,serif" font-size="14.00">source_id :integer</text>
<text text-anchor="start" x="1451.94" y="-285.3" font-family="Times,serif" font-size="14.00">entry_id :integer</text>
<text text-anchor="start" x="1451.94" y="-271.3" font-family="Times,serif" font-size="14.00">entry_type :string</text>
<text text-anchor="start" x="1451.94" y="-257.3" font-family="Times,serif" font-size="14.00">number :integer</text>
<text text-anchor="start" x="1451.94" y="-243.3" font-family="Times,serif" font-size="14.00">content :string</text>
<text text-anchor="start" x="1451.94" y="-229.3" font-family="Times,serif" font-size="14.00">created_at :datetime</text>
<text text-anchor="start" x="1451.94" y="-215.3" font-family="Times,serif" font-size="14.00">updated_at :datetime</text>
</g>
<!-- Artifact&#45;&gt;Citation -->
<g id="edge8" class="edge"><title>Artifact&#45;&gt;Citation</title>
<path fill="none" stroke="#a2e520" d="M1610.08,-1302.99C1664.74,-1231.43 1727.45,-1126.27 1727.45,-1020.5 1727.45,-1020.5 1727.45,-1020.5 1727.45,-513.5 1727.45,-428.105 1648.43,-360.926 1585.76,-321.074"/>
<polygon fill="#a2e520" stroke="#a2e520" points="1609.92,-1303.2 1600.25,-1308.36 1606.86,-1307.15 1603.81,-1311.11 1603.81,-1311.11 1603.81,-1311.11 1606.86,-1307.15 1607.37,-1313.86 1609.92,-1303.2 1609.92,-1303.2"/>
<polygon fill="#a2e520" stroke="#a2e520" points="1585.52,-320.925 1579.41,-311.815 1581.27,-318.279 1577.03,-315.633 1577.03,-315.633 1577.03,-315.633 1581.27,-318.279 1574.65,-319.452 1585.52,-320.925 1585.52,-320.925"/>
</g>
<!-- Event -->
<g id="node7" class="node"><title>Event</title>
<path fill="none" stroke="black" d="M961.837,-913.5C961.837,-913.5 1077.06,-913.5 1077.06,-913.5 1083.06,-913.5 1089.06,-919.5 1089.06,-925.5 1089.06,-925.5 1089.06,-1113.5 1089.06,-1113.5 1089.06,-1119.5 1083.06,-1125.5 1077.06,-1125.5 1077.06,-1125.5 961.837,-1125.5 961.837,-1125.5 955.837,-1125.5 949.837,-1119.5 949.837,-1113.5 949.837,-1113.5 949.837,-925.5 949.837,-925.5 949.837,-919.5 955.837,-913.5 961.837,-913.5"/>
<text text-anchor="middle" x="1019.45" y="-1110.3" font-family="Times,serif" font-size="14.00">Event</text>
<polyline fill="none" stroke="black" points="949.837,-1103.5 1089.06,-1103.5 "/>
<text text-anchor="start" x="957.837" y="-1088.3" font-family="Times,serif" font-size="14.00">id :integer</text>
<text text-anchor="start" x="957.837" y="-1074.3" font-family="Times,serif" font-size="14.00">uuid :uuid</text>
<text text-anchor="start" x="957.837" y="-1060.3" font-family="Times,serif" font-size="14.00">slug :string</text>
<text text-anchor="start" x="957.837" y="-1046.3" font-family="Times,serif" font-size="14.00">name :string</text>
<text text-anchor="start" x="957.837" y="-1032.3" font-family="Times,serif" font-size="14.00">description :text</text>
<text text-anchor="start" x="957.837" y="-1018.3" font-family="Times,serif" font-size="14.00">date :date</text>
<text text-anchor="start" x="957.837" y="-1004.3" font-family="Times,serif" font-size="14.00">status :string</text>
<text text-anchor="start" x="957.837" y="-990.3" font-family="Times,serif" font-size="14.00">created_at :datetime</text>
<text text-anchor="start" x="957.837" y="-976.3" font-family="Times,serif" font-size="14.00">updated_at :datetime</text>
<text text-anchor="start" x="957.837" y="-962.3" font-family="Times,serif" font-size="14.00">price_cents :integer</text>
<text text-anchor="start" x="957.837" y="-948.3" font-family="Times,serif" font-size="14.00">price_currency :string</text>
<text text-anchor="start" x="957.837" y="-934.3" font-family="Times,serif" font-size="14.00">failed :boolean</text>
<text text-anchor="start" x="957.837" y="-920.3" font-family="Times,serif" font-size="14.00">verb_id :integer</text>
</g>
<!-- Artifact&#45;&gt;Event -->
<g id="edge3" class="edge"><title>Artifact&#45;&gt;Event</title>
<path fill="none" stroke="#71d9b7" d="M1449.01,-1334.05C1352.39,-1263.53 1192.45,-1146.78 1097.39,-1077.39"/>
<polygon fill="#71d9b7" stroke="#71d9b7" points="1449.16,-1334.16 1454.58,-1343.69 1453.2,-1337.11 1457.24,-1340.06 1457.24,-1340.06 1457.24,-1340.06 1453.2,-1337.11 1459.89,-1336.42 1449.16,-1334.16 1449.16,-1334.16"/>
<polygon fill="#71d9b7" stroke="#71d9b7" points="1097.32,-1077.34 1091.9,-1067.81 1093.29,-1074.4 1089.25,-1071.45 1089.25,-1071.45 1089.25,-1071.45 1093.29,-1074.4 1086.59,-1075.08 1097.32,-1077.34 1097.32,-1077.34"/>
</g>
<!-- Page -->
<g id="node9" class="node"><title>Page</title>
<path fill="none" stroke="black" d="M1286.94,-215.5C1286.94,-215.5 1395.96,-215.5 1395.96,-215.5 1401.96,-215.5 1407.96,-221.5 1407.96,-227.5 1407.96,-227.5 1407.96,-331.5 1407.96,-331.5 1407.96,-337.5 1401.96,-343.5 1395.96,-343.5 1395.96,-343.5 1286.94,-343.5 1286.94,-343.5 1280.94,-343.5 1274.94,-337.5 1274.94,-331.5 1274.94,-331.5 1274.94,-227.5 1274.94,-227.5 1274.94,-221.5 1280.94,-215.5 1286.94,-215.5"/>
<text text-anchor="middle" x="1341.45" y="-328.3" font-family="Times,serif" font-size="14.00">Page</text>
<polyline fill="none" stroke="black" points="1274.94,-321.5 1407.96,-321.5 "/>
<text text-anchor="start" x="1282.94" y="-306.3" font-family="Times,serif" font-size="14.00">id :integer</text>
<text text-anchor="start" x="1282.94" y="-292.3" font-family="Times,serif" font-size="14.00">source_id :integer</text>
<text text-anchor="start" x="1282.94" y="-278.3" font-family="Times,serif" font-size="14.00">number :integer</text>
<text text-anchor="start" x="1282.94" y="-264.3" font-family="Times,serif" font-size="14.00">text :text</text>
<text text-anchor="start" x="1282.94" y="-250.3" font-family="Times,serif" font-size="14.00">image :string</text>
<text text-anchor="start" x="1282.94" y="-236.3" font-family="Times,serif" font-size="14.00">created_at :datetime</text>
<text text-anchor="start" x="1282.94" y="-222.3" font-family="Times,serif" font-size="14.00">updated_at :datetime</text>
</g>
<!-- Artifact&#45;&gt;Page -->
<g id="edge5" class="edge"><title>Artifact&#45;&gt;Page</title>
<path fill="none" stroke="#c8f02c" d="M1565.1,-1285.25C1594.06,-1181.75 1628.15,-1021.16 1611.45,-881 1585.49,-663.066 1614.25,-585.541 1495.45,-401 1492.51,-396.436 1454.07,-366.354 1416.33,-337.391"/>
<polygon fill="#c8f02c" stroke="#c8f02c" points="1565.04,-1285.46 1557.98,-1293.86 1563.67,-1290.27 1562.31,-1295.08 1562.31,-1295.08 1562.31,-1295.08 1563.67,-1290.27 1566.64,-1296.31 1565.04,-1285.46 1565.04,-1285.46"/>
<polygon fill="#c8f02c" stroke="#c8f02c" points="1416.24,-337.32 1411.04,-327.666 1412.27,-334.279 1408.3,-331.237 1408.3,-331.237 1408.3,-331.237 1412.27,-334.279 1405.56,-334.809 1416.24,-337.32 1416.24,-337.32"/>
<text text-anchor="middle" x="1655.1" y="-766.3" font-family="Times,serif" font-size="14.00">annotated_pages</text>
</g>
<!-- Source -->
<g id="node12" class="node"><title>Source</title>
<path fill="none" stroke="black" d="M1231.94,-401.5C1231.94,-401.5 1340.96,-401.5 1340.96,-401.5 1346.96,-401.5 1352.96,-407.5 1352.96,-413.5 1352.96,-413.5 1352.96,-615.5 1352.96,-615.5 1352.96,-621.5 1346.96,-627.5 1340.96,-627.5 1340.96,-627.5 1231.94,-627.5 1231.94,-627.5 1225.94,-627.5 1219.94,-621.5 1219.94,-615.5 1219.94,-615.5 1219.94,-413.5 1219.94,-413.5 1219.94,-407.5 1225.94,-401.5 1231.94,-401.5"/>
<text text-anchor="middle" x="1286.45" y="-612.3" font-family="Times,serif" font-size="14.00">Source</text>
<polyline fill="none" stroke="black" points="1219.94,-605.5 1352.96,-605.5 "/>
<text text-anchor="start" x="1227.94" y="-590.3" font-family="Times,serif" font-size="14.00">id :integer</text>
<text text-anchor="start" x="1227.94" y="-576.3" font-family="Times,serif" font-size="14.00">uuid :uuid</text>
<text text-anchor="start" x="1227.94" y="-562.3" font-family="Times,serif" font-size="14.00">slug :string</text>
<text text-anchor="start" x="1227.94" y="-548.3" font-family="Times,serif" font-size="14.00">kind :string</text>
<text text-anchor="start" x="1227.94" y="-534.3" font-family="Times,serif" font-size="14.00">name :string</text>
<text text-anchor="start" x="1227.94" y="-520.3" font-family="Times,serif" font-size="14.00">description :text</text>
<text text-anchor="start" x="1227.94" y="-506.3" font-family="Times,serif" font-size="14.00">authors :string</text>
<text text-anchor="start" x="1227.94" y="-492.3" font-family="Times,serif" font-size="14.00">date_created :date</text>
<text text-anchor="start" x="1227.94" y="-478.3" font-family="Times,serif" font-size="14.00">attribution :string</text>
<text text-anchor="start" x="1227.94" y="-464.3" font-family="Times,serif" font-size="14.00">image :string</text>
<text text-anchor="start" x="1227.94" y="-450.3" font-family="Times,serif" font-size="14.00">document :string</text>
<text text-anchor="start" x="1227.94" y="-436.3" font-family="Times,serif" font-size="14.00">created_at :datetime</text>
<text text-anchor="start" x="1227.94" y="-422.3" font-family="Times,serif" font-size="14.00">updated_at :datetime</text>
<text text-anchor="start" x="1227.94" y="-408.3" font-family="Times,serif" font-size="14.00">identifier :string</text>
</g>
<!-- Artifact&#45;&gt;Source -->
<g id="edge6" class="edge"><title>Artifact&#45;&gt;Source</title>
<path fill="none" stroke="#cc355e" d="M1513.98,-1285.19C1499.24,-1184.39 1478.15,-1029.87 1466.04,-895 1456.14,-784.636 1524.48,-731.047 1453.45,-646 1430.92,-619.026 1406.17,-646.753 1376.45,-628 1371.04,-624.584 1365.8,-620.727 1360.77,-616.55"/>
<polygon fill="#cc355e" stroke="#cc355e" points="1514.02,-1285.48 1511.02,-1296.03 1514.75,-1290.43 1515.47,-1295.38 1515.47,-1295.38 1515.47,-1295.38 1514.75,-1290.43 1519.93,-1294.73 1514.02,-1285.48 1514.02,-1285.48"/>
<polygon fill="#cc355e" stroke="#cc355e" points="1360.54,-616.348 1356.01,-606.364 1356.79,-613.045 1353.04,-609.743 1353.04,-609.743 1353.04,-609.743 1356.79,-613.045 1350.06,-613.121 1360.54,-616.348 1360.54,-616.348"/>
<text text-anchor="middle" x="1518.15" y="-883.8" font-family="Times,serif" font-size="14.00">annotated_sources</text>
</g>
<!-- Artifact&#45;&gt;Source -->
<g id="edge7" class="edge"><title>Artifact&#45;&gt;Source</title>
<path fill="none" stroke="#74ccf3" d="M1554.87,-1285.46C1574.66,-1181.12 1595.37,-1019.06 1569.45,-881 1548.63,-770.114 1564.42,-712.74 1473.45,-646 1438.1,-620.063 1414.06,-650.535 1376.45,-628 1371.03,-624.752 1365.8,-621.05 1360.78,-617.014"/>
<polygon fill="#74ccf3" stroke="#74ccf3" points="1554.86,-1285.56 1548.54,-1294.52 1553.91,-1290.47 1552.96,-1295.37 1552.96,-1295.37 1552.96,-1295.37 1553.91,-1290.47 1557.38,-1296.23 1554.86,-1285.56 1554.86,-1285.56"/>
<polygon fill="#74ccf3" stroke="#74ccf3" points="1360.67,-616.915 1355.99,-606.995 1356.87,-613.665 1353.07,-610.415 1353.07,-610.415 1353.07,-610.415 1356.87,-613.665 1350.14,-613.834 1360.67,-616.915 1360.67,-616.915"/>
<text text-anchor="middle" x="1589.12" y="-883.8" font-family="Times,serif" font-size="14.00">photos</text>
</g>
<!-- Artifact&#45;&gt;Source -->
<g id="edge9" class="edge"><title>Artifact&#45;&gt;Source</title>
<path fill="none" stroke="#9233b5" d="M1502.12,-1285.49C1489.81,-1236.91 1475.67,-1178.74 1464.45,-1126 1419.36,-914.013 1461.98,-845.985 1378.45,-646 1372.98,-632.907 1366.02,-619.832 1358.38,-607.292"/>
<polygon fill="#9233b5" stroke="#9233b5" points="1502.17,-1285.7 1500.27,-1296.5 1503.4,-1290.55 1504.63,-1295.39 1504.63,-1295.39 1504.63,-1295.39 1503.4,-1290.55 1508.99,-1294.28 1502.17,-1285.7 1502.17,-1285.7"/>
<polygon fill="#9233b5" stroke="#9233b5" points="1358.31,-607.175 1356.81,-596.312 1355.66,-602.939 1353,-598.703 1353,-598.703 1353,-598.703 1355.66,-602.939 1349.19,-601.093 1358.31,-607.175 1358.31,-607.175"/>
</g>
<!-- Artifact&#45;&gt;PaperTrail::Version -->
<g id="edge2" class="edge"><title>Artifact&#45;&gt;PaperTrail::Version</title>
<path fill="none" stroke="#304e2f" d="M1449.01,-1384.62C1188.95,-1354.02 395.45,-1242.49 395.45,-1020.5 395.45,-1020.5 395.45,-1020.5 395.45,-513.5 395.45,-459.972 406.138,-443.676 438.45,-401 477.337,-349.639 544.955,-316.405 592.516,-298.112"/>
<ellipse fill="none" stroke="#304e2f" cx="1453.32" cy="-1385.12" rx="4.00001" ry="4.00001"/>
<polygon fill="#304e2f" stroke="#304e2f" points="592.68,-298.051 603.623,-298.757 597.362,-296.297 602.044,-294.543 602.044,-294.543 602.044,-294.543 597.362,-296.297 600.466,-290.329 592.68,-298.051 592.68,-298.051"/>
<text text-anchor="middle" x="418.781" y="-766.3" font-family="Times,serif" font-size="14.00">versions</text>
</g>
<!-- Event&#45;&gt;Citation -->
<g id="edge14" class="edge"><title>Event&#45;&gt;Citation</title>
<path fill="none" stroke="#665a3b" d="M1096.78,-988.372C1217.42,-936.336 1444.63,-816.702 1522.45,-628 1557.95,-541.922 1546.31,-433.418 1531.46,-360.762"/>
<ellipse fill="none" stroke="#665a3b" cx="1093.03" cy="-989.979" rx="4.00002" ry="4.00002"/>
<polygon fill="#665a3b" stroke="#665a3b" points="1531.41,-360.538 1533.75,-349.824 1530.38,-355.646 1529.34,-350.753 1529.34,-350.753 1529.34,-350.753 1530.38,-355.646 1524.94,-351.683 1531.41,-360.538 1531.41,-360.538"/>
</g>
<!-- Interaction -->
<g id="node8" class="node"><title>Interaction</title>
<path fill="none" stroke="black" d="M581.051,-443.5C581.051,-443.5 711.848,-443.5 711.848,-443.5 717.848,-443.5 723.848,-449.5 723.848,-455.5 723.848,-455.5 723.848,-573.5 723.848,-573.5 723.848,-579.5 717.848,-585.5 711.848,-585.5 711.848,-585.5 581.051,-585.5 581.051,-585.5 575.051,-585.5 569.051,-579.5 569.051,-573.5 569.051,-573.5 569.051,-455.5 569.051,-455.5 569.051,-449.5 575.051,-443.5 581.051,-443.5"/>
<text text-anchor="middle" x="646.45" y="-570.3" font-family="Times,serif" font-size="14.00">Interaction</text>
<polyline fill="none" stroke="black" points="569.051,-563.5 723.848,-563.5 "/>
<text text-anchor="start" x="577.051" y="-548.3" font-family="Times,serif" font-size="14.00">id :integer</text>
<text text-anchor="start" x="577.051" y="-534.3" font-family="Times,serif" font-size="14.00">actor_id :integer</text>
<text text-anchor="start" x="577.051" y="-520.3" font-family="Times,serif" font-size="14.00">actor_type :string</text>
<text text-anchor="start" x="577.051" y="-506.3" font-family="Times,serif" font-size="14.00">event_id :integer</text>
<text text-anchor="start" x="577.051" y="-492.3" font-family="Times,serif" font-size="14.00">recipient :boolean</text>
<text text-anchor="start" x="577.051" y="-478.3" font-family="Times,serif" font-size="14.00">unknown_actor :boolean</text>
<text text-anchor="start" x="577.051" y="-464.3" font-family="Times,serif" font-size="14.00">created_at :datetime</text>
<text text-anchor="start" x="577.051" y="-450.3" font-family="Times,serif" font-size="14.00">updated_at :datetime</text>
</g>
<!-- Event&#45;&gt;Interaction -->
<g id="edge11" class="edge"><title>Event&#45;&gt;Interaction</title>
<path fill="none" stroke="#9ddf09" d="M942.971,-972.402C901.605,-944.619 851.881,-906.277 816.45,-863 749.875,-781.685 701.173,-669.948 673.367,-595.358"/>
<ellipse fill="none" stroke="#9ddf09" cx="946.468" cy="-974.728" rx="4.00002" ry="4.00002"/>
<polygon fill="#9ddf09" stroke="#9ddf09" points="673.208,-594.924 673.971,-583.985 671.478,-590.233 669.749,-585.542 669.749,-585.542 669.749,-585.542 671.478,-590.233 665.527,-587.098 673.208,-594.924 673.208,-594.924"/>
</g>
<!-- Person -->
<g id="node10" class="node"><title>Person</title>
<path fill="none" stroke="black" d="M837.944,-678.5C837.944,-678.5 946.955,-678.5 946.955,-678.5 952.955,-678.5 958.955,-684.5 958.955,-690.5 958.955,-690.5 958.955,-850.5 958.955,-850.5 958.955,-856.5 952.955,-862.5 946.955,-862.5 946.955,-862.5 837.944,-862.5 837.944,-862.5 831.944,-862.5 825.944,-856.5 825.944,-850.5 825.944,-850.5 825.944,-690.5 825.944,-690.5 825.944,-684.5 831.944,-678.5 837.944,-678.5"/>
<text text-anchor="middle" x="892.45" y="-847.3" font-family="Times,serif" font-size="14.00">Person</text>
<polyline fill="none" stroke="black" points="825.944,-840.5 958.955,-840.5 "/>
<text text-anchor="start" x="833.944" y="-825.3" font-family="Times,serif" font-size="14.00">id :integer</text>
<text text-anchor="start" x="833.944" y="-811.3" font-family="Times,serif" font-size="14.00">uuid :uuid</text>
<text text-anchor="start" x="833.944" y="-797.3" font-family="Times,serif" font-size="14.00">slug :string</text>
<text text-anchor="start" x="833.944" y="-783.3" font-family="Times,serif" font-size="14.00">name :string</text>
<text text-anchor="start" x="833.944" y="-769.3" font-family="Times,serif" font-size="14.00">description :text</text>
<text text-anchor="start" x="833.944" y="-755.3" font-family="Times,serif" font-size="14.00">gender :string</text>
<text text-anchor="start" x="833.944" y="-741.3" font-family="Times,serif" font-size="14.00">date_of_birth :date</text>
<text text-anchor="start" x="833.944" y="-727.3" font-family="Times,serif" font-size="14.00">date_of_death :date</text>
<text text-anchor="start" x="833.944" y="-713.3" font-family="Times,serif" font-size="14.00">nationality :string</text>
<text text-anchor="start" x="833.944" y="-699.3" font-family="Times,serif" font-size="14.00">created_at :datetime</text>
<text text-anchor="start" x="833.944" y="-685.3" font-family="Times,serif" font-size="14.00">updated_at :datetime</text>
</g>
<!-- Event&#45;&gt;Person -->
<g id="edge12" class="edge"><title>Event&#45;&gt;Person</title>
<path fill="none" stroke="#41aae3" d="M944.159,-918.119C939.587,-910.457 935.291,-902.705 931.45,-895 927.772,-887.624 924.348,-879.828 921.181,-871.884"/>
<polygon fill="#41aae3" stroke="#41aae3" points="944.416,-918.537 945.806,-929.414 947.029,-922.799 949.642,-927.062 949.642,-927.062 949.642,-927.062 947.029,-922.799 953.479,-924.71 944.416,-918.537 944.416,-918.537"/>
<polygon fill="#41aae3" stroke="#41aae3" points="921.165,-871.842 921.781,-860.893 919.372,-867.174 917.58,-862.506 917.58,-862.506 917.58,-862.506 919.372,-867.174 913.379,-864.119 921.165,-871.842 921.165,-871.842"/>
</g>
<!-- Place -->
<g id="node11" class="node"><title>Place</title>
<path fill="none" stroke="black" d="M1073.94,-706.5C1073.94,-706.5 1182.96,-706.5 1182.96,-706.5 1188.96,-706.5 1194.96,-712.5 1194.96,-718.5 1194.96,-718.5 1194.96,-822.5 1194.96,-822.5 1194.96,-828.5 1188.96,-834.5 1182.96,-834.5 1182.96,-834.5 1073.94,-834.5 1073.94,-834.5 1067.94,-834.5 1061.94,-828.5 1061.94,-822.5 1061.94,-822.5 1061.94,-718.5 1061.94,-718.5 1061.94,-712.5 1067.94,-706.5 1073.94,-706.5"/>
<text text-anchor="middle" x="1128.45" y="-819.3" font-family="Times,serif" font-size="14.00">Place</text>
<polyline fill="none" stroke="black" points="1061.94,-812.5 1194.96,-812.5 "/>
<text text-anchor="start" x="1069.94" y="-797.3" font-family="Times,serif" font-size="14.00">id :integer</text>
<text text-anchor="start" x="1069.94" y="-783.3" font-family="Times,serif" font-size="14.00">uuid :uuid</text>
<text text-anchor="start" x="1069.94" y="-769.3" font-family="Times,serif" font-size="14.00">slug :string</text>
<text text-anchor="start" x="1069.94" y="-755.3" font-family="Times,serif" font-size="14.00">name :string</text>
<text text-anchor="start" x="1069.94" y="-741.3" font-family="Times,serif" font-size="14.00">description :text</text>
<text text-anchor="start" x="1069.94" y="-727.3" font-family="Times,serif" font-size="14.00">created_at :datetime</text>
<text text-anchor="start" x="1069.94" y="-713.3" font-family="Times,serif" font-size="14.00">updated_at :datetime</text>
</g>
<!-- Event&#45;&gt;Place -->
<g id="edge13" class="edge"><title>Event&#45;&gt;Place</title>
<path fill="none" stroke="#298a74" d="M1070.01,-903.934C1079,-883.55 1088.14,-862.84 1096.44,-844.04"/>
<polygon fill="#298a74" stroke="#298a74" points="1069.87,-904.243 1061.72,-911.575 1067.85,-908.817 1065.83,-913.392 1065.83,-913.392 1065.83,-913.392 1067.85,-908.817 1069.95,-915.208 1069.87,-904.243 1069.87,-904.243"/>
<polygon fill="#298a74" stroke="#298a74" points="1096.53,-843.834 1104.68,-836.502 1098.55,-839.26 1100.57,-834.685 1100.57,-834.685 1100.57,-834.685 1098.55,-839.26 1096.45,-832.868 1096.53,-843.834 1096.53,-843.834"/>
</g>
<!-- Event&#45;&gt;Source -->
<g id="edge15" class="edge"><title>Event&#45;&gt;Source</title>
<path fill="none" stroke="#484b8e" d="M1097.78,-968.171C1183.72,-907.406 1315.69,-796.206 1362.45,-660 1369.21,-640.301 1365.83,-620.007 1357.57,-601.081"/>
<polygon fill="#484b8e" stroke="#484b8e" points="1097.54,-968.336 1086.77,-970.386 1093.44,-971.204 1089.35,-974.072 1089.35,-974.072 1089.35,-974.072 1093.44,-971.204 1091.93,-977.759 1097.54,-968.336 1097.54,-968.336"/>
<polygon fill="#484b8e" stroke="#484b8e" points="1357.49,-600.916 1357.21,-589.954 1355.32,-596.412 1353.15,-591.909 1353.15,-591.909 1353.15,-591.909 1355.32,-596.412 1349.1,-593.863 1357.49,-600.916 1357.49,-600.916"/>
</g>
<!-- Event&#45;&gt;PaperTrail::Version -->
<g id="edge10" class="edge"><title>Event&#45;&gt;PaperTrail::Version</title>
<path fill="none" stroke="#b5f569" d="M941.871,-993.424C811.888,-946.378 556.207,-830.871 473.45,-628 435.343,-534.585 426.754,-490.432 473.45,-401 499.304,-351.484 555.814,-318.181 597.242,-299.358"/>
<ellipse fill="none" stroke="#b5f569" cx="945.721" cy="-994.805" rx="4.00001" ry="4.00001"/>
<polygon fill="#b5f569" stroke="#b5f569" points="597.476,-299.255 608.441,-299.34 602.051,-297.239 606.626,-295.222 606.626,-295.222 606.626,-295.222 602.051,-297.239 604.812,-291.104 597.476,-299.255 597.476,-299.255"/>
<text text-anchor="middle" x="511.781" y="-648.8" font-family="Times,serif" font-size="14.00">versions</text>
</g>
<!-- Interaction&#45;&gt;PaperTrail::Version -->
<g id="edge16" class="edge"><title>Interaction&#45;&gt;PaperTrail::Version</title>
<path fill="none" stroke="#fb49f2" d="M646.45,-435.154C646.45,-391.104 646.45,-338.872 646.45,-307.775"/>
<ellipse fill="none" stroke="#fb49f2" cx="646.45" cy="-439.276" rx="4" ry="4"/>
<polygon fill="#fb49f2" stroke="#fb49f2" points="646.45,-307.705 650.95,-297.705 646.45,-302.705 646.45,-297.705 646.45,-297.705 646.45,-297.705 646.45,-302.705 641.95,-297.705 646.45,-307.705 646.45,-307.705"/>
<text text-anchor="middle" x="669.781" y="-371.8" font-family="Times,serif" font-size="14.00">versions</text>
</g>
<!-- Page&#45;&gt;Annotation -->
<g id="edge17" class="edge"><title>Page&#45;&gt;Annotation</title>
<path fill="none" stroke="#73697a" d="M1306.51,-207.893C1301.96,-198.696 1297.25,-189.164 1292.55,-179.669"/>
<ellipse fill="none" stroke="#73697a" cx="1308.44" cy="-211.781" rx="4.00002" ry="4.00002"/>
<polygon fill="#73697a" stroke="#73697a" points="1292.49,-179.552 1292.09,-168.593 1290.27,-175.07 1288.06,-170.589 1288.06,-170.589 1288.06,-170.589 1290.27,-175.07 1284.02,-172.585 1292.49,-179.552 1292.49,-179.552"/>
</g>
<!-- Person&#45;&gt;Affiliation -->
<g id="edge19" class="edge"><title>Person&#45;&gt;Affiliation</title>
<path fill="none" stroke="#270e9a" d="M820.103,-713.107C801.747,-692.023 791.067,-667.887 806.45,-646 820.031,-626.677 837.593,-642.221 856.45,-628 858.792,-626.234 861.094,-624.381 863.355,-622.453"/>
<ellipse fill="none" stroke="#270e9a" cx="823.041" cy="-716.31" rx="4.00002" ry="4.00002"/>
<polygon fill="#270e9a" stroke="#270e9a" points="863.474,-622.346 873.906,-618.965 867.18,-618.988 870.885,-615.63 870.885,-615.63 870.885,-615.63 867.18,-618.988 867.863,-612.296 863.474,-622.346 863.474,-622.346"/>
</g>
<!-- Person&#45;&gt;Annotation -->
<g id="edge21" class="edge"><title>Person&#45;&gt;Annotation</title>
<path fill="none" stroke="#3b39fe" d="M883.238,-670.275C885.945,-661.379 890.176,-653.077 896.45,-646 931.349,-606.629 976.402,-665.356 1013.45,-628 1054.41,-586.696 1029.9,-423.031 1051.45,-369 1080.43,-296.343 1130.96,-223.924 1173.32,-170.601"/>
<ellipse fill="none" stroke="#3b39fe" cx="882.214" cy="-674.35" rx="4.00001" ry="4.00001"/>
<polygon fill="#3b39fe" stroke="#3b39fe" points="1173.52,-170.348 1183.29,-165.356 1176.65,-166.445 1179.78,-162.543 1179.78,-162.543 1179.78,-162.543 1176.65,-166.445 1176.26,-159.729 1173.52,-170.348 1173.52,-170.348"/>
</g>
<!-- Person&#45;&gt;Citation -->
<g id="edge26" class="edge"><title>Person&#45;&gt;Citation</title>
<path fill="none" stroke="#47e612" d="M894.792,-668.913C898.459,-660.328 903.537,-652.469 910.45,-646 947.721,-611.121 1099.54,-659.821 1139.45,-628 1222.11,-562.104 1133.27,-473.235 1210.45,-401 1279.55,-336.324 1331.93,-391.555 1417.45,-351 1423.42,-348.171 1429.37,-344.92 1435.22,-341.4"/>
<polygon fill="#47e612" stroke="#47e612" points="894.734,-669.075 887.113,-676.959 893.04,-673.779 891.346,-678.483 891.346,-678.483 891.346,-678.483 893.04,-673.779 895.58,-680.008 894.734,-669.075 894.734,-669.075"/>
<polygon fill="#47e612" stroke="#47e612" points="1435.23,-341.391 1446.09,-339.879 1439.47,-338.73 1443.7,-336.069 1443.7,-336.069 1443.7,-336.069 1439.47,-338.73 1441.3,-332.259 1435.23,-341.391 1435.23,-341.391"/>
</g>
<!-- Person&#45;&gt;Event -->
<g id="edge25" class="edge"><title>Person&#45;&gt;Event</title>
<path fill="none" stroke="#36d792" d="M944.015,-871.789C949.52,-882.495 955.149,-893.443 960.728,-904.294"/>
<polygon fill="#36d792" stroke="#36d792" points="943.997,-871.753 943.426,-860.802 941.71,-867.306 939.424,-862.86 939.424,-862.86 939.424,-862.86 941.71,-867.306 935.422,-864.917 943.997,-871.753 943.997,-871.753"/>
<polygon fill="#36d792" stroke="#36d792" points="960.833,-904.498 961.404,-915.449 963.12,-908.945 965.406,-913.392 965.406,-913.392 965.406,-913.392 963.12,-908.945 969.408,-911.334 960.833,-904.498 960.833,-904.498"/>
<text text-anchor="middle" x="996.102" y="-883.8" font-family="Times,serif" font-size="14.00">source_events</text>
</g>
<!-- Person&#45;&gt;Interaction -->
<g id="edge20" class="edge"><title>Person&#45;&gt;Interaction</title>
<path fill="none" stroke="#e9aaba" d="M819.139,-722.167C794.289,-704.297 767.313,-682.746 745.45,-660 726.483,-640.268 708.616,-616.55 693.42,-594.087"/>
<ellipse fill="none" stroke="#e9aaba" cx="822.485" cy="-724.548" rx="4.00002" ry="4.00002"/>
<polygon fill="#e9aaba" stroke="#e9aaba" points="693.276,-593.872 691.474,-583.055 690.503,-589.711 687.73,-585.551 687.73,-585.551 687.73,-585.551 690.503,-589.711 683.985,-588.047 693.276,-593.872 693.276,-593.872"/>
</g>
<!-- Person&#45;&gt;Page -->
<g id="edge22" class="edge"><title>Person&#45;&gt;Page</title>
<path fill="none" stroke="#e416fd" d="M818.774,-705.376C798.394,-683.16 778.926,-656.59 768.153,-628 750.364,-580.796 735.375,-439.344 768.153,-401 784.86,-381.456 857.19,-387.804 882.45,-383 1017.75,-357.266 1174.02,-320.945 1264.89,-299.16"/>
<polygon fill="#e416fd" stroke="#e416fd" points="818.853,-705.46 822.433,-715.825 822.281,-709.1 825.709,-712.74 825.709,-712.74 825.709,-712.74 822.281,-709.1 828.985,-709.654 818.853,-705.46 818.853,-705.46"/>
<polygon fill="#e416fd" stroke="#e416fd" points="1265.11,-299.108 1275.88,-301.148 1269.97,-297.94 1274.83,-296.772 1274.83,-296.772 1274.83,-296.772 1269.97,-297.94 1273.78,-292.397 1265.11,-299.108 1265.11,-299.108"/>
<text text-anchor="middle" x="815.098" y="-510.3" font-family="Times,serif" font-size="14.00">annotated_pages</text>
</g>
<!-- Person&#45;&gt;Source -->
<g id="edge23" class="edge"><title>Person&#45;&gt;Source</title>
<path fill="none" stroke="#45a4cf" d="M907.457,-669.294C912.19,-660.438 918.265,-652.416 926.042,-646 967.538,-611.765 1118.24,-649.733 1167.45,-628 1183.21,-621.039 1198.18,-611.069 1211.85,-599.904"/>
<polygon fill="#45a4cf" stroke="#45a4cf" points="907.427,-669.358 899.089,-676.48 905.293,-673.879 903.158,-678.401 903.158,-678.401 903.158,-678.401 905.293,-673.879 907.228,-680.322 907.427,-669.358 907.427,-669.358"/>
<polygon fill="#45a4cf" stroke="#45a4cf" points="1212.12,-599.677 1222.65,-596.638 1215.93,-596.442 1219.74,-593.206 1219.74,-593.206 1219.74,-593.206 1215.93,-596.442 1216.83,-589.775 1212.12,-599.677 1212.12,-599.677"/>
<text text-anchor="middle" x="978.153" y="-648.8" font-family="Times,serif" font-size="14.00">annotated_sources</text>
</g>
<!-- Person&#45;&gt;Source -->
<g id="edge24" class="edge"><title>Person&#45;&gt;Source</title>
<path fill="none" stroke="#133a14" d="M967.64,-718.662C1006.5,-694.106 1055.46,-665.756 1102.11,-646 1129.85,-634.254 1141.21,-642.785 1167.45,-628 1183.02,-619.228 1198.12,-607.981 1212.04,-596.003"/>
<polygon fill="#133a14" stroke="#133a14" points="967.436,-718.792 956.584,-720.368 963.219,-721.478 959.001,-724.164 959.001,-724.164 959.001,-724.164 963.219,-721.478 961.419,-727.959 967.436,-718.792 967.436,-718.792"/>
<polygon fill="#133a14" stroke="#133a14" points="1212.15,-595.904 1222.62,-592.657 1215.9,-592.594 1219.65,-589.284 1219.65,-589.284 1219.65,-589.284 1215.9,-592.594 1216.67,-585.911 1212.15,-595.904 1212.15,-595.904"/>
<text text-anchor="middle" x="1121.12" y="-648.8" font-family="Times,serif" font-size="14.00">photos</text>
</g>
<!-- Person&#45;&gt;Source -->
<g id="edge27" class="edge"><title>Person&#45;&gt;Source</title>
<path fill="none" stroke="#80c047" d="M967.685,-719.969C993.676,-704.646 1023.54,-688.938 1052.45,-678 1089.38,-664.026 1104.62,-678.598 1139.45,-660 1165.97,-645.841 1190.91,-625.415 1212.46,-604.36"/>
<polygon fill="#80c047" stroke="#80c047" points="967.611,-720.013 956.718,-721.28 963.319,-722.578 959.027,-725.143 959.027,-725.143 959.027,-725.143 963.319,-722.578 961.335,-729.006 967.611,-720.013 967.611,-720.013"/>
<polygon fill="#80c047" stroke="#80c047" points="1212.55,-604.265 1222.81,-600.389 1216.09,-600.734 1219.63,-597.203 1219.63,-597.203 1219.63,-597.203 1216.09,-600.734 1216.45,-594.017 1212.55,-604.265 1212.55,-604.265"/>
</g>
<!-- Person&#45;&gt;PaperTrail::Version -->
<g id="edge18" class="edge"><title>Person&#45;&gt;PaperTrail::Version</title>
<path fill="none" stroke="#1f23a3" d="M817.427,-765.656C728.024,-756.58 582.166,-726.549 513.788,-628 456.274,-545.11 472.953,-493.256 513.788,-401 533.184,-357.178 577.261,-322.469 609.3,-301.769"/>
<ellipse fill="none" stroke="#1f23a3" cx="821.649" cy="-766.063" rx="4" ry="4"/>
<polygon fill="#1f23a3" stroke="#1f23a3" points="609.521,-301.63 620.382,-300.116 613.754,-298.968 617.986,-296.307 617.986,-296.307 617.986,-296.307 613.754,-298.968 615.591,-292.497 609.521,-301.63 609.521,-301.63"/>
<text text-anchor="middle" x="537.781" y="-510.3" font-family="Times,serif" font-size="14.00">versions</text>
</g>
<!-- Place&#45;&gt;Affiliation -->
<g id="edge29" class="edge"><title>Place&#45;&gt;Affiliation</title>
<path fill="none" stroke="#705745" d="M1054.84,-722.284C1028.33,-706.676 997.733,-690.202 968.45,-678 940.78,-666.47 921.599,-683.858 903.45,-660 896.71,-651.14 893.212,-641.156 892.055,-630.679"/>
<ellipse fill="none" stroke="#705745" cx="1058.4" cy="-724.4" rx="4.00002" ry="4.00002"/>
<polygon fill="#705745" stroke="#705745" points="892.047,-630.496 896.129,-620.318 891.84,-625.5 891.633,-620.505 891.633,-620.505 891.633,-620.505 891.84,-625.5 887.137,-620.691 892.047,-630.496 892.047,-630.496"/>
</g>
<!-- Place&#45;&gt;Annotation -->
<g id="edge31" class="edge"><title>Place&#45;&gt;Annotation</title>
<path fill="none" stroke="#a15713" d="M1140.75,-698.309C1162.15,-574.448 1206.23,-319.32 1230.15,-180.87"/>
<ellipse fill="none" stroke="#a15713" cx="1140.02" cy="-702.528" rx="4.00001" ry="4.00001"/>
<polygon fill="#a15713" stroke="#a15713" points="1230.2,-180.553 1236.34,-171.465 1231.05,-175.626 1231.9,-170.699 1231.9,-170.699 1231.9,-170.699 1231.05,-175.626 1227.47,-169.932 1230.2,-180.553 1230.2,-180.553"/>
</g>
<!-- Place&#45;&gt;Citation -->
<g id="edge36" class="edge"><title>Place&#45;&gt;Citation</title>
<path fill="none" stroke="#788c11" d="M1204.96,-742.415C1309.87,-704.932 1486.52,-640.437 1495.45,-628 1525.05,-586.798 1522.26,-449.982 1516.84,-360.813"/>
<polygon fill="#788c11" stroke="#788c11" points="1204.77,-742.483 1193.84,-741.606 1200.06,-744.164 1195.35,-745.844 1195.35,-745.844 1195.35,-745.844 1200.06,-744.164 1196.87,-750.083 1204.77,-742.483 1204.77,-742.483"/>
<polygon fill="#788c11" stroke="#788c11" points="1516.83,-360.705 1520.69,-350.441 1516.52,-355.714 1516.2,-350.724 1516.2,-350.724 1516.2,-350.724 1516.52,-355.714 1511.71,-351.008 1516.83,-360.705 1516.83,-360.705"/>
</g>
<!-- Place&#45;&gt;Event -->
<g id="edge35" class="edge"><title>Place&#45;&gt;Event</title>
<path fill="none" stroke="#bd071a" d="M1108.95,-844.485C1103.64,-861.337 1097.4,-879.006 1090.45,-895 1089.14,-898.005 1087.78,-901.03 1086.37,-904.065"/>
<polygon fill="#bd071a" stroke="#bd071a" points="1109.03,-844.234 1116.27,-836 1110.5,-839.455 1111.97,-834.676 1111.97,-834.676 1111.97,-834.676 1110.5,-839.455 1107.67,-833.353 1109.03,-844.234 1109.03,-844.234"/>
<polygon fill="#bd071a" stroke="#bd071a" points="1086.33,-904.161 1077.96,-911.251 1084.18,-908.674 1082.02,-913.187 1082.02,-913.187 1082.02,-913.187 1084.18,-908.674 1086.09,-915.124 1086.33,-904.161 1086.33,-904.161"/>
<text text-anchor="middle" x="1136.1" y="-883.8" font-family="Times,serif" font-size="14.00">source_events</text>
</g>
<!-- Place&#45;&gt;Interaction -->
<g id="edge30" class="edge"><title>Place&#45;&gt;Interaction</title>
<path fill="none" stroke="#77107d" d="M1054.85,-721.12C1028.46,-705.497 997.932,-689.311 968.45,-678 870.375,-640.375 826.897,-683.076 737.45,-628 722.697,-618.916 709.289,-606.562 697.572,-593.359"/>
<ellipse fill="none" stroke="#77107d" cx="1058.38" cy="-723.237" rx="4.00002" ry="4.00002"/>
<polygon fill="#77107d" stroke="#77107d" points="697.361,-593.113 694.294,-582.585 694.116,-589.309 690.871,-585.506 690.871,-585.506 690.871,-585.506 694.116,-589.309 687.447,-588.427 697.361,-593.113 697.361,-593.113"/>
</g>
<!-- Place&#45;&gt;Page -->
<g id="edge32" class="edge"><title>Place&#45;&gt;Page</title>
<path fill="none" stroke="#6f045f" d="M1205.02,-755.921C1259.18,-741.888 1328.06,-714.064 1362.45,-660 1421.41,-567.309 1394.8,-434.678 1368.99,-353.256"/>
<polygon fill="#6f045f" stroke="#6f045f" points="1204.79,-755.977 1194,-754.017 1199.94,-757.181 1195.09,-758.384 1195.09,-758.384 1195.09,-758.384 1199.94,-757.181 1196.17,-762.752 1204.79,-755.977 1204.79,-755.977"/>
<polygon fill="#6f045f" stroke="#6f045f" points="1368.93,-353.098 1370.13,-342.197 1367.39,-348.342 1365.85,-343.587 1365.85,-343.587 1365.85,-343.587 1367.39,-348.342 1361.57,-344.976 1368.93,-353.098 1368.93,-353.098"/>
<text text-anchor="middle" x="1445.1" y="-510.3" font-family="Times,serif" font-size="14.00">annotated_pages</text>
</g>
<!-- Place&#45;&gt;Source -->
<g id="edge33" class="edge"><title>Place&#45;&gt;Source</title>
<path fill="none" stroke="#8e30a3" d="M1202.54,-714.975C1220.08,-698.974 1237.22,-680.27 1249.45,-660 1253.78,-652.829 1257.6,-645.163 1260.98,-637.242"/>
<polygon fill="#8e30a3" stroke="#8e30a3" points="1202.49,-715.021 1192.02,-718.299 1198.75,-718.342 1195.01,-721.663 1195.01,-721.663 1195.01,-721.663 1198.75,-718.342 1198,-725.027 1202.49,-715.021 1202.49,-715.021"/>
<polygon fill="#8e30a3" stroke="#8e30a3" points="1261.03,-637.124 1268.93,-629.515 1262.89,-632.482 1264.75,-627.841 1264.75,-627.841 1264.75,-627.841 1262.89,-632.482 1260.57,-626.167 1261.03,-637.124 1261.03,-637.124"/>
<text text-anchor="middle" x="1307.15" y="-648.8" font-family="Times,serif" font-size="14.00">annotated_sources</text>
</g>
<!-- Place&#45;&gt;Source -->
<g id="edge34" class="edge"><title>Place&#45;&gt;Source</title>
<path fill="none" stroke="#cb13d8" d="M1157.83,-696.674C1166.19,-679.395 1176.07,-661.496 1187.11,-646 1193.74,-636.699 1198.01,-636.666 1205.45,-628 1208.06,-624.954 1210.68,-621.827 1213.29,-618.644"/>
<polygon fill="#cb13d8" stroke="#cb13d8" points="1157.61,-697.146 1149.28,-704.272 1155.48,-701.668 1153.35,-706.191 1153.35,-706.191 1153.35,-706.191 1155.48,-701.668 1157.42,-708.11 1157.61,-697.146 1157.61,-697.146"/>
<polygon fill="#cb13d8" stroke="#cb13d8" points="1213.48,-618.411 1223.26,-613.449 1216.62,-614.518 1219.75,-610.625 1219.75,-610.625 1219.75,-610.625 1216.62,-614.518 1216.25,-607.801 1213.48,-618.411 1213.48,-618.411"/>
<text text-anchor="middle" x="1206.12" y="-648.8" font-family="Times,serif" font-size="14.00">photos</text>
</g>
<!-- Place&#45;&gt;Source -->
<g id="edge37" class="edge"><title>Place&#45;&gt;Source</title>
<path fill="none" stroke="#831332" d="M1196.32,-698.465C1206.43,-686.139 1216.21,-673.07 1224.45,-660 1229.1,-652.618 1233.56,-644.826 1237.8,-636.842"/>
<polygon fill="#831332" stroke="#831332" points="1196.06,-698.779 1186.19,-703.562 1192.85,-702.614 1189.64,-706.449 1189.64,-706.449 1189.64,-706.449 1192.85,-702.614 1193.09,-709.336 1196.06,-698.779 1196.06,-698.779"/>
<polygon fill="#831332" stroke="#831332" points="1237.91,-636.643 1246.49,-629.823 1240.2,-632.2 1242.49,-627.758 1242.49,-627.758 1242.49,-627.758 1240.2,-632.2 1238.5,-625.693 1237.91,-636.643 1237.91,-636.643"/>
</g>
<!-- Place&#45;&gt;PaperTrail::Version -->
<g id="edge28" class="edge"><title>Place&#45;&gt;PaperTrail::Version</title>
<path fill="none" stroke="#bc7851" d="M1114.28,-698.094C1094.16,-603.394 1055.1,-443.269 1013.45,-401 938.444,-324.88 814.613,-296.835 731.805,-286.508"/>
<ellipse fill="none" stroke="#bc7851" cx="1115.16" cy="-702.289" rx="4.00001" ry="4.00001"/>
<polygon fill="#bc7851" stroke="#bc7851" points="731.595,-286.483 722.194,-280.838 726.629,-285.895 721.664,-285.306 721.664,-285.306 721.664,-285.306 726.629,-285.895 721.135,-289.775 731.595,-286.483 731.595,-286.483"/>
<text text-anchor="middle" x="1121.78" y="-510.3" font-family="Times,serif" font-size="14.00">versions</text>
</g>
<!-- Source&#45;&gt;Annotation -->
<g id="edge40" class="edge"><title>Source&#45;&gt;Annotation</title>
<path fill="none" stroke="#f20481" d="M1269.86,-390.98C1268.26,-377.501 1266.75,-363.969 1265.45,-351 1259.79,-294.645 1255.18,-231.37 1251.92,-180.841"/>
<polygon fill="#f20481" stroke="#f20481" points="1269.9,-391.338 1266.63,-401.804 1270.5,-396.302 1271.1,-401.266 1271.1,-401.266 1271.1,-401.266 1270.5,-396.302 1275.57,-400.728 1269.9,-391.338 1269.9,-391.338"/>
<polygon fill="#f20481" stroke="#f20481" points="1251.9,-180.566 1255.76,-170.299 1251.59,-175.576 1251.27,-170.586 1251.27,-170.586 1251.27,-170.586 1251.59,-175.576 1246.78,-170.872 1251.9,-180.566 1251.9,-180.566"/>
</g>
<!-- Source&#45;&gt;Citation -->
<g id="edge41" class="edge"><title>Source&#45;&gt;Citation</title>
<path fill="none" stroke="#5ccf4a" d="M1358.46,-411.075C1361.43,-407.625 1364.43,-404.255 1367.45,-401 1388.17,-378.642 1412.92,-356.475 1435.97,-337.368"/>
<ellipse fill="none" stroke="#5ccf4a" cx="1355.72" cy="-414.313" rx="4.00002" ry="4.00002"/>
<polygon fill="#5ccf4a" stroke="#5ccf4a" points="1435.98,-337.356 1446.56,-334.486 1439.84,-334.183 1443.71,-331.009 1443.71,-331.009 1443.71,-331.009 1439.84,-334.183 1440.85,-327.532 1435.98,-337.356 1435.98,-337.356"/>
</g>
<!-- Source&#45;&gt;Page -->
<g id="edge39" class="edge"><title>Source&#45;&gt;Page</title>
<path fill="none" stroke="#62ca48" d="M1314.77,-393.536C1317.97,-379.971 1321.16,-366.468 1324.16,-353.765"/>
<ellipse fill="none" stroke="#62ca48" cx="1313.82" cy="-397.543" rx="4.00001" ry="4.00001"/>
<polygon fill="#62ca48" stroke="#62ca48" points="1324.22,-353.496 1330.9,-344.797 1325.37,-348.629 1326.52,-343.763 1326.52,-343.763 1326.52,-343.763 1325.37,-348.629 1322.14,-342.729 1324.22,-353.496 1324.22,-353.496"/>
</g>
<!-- Source&#45;&gt;PaperTrail::Version -->
<g id="edge38" class="edge"><title>Source&#45;&gt;PaperTrail::Version</title>
<path fill="none" stroke="#7d57d8" d="M1212.96,-453.128C1187.63,-434.471 1158.35,-415.133 1129.45,-401 995.982,-335.719 823.953,-303.774 725.345,-289.832"/>
<ellipse fill="none" stroke="#7d57d8" cx="1216.44" cy="-455.721" rx="4.00002" ry="4.00002"/>
<polygon fill="#7d57d8" stroke="#7d57d8" points="725.062,-289.792 715.775,-283.961 720.109,-289.105 715.156,-288.418 715.156,-288.418 715.156,-288.418 720.109,-289.105 714.538,-292.876 725.062,-289.792 725.062,-289.792"/>
<text text-anchor="middle" x="1103.78" y="-371.8" font-family="Times,serif" font-size="14.00">versions</text>
</g>
<!-- User -->
<g id="node13" class="node"><title>User</title>
<path fill="none" stroke="black" d="M1848.18,-1176.5C1848.18,-1176.5 2084.72,-1176.5 2084.72,-1176.5 2090.72,-1176.5 2096.72,-1182.5 2096.72,-1188.5 2096.72,-1188.5 2096.72,-1600.5 2096.72,-1600.5 2096.72,-1606.5 2090.72,-1612.5 2084.72,-1612.5 2084.72,-1612.5 1848.18,-1612.5 1848.18,-1612.5 1842.18,-1612.5 1836.18,-1606.5 1836.18,-1600.5 1836.18,-1600.5 1836.18,-1188.5 1836.18,-1188.5 1836.18,-1182.5 1842.18,-1176.5 1848.18,-1176.5"/>
<text text-anchor="middle" x="1966.45" y="-1597.3" font-family="Times,serif" font-size="14.00">User</text>
<polyline fill="none" stroke="black" points="1836.18,-1590.5 2096.72,-1590.5 "/>
<text text-anchor="start" x="1844.18" y="-1575.3" font-family="Times,serif" font-size="14.00">id :integer</text>
<text text-anchor="start" x="1844.18" y="-1561.3" font-family="Times,serif" font-size="14.00">email :string</text>
<text text-anchor="start" x="1844.18" y="-1547.3" font-family="Times,serif" font-size="14.00">crypted_password :string</text>
<text text-anchor="start" x="1844.18" y="-1533.3" font-family="Times,serif" font-size="14.00">salt :string</text>
<text text-anchor="start" x="1844.18" y="-1519.3" font-family="Times,serif" font-size="14.00">created_at :datetime</text>
<text text-anchor="start" x="1844.18" y="-1505.3" font-family="Times,serif" font-size="14.00">updated_at :datetime</text>
<text text-anchor="start" x="1844.18" y="-1491.3" font-family="Times,serif" font-size="14.00">remember_me_token :string</text>
<text text-anchor="start" x="1844.18" y="-1477.3" font-family="Times,serif" font-size="14.00">remember_me_token_expires_at :datetime</text>
<text text-anchor="start" x="1844.18" y="-1463.3" font-family="Times,serif" font-size="14.00">reset_password_token :string</text>
<text text-anchor="start" x="1844.18" y="-1449.3" font-family="Times,serif" font-size="14.00">reset_password_token_expires_at :datetime</text>
<text text-anchor="start" x="1844.18" y="-1435.3" font-family="Times,serif" font-size="14.00">reset_password_email_sent_at :datetime</text>
<text text-anchor="start" x="1844.18" y="-1421.3" font-family="Times,serif" font-size="14.00">activation_state :string</text>
<text text-anchor="start" x="1844.18" y="-1407.3" font-family="Times,serif" font-size="14.00">activation_token :string</text>
<text text-anchor="start" x="1844.18" y="-1393.3" font-family="Times,serif" font-size="14.00">activation_token_expires_at :datetime</text>
<text text-anchor="start" x="1844.18" y="-1379.3" font-family="Times,serif" font-size="14.00">failed_logins_count :integer</text>
<text text-anchor="start" x="1844.18" y="-1365.3" font-family="Times,serif" font-size="14.00">lock_expires_at :datetime</text>
<text text-anchor="start" x="1844.18" y="-1351.3" font-family="Times,serif" font-size="14.00">unlock_token :string</text>
<text text-anchor="start" x="1844.18" y="-1337.3" font-family="Times,serif" font-size="14.00">last_login_at :datetime</text>
<text text-anchor="start" x="1844.18" y="-1323.3" font-family="Times,serif" font-size="14.00">last_logout_at :datetime</text>
<text text-anchor="start" x="1844.18" y="-1309.3" font-family="Times,serif" font-size="14.00">last_activity_at :datetime</text>
<text text-anchor="start" x="1844.18" y="-1295.3" font-family="Times,serif" font-size="14.00">last_login_from_ip_address :string</text>
<text text-anchor="start" x="1844.18" y="-1281.3" font-family="Times,serif" font-size="14.00">name :string</text>
<text text-anchor="start" x="1844.18" y="-1267.3" font-family="Times,serif" font-size="14.00">slug :string</text>
<text text-anchor="start" x="1844.18" y="-1253.3" font-family="Times,serif" font-size="14.00">description :string</text>
<text text-anchor="start" x="1844.18" y="-1239.3" font-family="Times,serif" font-size="14.00">uuid :uuid</text>
<text text-anchor="start" x="1844.18" y="-1225.3" font-family="Times,serif" font-size="14.00">company :string</text>
<text text-anchor="start" x="1844.18" y="-1211.3" font-family="Times,serif" font-size="14.00">location :string</text>
<text text-anchor="start" x="1844.18" y="-1197.3" font-family="Times,serif" font-size="14.00">role :string</text>
<text text-anchor="start" x="1844.18" y="-1183.3" font-family="Times,serif" font-size="14.00">login_count :integer</text>
</g>
<!-- Mailboxer::Message -->
<g id="node16" class="node"><title>Mailboxer::Message</title>
<ellipse fill="none" stroke="black" cx="1876.45" cy="-1019.5" rx="82.6045" ry="18"/>
<text text-anchor="middle" x="1876.45" y="-1015.3" font-family="Times,serif" font-size="14.00">Mailboxer::Message</text>
</g>
<!-- User&#45;&gt;Mailboxer::Message -->
<g id="edge42" class="edge"><title>User&#45;&gt;Mailboxer::Message</title>
<path fill="none" stroke="#566cf6" d="M1912.15,-1168.47C1900.45,-1119.97 1889.62,-1075.1 1883.03,-1047.77"/>
<ellipse fill="none" stroke="#566cf6" cx="1913.09" cy="-1172.37" rx="4.00001" ry="4.00001"/>
<polygon fill="#566cf6" stroke="#566cf6" points="1882.98,-1047.57 1885.01,-1036.8 1881.81,-1042.71 1880.64,-1037.85 1880.64,-1037.85 1880.64,-1037.85 1881.81,-1042.71 1876.26,-1038.91 1882.98,-1047.57 1882.98,-1047.57"/>
<text text-anchor="middle" x="1933.89" y="-1146.8" font-family="Times,serif" font-size="14.00">messages</text>
</g>
<!-- Mailboxer::Receipt -->
<g id="node17" class="node"><title>Mailboxer::Receipt</title>
<ellipse fill="none" stroke="black" cx="2056.45" cy="-1019.5" rx="78.7367" ry="18"/>
<text text-anchor="middle" x="2056.45" y="-1015.3" font-family="Times,serif" font-size="14.00">Mailboxer::Receipt</text>
</g>
<!-- User&#45;&gt;Mailboxer::Receipt -->
<g id="edge43" class="edge"><title>User&#45;&gt;Mailboxer::Receipt</title>
<path fill="none" stroke="#4b3e24" d="M2020.75,-1168.47C2032.45,-1119.97 2043.28,-1075.1 2049.87,-1047.77"/>
<ellipse fill="none" stroke="#4b3e24" cx="2019.81" cy="-1172.37" rx="4.00001" ry="4.00001"/>
<polygon fill="#4b3e24" stroke="#4b3e24" points="2049.92,-1047.57 2056.64,-1038.91 2051.09,-1042.71 2052.26,-1037.85 2052.26,-1037.85 2052.26,-1037.85 2051.09,-1042.71 2047.89,-1036.8 2049.92,-1047.57 2049.92,-1047.57"/>
<text text-anchor="middle" x="2046.22" y="-1146.8" font-family="Times,serif" font-size="14.00">receipts</text>
</g>
<!-- Verb -->
<g id="node14" class="node"><title>Verb</title>
<path fill="none" stroke="black" d="M310.11,-1302.5C310.11,-1302.5 430.79,-1302.5 430.79,-1302.5 436.79,-1302.5 442.79,-1308.5 442.79,-1314.5 442.79,-1314.5 442.79,-1474.5 442.79,-1474.5 442.79,-1480.5 436.79,-1486.5 430.79,-1486.5 430.79,-1486.5 310.11,-1486.5 310.11,-1486.5 304.11,-1486.5 298.11,-1480.5 298.11,-1474.5 298.11,-1474.5 298.11,-1314.5 298.11,-1314.5 298.11,-1308.5 304.11,-1302.5 310.11,-1302.5"/>
<text text-anchor="middle" x="370.45" y="-1471.3" font-family="Times,serif" font-size="14.00">Verb</text>
<polyline fill="none" stroke="black" points="298.11,-1464.5 442.79,-1464.5 "/>
<text text-anchor="start" x="306.11" y="-1449.3" font-family="Times,serif" font-size="14.00">id :integer</text>
<text text-anchor="start" x="306.11" y="-1435.3" font-family="Times,serif" font-size="14.00">keyword :string</text>
<text text-anchor="start" x="306.11" y="-1421.3" font-family="Times,serif" font-size="14.00">action :string</text>
<text text-anchor="start" x="306.11" y="-1407.3" font-family="Times,serif" font-size="14.00">noun :string</text>
<text text-anchor="start" x="306.11" y="-1393.3" font-family="Times,serif" font-size="14.00">components :string</text>
<text text-anchor="start" x="306.11" y="-1379.3" font-family="Times,serif" font-size="14.00">created_at :datetime</text>
<text text-anchor="start" x="306.11" y="-1365.3" font-family="Times,serif" font-size="14.00">updated_at :datetime</text>
<text text-anchor="start" x="306.11" y="-1351.3" font-family="Times,serif" font-size="14.00">subject_types :string</text>
<text text-anchor="start" x="306.11" y="-1337.3" font-family="Times,serif" font-size="14.00">subject_limit :integer</text>
<text text-anchor="start" x="306.11" y="-1323.3" font-family="Times,serif" font-size="14.00">recipient_types :string</text>
<text text-anchor="start" x="306.11" y="-1309.3" font-family="Times,serif" font-size="14.00">recipient_limit :integer</text>
</g>
<!-- Verb&#45;&gt;Event -->
<g id="edge44" class="edge"><title>Verb&#45;&gt;Event</title>
<path fill="none" stroke="#f26f55" d="M450.149,-1347.69C575.359,-1275.73 816.67,-1137.04 941.063,-1065.55"/>
<ellipse fill="none" stroke="#f26f55" cx="446.477" cy="-1349.8" rx="4.00002" ry="4.00002"/>
<polygon fill="#f26f55" stroke="#f26f55" points="941.144,-1065.5 952.057,-1064.42 945.479,-1063.01 949.814,-1060.52 949.814,-1060.52 949.814,-1060.52 945.479,-1063.01 947.572,-1056.62 941.144,-1065.5 941.144,-1065.5"/>
</g>
</g>
</svg>
