<?xml version="1.0" encoding="UTF-8" standalone="no"?>
<!DOCTYPE svg PUBLIC "-//W3C//DTD SVG 1.1//EN"
 "http://www.w3.org/Graphics/SVG/1.1/DTD/svg11.dtd">
<!-- Generated by graphviz version 2.38.0 (20140413.2041)
 -->
<!-- Title: models_diagram Pages: 1 -->
<svg width="630pt" height="153pt"
 viewBox="0.00 0.00 629.69 153.00" xmlns="http://www.w3.org/2000/svg" xmlns:xlink="http://www.w3.org/1999/xlink">
<g id="graph0" class="graph" transform="scale(1 1) rotate(0) translate(4 149)">
<title>models_diagram</title>
<polygon fill="white" stroke="none" points="-4,4 -4,-149 625.688,-149 625.688,4 -4,4"/>
<!-- _diagram_info -->
<g id="node1" class="node"><title>_diagram_info</title>
<text text-anchor="start" x="8" y="-130.6" font-family="Times,serif" font-size="13.00">Models diagram</text>
<text text-anchor="start" x="8" y="-117.6" font-family="Times,serif" font-size="13.00">Date: Jan 23 2015 &#45; 18:11</text>
<text text-anchor="start" x="8" y="-104.6" font-family="Times,serif" font-size="13.00">Migration version: 20150122021000</text>
<text text-anchor="start" x="8" y="-91.6" font-family="Times,serif" font-size="13.00">Generated by RailRoady 1.3.0</text>
<text text-anchor="start" x="8" y="-78.6" font-family="Times,serif" font-size="13.00">http://railroady.prestonlee.com</text>
</g>
<!-- Artifact -->
<g id="node2" class="node"><title>Artifact</title>
<ellipse fill="none" stroke="black" cx="262.688" cy="-108.5" rx="37.7092" ry="18"/>
<text text-anchor="middle" x="262.688" y="-104.3" font-family="Times,serif" font-size="14.00">Artifact</text>
</g>
<!-- Page -->
<g id="node3" class="node"><title>Page</title>
<ellipse fill="none" stroke="black" cx="352.688" cy="-18" rx="27.0958" ry="18"/>
<text text-anchor="middle" x="352.688" y="-13.8" font-family="Times,serif" font-size="14.00">Page</text>
</g>
<!-- Person -->
<g id="node4" class="node"><title>Person</title>
<ellipse fill="none" stroke="black" cx="439.688" cy="-108.5" rx="34.3614" ry="18"/>
<text text-anchor="middle" x="439.688" y="-104.3" font-family="Times,serif" font-size="14.00">Person</text>
</g>
<!-- Place -->
<g id="node5" class="node"><title>Place</title>
<ellipse fill="none" stroke="black" cx="520.688" cy="-108.5" rx="29.0172" ry="18"/>
<text text-anchor="middle" x="520.688" y="-104.3" font-family="Times,serif" font-size="14.00">Place</text>
</g>
<!-- Source -->
<g id="node6" class="node"><title>Source</title>
<ellipse fill="none" stroke="black" cx="352.688" cy="-108.5" rx="34.8285" ry="18"/>
<text text-anchor="middle" x="352.688" y="-104.3" font-family="Times,serif" font-size="14.00">Source</text>
</g>
<!-- Source&#45;&gt;Page -->
<g id="edge1" class="edge"><title>Source&#45;&gt;Page</title>
<path fill="none" stroke="#03a03b" d="M352.688,-82.189C352.688,-70.9711 352.688,-57.7517 352.688,-46.3113"/>
<ellipse fill="none" stroke="#03a03b" cx="352.688" cy="-86.4363" rx="4" ry="4"/>
<polygon fill="#03a03b" stroke="#03a03b" points="352.688,-46.0113 357.188,-36.0113 352.688,-41.0113 352.688,-36.0113 352.688,-36.0113 352.688,-36.0113 352.688,-41.0113 348.188,-36.0113 352.688,-46.0113 352.688,-46.0113"/>
</g>
<!-- User -->
<g id="node7" class="node"><title>User</title>
<ellipse fill="none" stroke="black" cx="594.688" cy="-108.5" rx="27" ry="18"/>
<text text-anchor="middle" x="594.688" y="-104.3" font-family="Times,serif" font-size="14.00">User</text>
</g>
</g>
</svg>
