<?xml version="1.0" encoding="UTF-8" standalone="no"?>
<!DOCTYPE svg PUBLIC "-//W3C//DTD SVG 1.1//EN"
 "http://www.w3.org/Graphics/SVG/1.1/DTD/svg11.dtd">
<!-- Generated by graphviz version 2.38.0 (20140413.2041)
 -->
<!-- Title: models_diagram Pages: 1 -->
<svg width="1112pt" height="512pt"
 viewBox="0.00 0.00 1111.96 512.00" xmlns="http://www.w3.org/2000/svg" xmlns:xlink="http://www.w3.org/1999/xlink">
<g id="graph0" class="graph" transform="scale(1 1) rotate(0) translate(4 508)">
<title>models_diagram</title>
<polygon fill="white" stroke="none" points="-4,4 -4,-508 1107.96,-508 1107.96,4 -4,4"/>
<!-- _diagram_info -->
<g id="node1" class="node"><title>_diagram_info</title>
<text text-anchor="start" x="8" y="-356.6" font-family="Times,serif" font-size="13.00">Models diagram</text>
<text text-anchor="start" x="8" y="-343.6" font-family="Times,serif" font-size="13.00">Date: Jan 23 2015 &#45; 18:11</text>
<text text-anchor="start" x="8" y="-330.6" font-family="Times,serif" font-size="13.00">Migration version: 20150122021000</text>
<text text-anchor="start" x="8" y="-317.6" font-family="Times,serif" font-size="13.00">Generated by RailRoady 1.3.0</text>
<text text-anchor="start" x="8" y="-304.6" font-family="Times,serif" font-size="13.00">http://railroady.prestonlee.com</text>
</g>
<!-- Artifact -->
<g id="node2" class="node"><title>Artifact</title>
<path fill="none" stroke="black" d="M237.572,-235.5C237.572,-235.5 359.803,-235.5 359.803,-235.5 365.803,-235.5 371.803,-241.5 371.803,-247.5 371.803,-247.5 371.803,-421.5 371.803,-421.5 371.803,-427.5 365.803,-433.5 359.803,-433.5 359.803,-433.5 237.572,-433.5 237.572,-433.5 231.572,-433.5 225.572,-427.5 225.572,-421.5 225.572,-421.5 225.572,-247.5 225.572,-247.5 225.572,-241.5 231.572,-235.5 237.572,-235.5"/>
<text text-anchor="middle" x="298.688" y="-418.3" font-family="Times,serif" font-size="14.00">Artifact</text>
<polyline fill="none" stroke="black" points="225.572,-411.5 371.803,-411.5 "/>
<text text-anchor="start" x="233.572" y="-396.3" font-family="Times,serif" font-size="14.00">id :integer</text>
<text text-anchor="start" x="233.572" y="-382.3" font-family="Times,serif" font-size="14.00">uuid :uuid</text>
<text text-anchor="start" x="233.572" y="-368.3" font-family="Times,serif" font-size="14.00">slug :string</text>
<text text-anchor="start" x="233.572" y="-354.3" font-family="Times,serif" font-size="14.00">name :string</text>
<text text-anchor="start" x="233.572" y="-340.3" font-family="Times,serif" font-size="14.00">description :text</text>
<text text-anchor="start" x="233.572" y="-326.3" font-family="Times,serif" font-size="14.00">alternate_names :string</text>
<text text-anchor="start" x="233.572" y="-312.3" font-family="Times,serif" font-size="14.00">artist :string</text>
<text text-anchor="start" x="233.572" y="-298.3" font-family="Times,serif" font-size="14.00">dimensions :string</text>
<text text-anchor="start" x="233.572" y="-284.3" font-family="Times,serif" font-size="14.00">date_created :string</text>
<text text-anchor="start" x="233.572" y="-270.3" font-family="Times,serif" font-size="14.00">group :boolean</text>
<text text-anchor="start" x="233.572" y="-256.3" font-family="Times,serif" font-size="14.00">created_at :datetime</text>
<text text-anchor="start" x="233.572" y="-242.3" font-family="Times,serif" font-size="14.00">updated_at :datetime</text>
</g>
<!-- Page -->
<g id="node3" class="node"><title>Page</title>
<path fill="none" stroke="black" d="M402.182,-0.5C402.182,-0.5 511.193,-0.5 511.193,-0.5 517.193,-0.5 523.193,-6.5 523.193,-12.5 523.193,-12.5 523.193,-116.5 523.193,-116.5 523.193,-122.5 517.193,-128.5 511.193,-128.5 511.193,-128.5 402.182,-128.5 402.182,-128.5 396.182,-128.5 390.182,-122.5 390.182,-116.5 390.182,-116.5 390.182,-12.5 390.182,-12.5 390.182,-6.5 396.182,-0.5 402.182,-0.5"/>
<text text-anchor="middle" x="456.688" y="-113.3" font-family="Times,serif" font-size="14.00">Page</text>
<polyline fill="none" stroke="black" points="390.182,-106.5 523.193,-106.5 "/>
<text text-anchor="start" x="398.182" y="-91.3" font-family="Times,serif" font-size="14.00">id :integer</text>
<text text-anchor="start" x="398.182" y="-77.3" font-family="Times,serif" font-size="14.00">source_id :integer</text>
<text text-anchor="start" x="398.182" y="-63.3" font-family="Times,serif" font-size="14.00">number :integer</text>
<text text-anchor="start" x="398.182" y="-49.3" font-family="Times,serif" font-size="14.00">text :text</text>
<text text-anchor="start" x="398.182" y="-35.3" font-family="Times,serif" font-size="14.00">image :string</text>
<text text-anchor="start" x="398.182" y="-21.3" font-family="Times,serif" font-size="14.00">created_at :datetime</text>
<text text-anchor="start" x="398.182" y="-7.3" font-family="Times,serif" font-size="14.00">updated_at :datetime</text>
</g>
<!-- Person -->
<g id="node4" class="node"><title>Person</title>
<path fill="none" stroke="black" d="M553.182,-242.5C553.182,-242.5 662.193,-242.5 662.193,-242.5 668.193,-242.5 674.193,-248.5 674.193,-254.5 674.193,-254.5 674.193,-414.5 674.193,-414.5 674.193,-420.5 668.193,-426.5 662.193,-426.5 662.193,-426.5 553.182,-426.5 553.182,-426.5 547.182,-426.5 541.182,-420.5 541.182,-414.5 541.182,-414.5 541.182,-254.5 541.182,-254.5 541.182,-248.5 547.182,-242.5 553.182,-242.5"/>
<text text-anchor="middle" x="607.688" y="-411.3" font-family="Times,serif" font-size="14.00">Person</text>
<polyline fill="none" stroke="black" points="541.182,-404.5 674.193,-404.5 "/>
<text text-anchor="start" x="549.182" y="-389.3" font-family="Times,serif" font-size="14.00">id :integer</text>
<text text-anchor="start" x="549.182" y="-375.3" font-family="Times,serif" font-size="14.00">uuid :uuid</text>
<text text-anchor="start" x="549.182" y="-361.3" font-family="Times,serif" font-size="14.00">slug :string</text>
<text text-anchor="start" x="549.182" y="-347.3" font-family="Times,serif" font-size="14.00">name :string</text>
<text text-anchor="start" x="549.182" y="-333.3" font-family="Times,serif" font-size="14.00">description :text</text>
<text text-anchor="start" x="549.182" y="-319.3" font-family="Times,serif" font-size="14.00">gender :string</text>
<text text-anchor="start" x="549.182" y="-305.3" font-family="Times,serif" font-size="14.00">date_of_birth :date</text>
<text text-anchor="start" x="549.182" y="-291.3" font-family="Times,serif" font-size="14.00">date_of_death :date</text>
<text text-anchor="start" x="549.182" y="-277.3" font-family="Times,serif" font-size="14.00">nationality :string</text>
<text text-anchor="start" x="549.182" y="-263.3" font-family="Times,serif" font-size="14.00">created_at :datetime</text>
<text text-anchor="start" x="549.182" y="-249.3" font-family="Times,serif" font-size="14.00">updated_at :datetime</text>
</g>
<!-- Place -->
<g id="node5" class="node"><title>Place</title>
<path fill="none" stroke="black" d="M704.182,-270.5C704.182,-270.5 813.193,-270.5 813.193,-270.5 819.193,-270.5 825.193,-276.5 825.193,-282.5 825.193,-282.5 825.193,-386.5 825.193,-386.5 825.193,-392.5 819.193,-398.5 813.193,-398.5 813.193,-398.5 704.182,-398.5 704.182,-398.5 698.182,-398.5 692.182,-392.5 692.182,-386.5 692.182,-386.5 692.182,-282.5 692.182,-282.5 692.182,-276.5 698.182,-270.5 704.182,-270.5"/>
<text text-anchor="middle" x="758.688" y="-383.3" font-family="Times,serif" font-size="14.00">Place</text>
<polyline fill="none" stroke="black" points="692.182,-376.5 825.193,-376.5 "/>
<text text-anchor="start" x="700.182" y="-361.3" font-family="Times,serif" font-size="14.00">id :integer</text>
<text text-anchor="start" x="700.182" y="-347.3" font-family="Times,serif" font-size="14.00">uuid :uuid</text>
<text text-anchor="start" x="700.182" y="-333.3" font-family="Times,serif" font-size="14.00">slug :string</text>
<text text-anchor="start" x="700.182" y="-319.3" font-family="Times,serif" font-size="14.00">name :string</text>
<text text-anchor="start" x="700.182" y="-305.3" font-family="Times,serif" font-size="14.00">description :text</text>
<text text-anchor="start" x="700.182" y="-291.3" font-family="Times,serif" font-size="14.00">created_at :datetime</text>
<text text-anchor="start" x="700.182" y="-277.3" font-family="Times,serif" font-size="14.00">updated_at :datetime</text>
</g>
<!-- Source -->
<g id="node6" class="node"><title>Source</title>
<path fill="none" stroke="black" d="M402.182,-228.5C402.182,-228.5 511.193,-228.5 511.193,-228.5 517.193,-228.5 523.193,-234.5 523.193,-240.5 523.193,-240.5 523.193,-428.5 523.193,-428.5 523.193,-434.5 517.193,-440.5 511.193,-440.5 511.193,-440.5 402.182,-440.5 402.182,-440.5 396.182,-440.5 390.182,-434.5 390.182,-428.5 390.182,-428.5 390.182,-240.5 390.182,-240.5 390.182,-234.5 396.182,-228.5 402.182,-228.5"/>
<text text-anchor="middle" x="456.688" y="-425.3" font-family="Times,serif" font-size="14.00">Source</text>
<polyline fill="none" stroke="black" points="390.182,-418.5 523.193,-418.5 "/>
<text text-anchor="start" x="398.182" y="-403.3" font-family="Times,serif" font-size="14.00">id :integer</text>
<text text-anchor="start" x="398.182" y="-389.3" font-family="Times,serif" font-size="14.00">uuid :uuid</text>
<text text-anchor="start" x="398.182" y="-375.3" font-family="Times,serif" font-size="14.00">slug :string</text>
<text text-anchor="start" x="398.182" y="-361.3" font-family="Times,serif" font-size="14.00">kind :string</text>
<text text-anchor="start" x="398.182" y="-347.3" font-family="Times,serif" font-size="14.00">name :string</text>
<text text-anchor="start" x="398.182" y="-333.3" font-family="Times,serif" font-size="14.00">description :text</text>
<text text-anchor="start" x="398.182" y="-319.3" font-family="Times,serif" font-size="14.00">authors :string</text>
<text text-anchor="start" x="398.182" y="-305.3" font-family="Times,serif" font-size="14.00">date_created :date</text>
<text text-anchor="start" x="398.182" y="-291.3" font-family="Times,serif" font-size="14.00">attribution :string</text>
<text text-anchor="start" x="398.182" y="-277.3" font-family="Times,serif" font-size="14.00">thumbnail :string</text>
<text text-anchor="start" x="398.182" y="-263.3" font-family="Times,serif" font-size="14.00">document :string</text>
<text text-anchor="start" x="398.182" y="-249.3" font-family="Times,serif" font-size="14.00">created_at :datetime</text>
<text text-anchor="start" x="398.182" y="-235.3" font-family="Times,serif" font-size="14.00">updated_at :datetime</text>
</g>
<!-- Source&#45;&gt;Page -->
<g id="edge1" class="edge"><title>Source&#45;&gt;Page</title>
<path fill="none" stroke="#51a80f" d="M456.688,-220.002C456.688,-192.5 456.688,-163.818 456.688,-138.739"/>
<ellipse fill="none" stroke="#51a80f" cx="456.688" cy="-224.348" rx="4" ry="4"/>
<polygon fill="#51a80f" stroke="#51a80f" points="456.688,-138.591 461.188,-128.591 456.688,-133.591 456.688,-128.591 456.688,-128.591 456.688,-128.591 456.688,-133.591 452.188,-128.591 456.688,-138.591 456.688,-138.591"/>
</g>
<!-- User -->
<g id="node7" class="node"><title>User</title>
<path fill="none" stroke="black" d="M855.42,-165.5C855.42,-165.5 1091.96,-165.5 1091.96,-165.5 1097.96,-165.5 1103.96,-171.5 1103.96,-177.5 1103.96,-177.5 1103.96,-491.5 1103.96,-491.5 1103.96,-497.5 1097.96,-503.5 1091.96,-503.5 1091.96,-503.5 855.42,-503.5 855.42,-503.5 849.42,-503.5 843.42,-497.5 843.42,-491.5 843.42,-491.5 843.42,-177.5 843.42,-177.5 843.42,-171.5 849.42,-165.5 855.42,-165.5"/>
<text text-anchor="middle" x="973.688" y="-488.3" font-family="Times,serif" font-size="14.00">User</text>
<polyline fill="none" stroke="black" points="843.42,-481.5 1103.96,-481.5 "/>
<text text-anchor="start" x="851.42" y="-466.3" font-family="Times,serif" font-size="14.00">id :integer</text>
<text text-anchor="start" x="851.42" y="-452.3" font-family="Times,serif" font-size="14.00">email :string</text>
<text text-anchor="start" x="851.42" y="-438.3" font-family="Times,serif" font-size="14.00">crypted_password :string</text>
<text text-anchor="start" x="851.42" y="-424.3" font-family="Times,serif" font-size="14.00">salt :string</text>
<text text-anchor="start" x="851.42" y="-410.3" font-family="Times,serif" font-size="14.00">created_at :datetime</text>
<text text-anchor="start" x="851.42" y="-396.3" font-family="Times,serif" font-size="14.00">updated_at :datetime</text>
<text text-anchor="start" x="851.42" y="-382.3" font-family="Times,serif" font-size="14.00">remember_me_token :string</text>
<text text-anchor="start" x="851.42" y="-368.3" font-family="Times,serif" font-size="14.00">remember_me_token_expires_at :datetime</text>
<text text-anchor="start" x="851.42" y="-354.3" font-family="Times,serif" font-size="14.00">reset_password_token :string</text>
<text text-anchor="start" x="851.42" y="-340.3" font-family="Times,serif" font-size="14.00">reset_password_token_expires_at :datetime</text>
<text text-anchor="start" x="851.42" y="-326.3" font-family="Times,serif" font-size="14.00">reset_password_email_sent_at :datetime</text>
<text text-anchor="start" x="851.42" y="-312.3" font-family="Times,serif" font-size="14.00">activation_state :string</text>
<text text-anchor="start" x="851.42" y="-298.3" font-family="Times,serif" font-size="14.00">activation_token :string</text>
<text text-anchor="start" x="851.42" y="-284.3" font-family="Times,serif" font-size="14.00">activation_token_expires_at :datetime</text>
<text text-anchor="start" x="851.42" y="-270.3" font-family="Times,serif" font-size="14.00">failed_logins_count :integer</text>
<text text-anchor="start" x="851.42" y="-256.3" font-family="Times,serif" font-size="14.00">lock_expires_at :datetime</text>
<text text-anchor="start" x="851.42" y="-242.3" font-family="Times,serif" font-size="14.00">unlock_token :string</text>
<text text-anchor="start" x="851.42" y="-228.3" font-family="Times,serif" font-size="14.00">last_login_at :datetime</text>
<text text-anchor="start" x="851.42" y="-214.3" font-family="Times,serif" font-size="14.00">last_logout_at :datetime</text>
<text text-anchor="start" x="851.42" y="-200.3" font-family="Times,serif" font-size="14.00">last_activity_at :datetime</text>
<text text-anchor="start" x="851.42" y="-186.3" font-family="Times,serif" font-size="14.00">last_login_from_ip_address :string</text>
<text text-anchor="start" x="851.42" y="-172.3" font-family="Times,serif" font-size="14.00">name :string</text>
</g>
</g>
</svg>
