<?xml version="1.0" encoding="UTF-8" standalone="no"?>
<!DOCTYPE svg PUBLIC "-//W3C//DTD SVG 1.1//EN"
 "http://www.w3.org/Graphics/SVG/1.1/DTD/svg11.dtd">
<!-- Generated by graphviz version 2.38.0 (20140413.2041)
 -->
<!-- Title: models_diagram Pages: 1 -->
<svg width="541pt" height="297pt"
 viewBox="0.00 0.00 540.69 297.00" xmlns="http://www.w3.org/2000/svg" xmlns:xlink="http://www.w3.org/1999/xlink">
<g id="graph0" class="graph" transform="scale(1 1) rotate(0) translate(4 293)">
<title>models_diagram</title>
<polygon fill="white" stroke="none" points="-4,4 -4,-293 536.688,-293 536.688,4 -4,4"/>
<!-- _diagram_info -->
<g id="node1" class="node"><title>_diagram_info</title>
<text text-anchor="start" x="8" y="-274.6" font-family="Times,serif" font-size="13.00">Models diagram</text>
<text text-anchor="start" x="8" y="-261.6" font-family="Times,serif" font-size="13.00">Date: Jan 28 2015 &#45; 00:06</text>
<text text-anchor="start" x="8" y="-248.6" font-family="Times,serif" font-size="13.00">Migration version: 20150127222420</text>
<text text-anchor="start" x="8" y="-235.6" font-family="Times,serif" font-size="13.00">Generated by RailRoady 1.3.0</text>
<text text-anchor="start" x="8" y="-222.6" font-family="Times,serif" font-size="13.00">http://railroady.prestonlee.com</text>
</g>
<!-- Affiliation -->
<g id="node2" class="node"><title>Affiliation</title>
<ellipse fill="none" stroke="black" cx="194.688" cy="-18" rx="46.9064" ry="18"/>
<text text-anchor="middle" x="194.688" y="-13.8" font-family="Times,serif" font-size="14.00">Affiliation</text>
</g>
<!-- Artifact -->
<g id="node3" class="node"><title>Artifact</title>
<ellipse fill="none" stroke="black" cx="262.688" cy="-252.5" rx="37.7092" ry="18"/>
<text text-anchor="middle" x="262.688" y="-248.3" font-family="Times,serif" font-size="14.00">Artifact</text>
</g>
<!-- Event -->
<g id="node4" class="node"><title>Event</title>
<ellipse fill="none" stroke="black" cx="303.688" cy="-162" rx="30.9706" ry="18"/>
<text text-anchor="middle" x="303.688" y="-157.8" font-family="Times,serif" font-size="14.00">Event</text>
</g>
<!-- Artifact&#45;&gt;Event -->
<g id="edge1" class="edge"><title>Artifact&#45;&gt;Event</title>
<path fill="none" stroke="#af5753" d="M274.661,-225.656C280.044,-214.036 286.383,-200.354 291.761,-188.745"/>
<polygon fill="#af5753" stroke="#af5753" points="274.603,-225.78 266.316,-232.962 272.501,-230.317 270.4,-234.854 270.4,-234.854 270.4,-234.854 272.501,-230.317 274.483,-236.745 274.603,-225.78 274.603,-225.78"/>
<polygon fill="#af5753" stroke="#af5753" points="291.807,-188.645 300.094,-181.463 293.909,-184.108 296.011,-179.572 296.011,-179.572 296.011,-179.572 293.909,-184.108 291.927,-177.68 291.807,-188.645 291.807,-188.645"/>
</g>
<!-- Interaction -->
<g id="node5" class="node"><title>Interaction</title>
<ellipse fill="none" stroke="black" cx="307.688" cy="-18" rx="48.3169" ry="18"/>
<text text-anchor="middle" x="307.688" y="-13.8" font-family="Times,serif" font-size="14.00">Interaction</text>
</g>
<!-- Event&#45;&gt;Interaction -->
<g id="edge2" class="edge"><title>Event&#45;&gt;Interaction</title>
<path fill="none" stroke="#cf74be" d="M309.41,-135.933C311.15,-127.149 312.829,-117.185 313.688,-108 315.622,-87.3142 313.881,-63.8674 311.786,-46.2342"/>
<ellipse fill="none" stroke="#cf74be" cx="308.561" cy="-140.013" rx="4.00001" ry="4.00001"/>
<polygon fill="#cf74be" stroke="#cf74be" points="311.756,-45.9994 314.928,-35.5024 311.111,-41.0412 310.465,-36.083 310.465,-36.083 310.465,-36.083 311.111,-41.0412 306.003,-36.6636 311.756,-45.9994 311.756,-45.9994"/>
</g>
<!-- Person -->
<g id="node7" class="node"><title>Person</title>
<ellipse fill="none" stroke="black" cx="194.688" cy="-90" rx="34.3614" ry="18"/>
<text text-anchor="middle" x="194.688" y="-85.8" font-family="Times,serif" font-size="14.00">Person</text>
</g>
<!-- Event&#45;&gt;Person -->
<g id="edge4" class="edge"><title>Event&#45;&gt;Person</title>
<path fill="none" stroke="#4d8d02" d="M275.28,-142.756C259.678,-132.737 240.343,-120.32 224.522,-110.16"/>
<polygon fill="#4d8d02" stroke="#4d8d02" points="275.281,-142.757 281.264,-151.947 279.488,-145.459 283.695,-148.161 283.695,-148.161 283.695,-148.161 279.488,-145.459 286.127,-144.374 275.281,-142.757 275.281,-142.757"/>
<polygon fill="#4d8d02" stroke="#4d8d02" points="224.082,-109.877 218.099,-100.687 219.875,-107.175 215.668,-104.473 215.668,-104.473 215.668,-104.473 219.875,-107.175 213.236,-108.26 224.082,-109.877 224.082,-109.877"/>
</g>
<!-- Place -->
<g id="node8" class="node"><title>Place</title>
<ellipse fill="none" stroke="black" cx="275.688" cy="-90" rx="29.0172" ry="18"/>
<text text-anchor="middle" x="275.688" y="-85.8" font-family="Times,serif" font-size="14.00">Place</text>
</g>
<!-- Event&#45;&gt;Place -->
<g id="edge5" class="edge"><title>Event&#45;&gt;Place</title>
<path fill="none" stroke="#4c4eb5" d="M293.31,-135.056C290.991,-129.258 288.529,-123.104 286.204,-117.291"/>
<polygon fill="#4c4eb5" stroke="#4c4eb5" points="293.338,-135.126 292.874,-146.082 295.195,-139.769 297.052,-144.411 297.052,-144.411 297.052,-144.411 295.195,-139.769 301.23,-142.74 293.338,-135.126 293.338,-135.126"/>
<polygon fill="#4c4eb5" stroke="#4c4eb5" points="286.184,-117.241 286.648,-106.285 284.327,-112.599 282.47,-107.956 282.47,-107.956 282.47,-107.956 284.327,-112.599 278.292,-109.627 286.184,-117.241 286.184,-117.241"/>
</g>
<!-- Citation -->
<g id="node12" class="node"><title>Citation</title>
<ellipse fill="none" stroke="black" cx="399.688" cy="-90" rx="38.7042" ry="18"/>
<text text-anchor="middle" x="399.688" y="-85.8" font-family="Times,serif" font-size="14.00">Citation</text>
</g>
<!-- Event&#45;&gt;Citation -->
<g id="edge3" class="edge"><title>Event&#45;&gt;Citation</title>
<path fill="none" stroke="#3fd95c" d="M328.693,-142.767C341.694,-133.287 357.643,-121.658 371.127,-111.825"/>
<ellipse fill="none" stroke="#3fd95c" cx="325.43" cy="-145.147" rx="4.00002" ry="4.00002"/>
<polygon fill="#3fd95c" stroke="#3fd95c" points="371.498,-111.555 382.229,-109.3 375.538,-108.61 379.578,-105.664 379.578,-105.664 379.578,-105.664 375.538,-108.61 376.926,-102.028 371.498,-111.555 371.498,-111.555"/>
</g>
<!-- Page -->
<g id="node6" class="node"><title>Page</title>
<ellipse fill="none" stroke="black" cx="425.688" cy="-162" rx="27.0958" ry="18"/>
<text text-anchor="middle" x="425.688" y="-157.8" font-family="Times,serif" font-size="14.00">Page</text>
</g>
<!-- Person&#45;&gt;Affiliation -->
<g id="edge6" class="edge"><title>Person&#45;&gt;Affiliation</title>
<path fill="none" stroke="#b482e6" d="M194.688,-63.6398C194.688,-58.0629 194.688,-52.1319 194.688,-46.4761"/>
<ellipse fill="none" stroke="#b482e6" cx="194.688" cy="-67.6966" rx="4" ry="4"/>
<polygon fill="#b482e6" stroke="#b482e6" points="194.688,-46.1043 199.188,-36.1043 194.688,-41.1043 194.688,-36.1043 194.688,-36.1043 194.688,-36.1043 194.688,-41.1043 190.188,-36.1044 194.688,-46.1043 194.688,-46.1043"/>
</g>
<!-- Person&#45;&gt;Interaction -->
<g id="edge7" class="edge"><title>Person&#45;&gt;Interaction</title>
<path fill="none" stroke="#22cb86" d="M223.078,-71.4128C238.877,-61.6259 258.611,-49.4016 275.045,-39.221"/>
<ellipse fill="none" stroke="#22cb86" cx="219.343" cy="-73.7271" rx="4.00002" ry="4.00002"/>
<polygon fill="#22cb86" stroke="#22cb86" points="275.289,-39.0699 286.16,-37.6292 279.54,-36.4368 283.79,-33.8037 283.79,-33.8037 283.79,-33.8037 279.54,-36.4368 281.42,-29.9783 275.289,-39.0699 275.289,-39.0699"/>
</g>
<!-- Place&#45;&gt;Affiliation -->
<g id="edge8" class="edge"><title>Place&#45;&gt;Affiliation</title>
<path fill="none" stroke="#b94bd5" d="M252.995,-69.3887C242.939,-60.699 231.056,-50.4291 220.649,-41.4354"/>
<ellipse fill="none" stroke="#b94bd5" cx="256.27" cy="-72.219" rx="4.00002" ry="4.00002"/>
<polygon fill="#b94bd5" stroke="#b94bd5" points="220.599,-41.3927 215.975,-31.4492 216.816,-38.1233 213.033,-34.854 213.033,-34.854 213.033,-34.854 216.816,-38.1233 210.091,-38.2588 220.599,-41.3927 220.599,-41.3927"/>
</g>
<!-- Place&#45;&gt;Interaction -->
<g id="edge9" class="edge"><title>Place&#45;&gt;Interaction</title>
<path fill="none" stroke="#451bdd" d="M286.631,-65.0625C289.57,-58.6325 292.763,-51.6473 295.754,-45.106"/>
<ellipse fill="none" stroke="#451bdd" cx="284.934" cy="-68.7731" rx="4.00002" ry="4.00002"/>
<polygon fill="#451bdd" stroke="#451bdd" points="295.779,-45.051 304.029,-37.8272 297.858,-40.5036 299.936,-35.9562 299.936,-35.9562 299.936,-35.9562 297.858,-40.5036 295.844,-34.0853 295.779,-45.051 295.779,-45.051"/>
</g>
<!-- Source -->
<g id="node9" class="node"><title>Source</title>
<ellipse fill="none" stroke="black" cx="425.688" cy="-252.5" rx="34.8285" ry="18"/>
<text text-anchor="middle" x="425.688" y="-248.3" font-family="Times,serif" font-size="14.00">Source</text>
</g>
<!-- Source&#45;&gt;Page -->
<g id="edge10" class="edge"><title>Source&#45;&gt;Page</title>
<path fill="none" stroke="#d85717" d="M425.688,-226.189C425.688,-214.971 425.688,-201.752 425.688,-190.311"/>
<ellipse fill="none" stroke="#d85717" cx="425.688" cy="-230.436" rx="4" ry="4"/>
<polygon fill="#d85717" stroke="#d85717" points="425.688,-190.011 430.188,-180.011 425.688,-185.011 425.688,-180.011 425.688,-180.011 425.688,-180.011 425.688,-185.011 421.188,-180.011 425.688,-190.011 425.688,-190.011"/>
</g>
<!-- User -->
<g id="node10" class="node"><title>User</title>
<ellipse fill="none" stroke="black" cx="505.688" cy="-252.5" rx="27" ry="18"/>
<text text-anchor="middle" x="505.688" y="-248.3" font-family="Times,serif" font-size="14.00">User</text>
</g>
<!-- Verb -->
<g id="node11" class="node"><title>Verb</title>
<ellipse fill="none" stroke="black" cx="345.688" cy="-252.5" rx="27" ry="18"/>
<text text-anchor="middle" x="345.688" y="-248.3" font-family="Times,serif" font-size="14.00">Verb</text>
</g>
<!-- Verb&#45;&gt;Event -->
<g id="edge11" class="edge"><title>Verb&#45;&gt;Event</title>
<path fill="none" stroke="#d44eed" d="M334.222,-227.341C328.545,-215.378 321.687,-200.928 315.91,-188.755"/>
<ellipse fill="none" stroke="#d44eed" cx="336.073" cy="-231.24" rx="4.00002" ry="4.00002"/>
<polygon fill="#d44eed" stroke="#d44eed" points="315.84,-188.606 315.618,-177.642 313.696,-184.089 311.552,-179.572 311.552,-179.572 311.552,-179.572 313.696,-184.089 307.487,-181.501 315.84,-188.606 315.84,-188.606"/>
</g>
</g>
</svg>
